<svg id="图层_1" xmlns="http://www.w3.org/2000/svg" viewBox="0 0 229 211" enable-background="new 0 0 229 211"><style>.st0{fill:#4ecce2}.st1{fill:#3788c6}.st2{fill:none}.st3{opacity:.5}.st4{fill:#fff}.st5{fill:#e1e6ea}.st6{filter:url(#Adobe_OpacityMaskFilter)}.st7{mask:url(#mask-2);fill:#e1e6ea}.st8{opacity:.17;fill:url(#SVGID_1_)}</style><title>icon/multiChainWallet</title><g id="Page-5"><g id="homepage-1440-CH" transform="translate(-259 -668)"><g id="icon_x2F_multiChainWallet-" transform="translate(244 643)"><g transform="translate(14.345 25.103)"><path id="Shape_3_" class="st0" d="M162.7 199.2c-.2 1-.5 1.9-.8 2.8l-.1.2c-.1.4-.2.8-.4 1.1 0 .1 0 .2-.1.3-.1 1.1-.6 2.1-1.2 2.9-.3.4-.7.7-1.2 1-.2.2-.5.3-.7.5l-.3.1c-.3.2-.6.3-.8.4-1 .4-1.9.7-3 .9-.7.2-1.3.3-2 .3h-2c-.7.1-1.4.1-2.1 0-.6-.1-1.1-.1-1.7 0-.3 0-.5.1-.7.1h-.5c-.5-.1-1.1-.1-1.7 0-.9.1-1.8 0-2.6-.1l-.6-.1h-1.1c-.3 0-.5.1-.8.1h-1.6c-.9.1-1.8.1-2.7 0h-2c-.4 0-1 0-1.4.1h-.6c-.2 0-.6 0-1-.1s-.9-.1-1.4-.1c-.6.1-1.1.1-1.7.1h-.9c-.8 0-1.6 0-2.4-.1h-1.2c-.3 0-.6.1-1 .1s-.8 0-1.2-.1c-.4-.1-.9-.1-1.3-.1v-.1h-4.8c-1 .2-2.1.2-3.1 0h-3.7c-.5 0-1.1 0-1.8.1h-1.2c-.7 0-1.5 0-2.2-.1h-1.9c-.7.1-1.4.1-2.1 0H96l-.5.1c-.3 0-.5 0-.7.1h-.5c-.5-.1-1.1-.1-1.7 0-.9.1-1.8 0-2.6-.1h-1.7c-.3.1-.5.1-.8.1h-1.6c-.9.1-1.8.1-2.6 0h-.9c-.4 0-.8 0-1.1-.1-.6-.1-1.3-.2-1.9-.3-.4-.1-.8-.3-1.1-.6-.2-.1-.4-.3-.6-.4-.1-.1-.3-.2-.4-.3-.4-.2-.8-.5-1.1-.8-.3-.3-.6-.7-.9-1.1-.3-.8-.5-1.5-.7-2.3-.1-.4-.2-.8-.4-1.1-.1-.3-.3-.6-.4-.9l-.3-1.2c-.1-.4-.2-.9-.3-1.3l.2-.1-.2-.5h.5c.9-.1 1.7-.1 2.6 0h1.5c.9-.2 1.9-.2 2.8-.1.6.1 1.2.1 1.8.1.5 0 1 0 1.4-.1.5 0 1-.1 1.6-.1h1.1c.6 0 1.3 0 1.9.1.4 0 .7.1 1.1 0h.5c.6-.1 1.2-.1 1.8 0 .5.1 1 0 1.5 0 .2 0 .4-.1.6-.1h.5c.5.1.9.1 1.4 0 .8-.1 1.5 0 2.3.1.2 0 .4.1.6.1h.9c.2-.1.5-.1.7-.1h1.4c.8-.1 1.5-.1 2.3 0h1.7c.3 0 .8-.1 1.2-.1h.4c.3 0 .6 0 1 .1s.8.1 1.2.1c.5-.1 1-.1 1.5-.1h.8c.7 0 1.4 0 2.1.1.3 0 .7 0 1-.1.3 0 .6-.1.9-.1.4 0 .7 0 1.1.1.4.1.8.1 1.1.1.9-.1 1.7-.1 2.6 0h1.4c.9-.2 1.9-.2 2.8-.1.5.1 1.1.1 1.6.1h.4c.4 0 .8 0 1.2-.1.5 0 1-.1 1.6-.1h1c.6 0 1.3 0 1.9.1.4 0 .7.1 1.1 0h.5c.6-.1 1.2-.1 1.8 0 .5.1 1 .1 1.5 0 .2 0 .4-.1.6-.1h.5c.5.1.9.1 1.4 0 .8-.1 1.5 0 2.3.1l.6.1h.6l.3-.1c.2 0 .5-.1.7-.1h1.4c.8-.1 1.5-.1 2.3 0h1.7c.3 0 .8-.1 1.2-.1h.4c.3 0 .6 0 1 .1s.8.1 1.2.1c.5-.1 1-.1 1.5-.1h.8c.7 0 1.4 0 2.1.1.3 0 .7 0 1-.1.3 0 .6-.1.9-.1.4 0 .7 0 1.1.1.4.1.8.1 1.1.1v.2h.5c.2.1.1.2.1.5z"/><path id="Shape_4_" class="st1" d="M153.9 132.1c0 .2 0 .5.1.7l-.1-.7zm2.4 16.6c0 .1 0 .3.1.4l-.1-.4zm.9 37.4c0-.4-.1-.8-.2-1.1 0-.1-.1-.2-.1-.3v-.7c0-.3 0-.7-.1-1-.1-.2-.1-.7-.2-1.1 0-.3-.1-.5-.1-.7-.1-.5-.1-1.1-.1-1.6 0-.3-.1-.6-.2-.9 0-.1-.1-.3-.1-.5l1.1 8.1c.1.4-.5.7-1.2.7h-23.9l.1.2h2.7c.2 0 .4 0 .6-.1.7-.1 1.4-.1 2.1 0 .9.1 1.7.1 2.6 0h2.1c.5 0 1.1 0 1.5.1h1.3c.5-.1.9-.1 1.4 0 .4.1.8.1 1.3 0h.8c.4.1.8.1 1.2 0 .6-.1 1.2 0 1.8.1h1.3c.2 0 .3-.1.5-.1h2c.4.1.9 0 1.3-.1.2-.1.3-.2.4-.3.2-.3.2-.5.1-.7zm-4.1-30v.3c0-.1.1-.2 0-.3zm2.3 17.1l.1.9c0-.3 0-.6-.1-.9zm.6 4c0-.3 0-.6-.1-1h-.1l.2 1.3v-.3zm-12.6-54h-19.3l.1.2h2c.4.1.7.1 1.1 0 .7-.1 1.3-.1 2 0 .8.1 1.6.1 2.4 0h2c.5 0 1 0 1.4.1h1.3c.4-.1.9-.1 1.3 0s.8.1 1.2 0h.7c.4.1.8.1 1.1 0 .6 0 1.2 0 1.7.1l.4.1h2.3c.7 0 1.3.1 2 .3h.1c.2 0 .6.1.9.2l1.2.3c-1.9-.9-3.9-1.3-5.9-1.3zm9.9 4.3c-.2-1.3-1.7-2.5-3.9-3.2.3.1.5.2.8.4l.6.3c.5.2 1 .5 1.4.8.4.3.7.7.9 1.2 0 .1.1.2.1.3.1.3.2.6.2.9l-.1-.7zm-2.2 11.5c0-.5-.1-.9-.2-1.3-.2-.7-.3-1.4-.3-2.1 0-.6-.1-1.2-.2-1.8-.1-.2-.2-.4-.4-.5-.1-.1-.2-.1-.4-.1h-2.1c-.5 0-1 0-1.5-.1h-1.3c-.5.1-.9.1-1.4 0-.4-.1-.8-.1-1.3 0h-2c-.6.1-1.2 0-1.8-.1l-.5-.1h-.8c-.2 0-.3.1-.5.1h-4.2c-.3 0-.7 0-1 .1h-1c-.3 0-.7-.1-1 0-.4 0-.8.1-1.1 0h-.7c-.5 0-1.1 0-1.6-.1h-1.4H149c.4 0 .7.1 1 .3.1 0 .1.1.1.2s0 .3.1.5v.3l.5 3.4.1.8v.2l.3 2.1.2-.1c-.1-.4-.2-1-.2-1.7zm.2 3.1c0-.3 0-.6-.1-1h-.1l.2 1.4c.1-.2.1-.3 0-.4zm-20.5 45h.3c.3 0 .6.1 1 .1v-.1h-1.3zm-6.8-64h-1.2.3c.3 0 .6.1.9.1v-.1zm-.9 10.2c-.3 0-.6-.1-1-.1v.1h1.4-.4zM110 123.1H93.1c-.7 0-1.4.1-2.1.2l.1.2c.6-.1 1.2-.2 1.8-.2.4 0 .8 0 1.2-.1.7-.1 1.3-.2 2-.1.8.1 1.6.1 2.4 0h2c.5 0 1 0 1.4.1h1.3c.4-.1.9-.1 1.3 0s.8.1 1.2 0h.7c.4.1.8.1 1.1 0 .6-.1 1.1 0 1.7.1l.5.1h.7c.2 0 .3-.1.5-.1h4.1c.3 0 .6 0 .9-.1h1c.3 0 .6.1.9 0h1.7c.5 0 1 0 1.5.1h1.3l-12.3-.2zm12.1 10H120c-.4-.1-.8-.1-1.2 0-.7.1-1.4.1-2.1 0-.9-.1-1.7-.1-2.6 0H112c-.5 0-1.1 0-1.5-.1-.5-.1-.7 0-.9 0h-.4c-.5.1-.9.1-1.4 0-.4-.1-.8-.1-1.3 0h-.8c-.4-.1-.8-.1-1.2 0-.6.1-1.2 0-1.8-.1l-.5-.1h-.8c-.2 0-.3.1-.5.1h-4.2c-.3 0-.7 0-1 .1h-1c-.3 0-.7-.1-1 0h-1.8c-.5 0-1.1 0-1.6-.1H89h26.7l6.4.2zm-.5-5c0-.1 0-.2-.1-.2-.1-.1-.2-.3-.3-.3l-.2-.1c-.1-.1-.3-.1-.4-.2-.2 0-.3-.1-.5-.2-.1-.1-.3-.1-.4 0h-.1c1.2.1 2.1.6 2.1 1.2s-.8 1-1.8 1.1h-.1c-.3 0-.6.1-.9.1-.7 0-1.3-.1-1.9-.3-.5-.2-.8-.5-.8-.9 0-.2.1-.4.3-.5l.1-.1c.4-.2.8-.4 1.2-.4h.3c.3 0 .5-.1.8-.1h.5-.1c-.1-.1-.3-.1-.4-.1l-.1-.1h-.8c-.2 0-.4 0-.5.1-.2.2-.5.2-.7.3-.4 0-.8.3-.9.6-.1.3-.1.7.2.9.2.3.5.5.8.6h.2c.1 0 .3 0 .4.1.2.1.4.1.6.1h.2c.2.1.4.1.5 0h1c.1 0 .2 0 .3-.1l.1-.1h.2c.1 0 .2 0 .3-.1.1-.1.3-.1.4-.2.1 0 .2-.1.3-.2l.3-.3c0-.2 0-.4-.1-.6zm-4.4 59H96.7l.1.2h2.7c.2 0 .4 0 .6-.1.7-.1 1.4-.1 2.1-.1.9.1 1.7.1 2.6 0 .4 0 .8 0 1.3-.1h3.7c.5-.1.9-.1 1.4 0 .4.1.8.1 1.3 0h2c.6-.1 1.2 0 1.8.1l.5.1h.8c.2 0 .3-.1.5-.1h4.2c.3 0 .7 0 1-.1h3.8c.5 0 1.1 0 1.6.1h1.4-12.9zm-21.9.1h.3c.3.1.7.1 1 .1v-.1h-1.3zm-13.6.1h-1.1c-.7 0-1.3-.3-1.2-.7l1.5-10.6.1-.5.5-3.6.1-.8.3-2.3h-.2c-.1.7-.2 1.3-.3 2v.1c-.1.4-.1.8-.1 1.2 0 .7-.1 1.4-.3 2.1-.2.8-.3 1.7-.4 2.6 0 .4-.1.8-.1 1.3 0 .2-.1.5-.1.8l-.3 1.5c-.1.3-.1.6-.2.9v.4c0 .5-.1.9-.2 1.4-.1.4-.2.8-.1 1.3v.5c0 .1 0 .2-.1.3-.1.4-.2.8-.1 1.2-.1.4.2.7.8.9.3.1.6.1.9.2h1c.2 0 .3-.1.5-.1h4.2c.3 0 .7 0 1-.1h1c.3 0 .7.1 1 0 .4 0 .8-.1 1.1-.1h3.7-12.9zm9.1-63.9c-.4.1-.8.1-1.2.2h.4c.3-.1.5-.1.8-.2zm-6.9 3.9l-.9 5.6-.1.4-1.2 7.1-.8 4.7v.2c0 .2-.1.4-.1.6l-.5 3.2-.1.7v.2l-.3 1.9h.2c.1-.6.2-1.2.3-1.9.1-.4.2-.7.1-1.1 0-.7.1-1.3.3-2 .2-.8.4-1.6.4-2.4 0-.4.1-.7.1-1.2 0-.2.1-.5.1-.8.1-.5.2-1 .3-1.4.1-.3.1-.6.2-.8v-.4c0-.4.1-.9.2-1.3s.2-.8.2-1.2v-.5c0-.1 0-.2.1-.3.1-.4.2-.7.2-1.1 0-.6.1-1.1.3-1.6 0-.2.1-.3.1-.5.1-.2.1-.5.1-.7v-.5c0-.2 0-.3.1-.5 0-.2.1-.4.1-.6.1-.6.1-1.1.3-1.7 0-.1.1-.3.1-.3l.1-1c0-.2 0-.4.1-.5 0-.2 0-.5.1-.7.1-.2.3-.5.4-.6l.3-.3.3-.3c.4-.4.9-.7 1.4-1 .4-.2.9-.4 1.4-.5.2-.1.5-.1.7-.2.2-.1.4-.2.6-.2-2.9.7-4.9 2-5.2 3.5zm3.8 6c-.2 0-.3 0-.5.1-.2 0-.4.2-.4.4h.1c0-.3.6-.5 1.1-.5h-.3zm-1 .5c-.1.7-.2 1.3-.3 2v.1c-.1.4-.1.8-.1 1.2 0 .7-.1 1.4-.3 2.1-.2.8-.4 1.7-.4 2.6 0 .4-.1.8-.1 1.3 0 .2-.1.5-.1.8l-.3 1.5c-.1.3-.1.6-.2.9v.4c0 .5-.1.9-.2 1.4-.1.4-.2.8-.1 1.3v.5c0 .1 0 .2-.1.3-.1.4-.2.8-.2 1.2 0 .6-.1 1.2-.3 1.8 0 .2-.1.3-.1.5-.1.3-.1.5-.1.8v.5c0 .2 0 .3-.1.5 0 .2-.1.4-.1.6 0 .6-.1 1.2-.3 1.8 0 .2 0 .3-.1.3l-.1 1c0 .3-.1.7-.1 1v.3c0 .2-.1.5-.1.7-.1.3-.2.7-.2 1 0 .2-.1.7-.1 1.1 0 .3-.1.5-.1.7-.1.5-.2 1.1-.3 1.6-.1.3-.1.6-.1.9v.5l1.8-12.9.1-.4 2-12.7c0-.2 0-.3.1-.5l.5-3.7.1-.8v-.3l.3-2h-.3zM82 167.9c-.1.3-.2.6-.2.9h.1l.2-1.3c0 .2-.1.3-.1.4zm-2.1-16l-.2 1.2c0-.1.1-.2.1-.3.1-.3.2-.6.1-.9zm-2.2 13.9c0 .1 0 .2-.1.3l-1.2 7.1-.8 4.9v.3L75 182l-.1.6-.4 2.2h.2c.1-.6.2-1.2.3-1.9v-.1c.1-.4.2-.7.2-1.1 0-.7.1-1.3.3-2 .2-.8.4-1.6.4-2.4 0-.4.1-.7.1-1.2 0-.2.1-.5.1-.8.1-.5.2-.9.3-1.4.1-.3.1-.6.2-.8v-.4c0-.4.1-.9.2-1.3s.2-.8.2-1.2v-.5c0-.1 0-.2.1-.3.1-.4.2-.7.2-1.1 0-.6.2-1.1.3-1.6 0-.2.1-.3.1-.5.1-.2.1-.5.1-.7v-.5c0-.2 0-.3.1-.5 0-.2.1-.4.1-.6.1-.6.1-1.1.3-1.7 0-.1.1-.3.1-.3l.1-1c0-.3.1-.6.1-1v-.3c0-.2.1-.4.1-.7.1-.3.2-.6.2-.9 0-.2.1-.7.1-1.1.1-.3.1-.5.1-.6l.3-1.5c.1-.3.1-.6.1-.8v-.4l-1.8 12.2z"/><path id="Shape_5_" class="st2" d="M153.9 132.1c0 .2 0 .5.1.7l-.1-.7zm2.4 16.6c0 .1 0 .3.1.4l-.1-.4zm.9 37.4c0-.4-.1-.8-.2-1.1 0-.1-.1-.2-.1-.3v-.7c0-.3 0-.7-.1-1-.1-.2-.1-.7-.2-1.1 0-.3-.1-.5-.1-.7-.1-.5-.1-1.1-.1-1.6 0-.3-.1-.6-.2-.9 0-.1-.1-.3-.1-.5l1.1 8.1c.1.4-.5.7-1.2.7h-23.9l.1.2h2.7c.2 0 .4 0 .6-.1.7-.1 1.4-.1 2.1 0 .9.1 1.7.1 2.6 0h2.1c.5 0 1.1 0 1.5.1h1.3c.5-.1.9-.1 1.4 0 .4.1.8.1 1.3 0h.8c.4.1.8.1 1.2 0 .6-.1 1.2 0 1.8.1h1.3c.2 0 .3-.1.5-.1h2c.4.1.9 0 1.3-.1.2-.1.3-.2.4-.3.2-.3.2-.5.1-.7zm-4.1-30v.3c0-.1.1-.2 0-.3zm2.3 17.1l.1.9c0-.3 0-.6-.1-.9zm.6 4c0-.3 0-.6-.1-1h-.1l.2 1.3v-.3zm-12.6-54h-19.3l.1.2h2c.4.1.7.1 1.1 0 .7-.1 1.3-.1 2 0 .8.1 1.6.1 2.4 0h2c.5 0 1 0 1.4.1h1.3c.4-.1.9-.1 1.3 0s.8.1 1.2 0h.7c.4.1.8.1 1.1 0 .6 0 1.2 0 1.7.1l.4.1h2.3c.7 0 1.3.1 2 .3h.1c.2 0 .6.1.9.2l1.2.3c-1.9-.9-3.9-1.3-5.9-1.3zm9.9 4.3c-.2-1.3-1.7-2.5-3.9-3.2.3.1.5.2.8.4l.6.3c.5.2 1 .5 1.4.8.4.3.7.7.9 1.2 0 .1.1.2.1.3.1.3.2.6.2.9l-.1-.7zm-2.2 11.5c0-.5-.1-.9-.2-1.3-.2-.7-.3-1.4-.3-2.1 0-.6-.1-1.2-.2-1.8-.1-.2-.2-.4-.4-.5-.1-.1-.2-.1-.4-.1h-2.1c-.5 0-1 0-1.5-.1h-1.3c-.5.1-.9.1-1.4 0-.4-.1-.8-.1-1.3 0h-2c-.6.1-1.2 0-1.8-.1l-.5-.1h-.8c-.2 0-.3.1-.5.1h-4.2c-.3 0-.7 0-1 .1h-1c-.3 0-.7-.1-1 0-.4 0-.8.1-1.1 0h-.7c-.5 0-1.1 0-1.6-.1h-1.4H149c.4 0 .7.1 1 .3.1 0 .1.1.1.2s0 .3.1.5v.3l.5 3.4.1.8v.2l.3 2.1.2-.1c-.1-.4-.2-1-.2-1.7zm.2 3.1c0-.3 0-.6-.1-1h-.1l.2 1.4c.1-.2.1-.3 0-.4zm-20.5 45h.3c.3 0 .6.1 1 .1v-.1h-1.3zm-6.8-64h-1.2.3c.3 0 .6.1.9.1v-.1zm-.9 10.2c-.3 0-.6-.1-1-.1v.1h1.4-.4zM110 123.1H93.1c-.7 0-1.4.1-2.1.2l.1.2c.6-.1 1.2-.2 1.8-.2.4 0 .8 0 1.2-.1.7-.1 1.3-.2 2-.1.8.1 1.6.1 2.4 0h2c.5 0 1 0 1.4.1h1.3c.4-.1.9-.1 1.3 0s.8.1 1.2 0h.7c.4.1.8.1 1.1 0 .6-.1 1.1 0 1.7.1l.5.1h.7c.2 0 .3-.1.5-.1h4.1c.3 0 .6 0 .9-.1h1c.3 0 .6.1.9 0h1.7c.5 0 1 0 1.5.1h1.3l-12.3-.2zm12.1 10H120c-.4-.1-.8-.1-1.2 0-.7.1-1.4.1-2.1 0-.9-.1-1.7-.1-2.6 0H112c-.5 0-1.1 0-1.5-.1-.5-.1-.7 0-.9 0h-.4c-.5.1-.9.1-1.4 0-.4-.1-.8-.1-1.3 0h-.8c-.4-.1-.8-.1-1.2 0-.6.1-1.2 0-1.8-.1l-.5-.1h-.8c-.2 0-.3.1-.5.1h-4.2c-.3 0-.7 0-1 .1h-1c-.3 0-.7-.1-1 0h-1.8c-.5 0-1.1 0-1.6-.1H89h26.7l6.4.2zm-.5-5c0-.1 0-.2-.1-.2-.1-.1-.2-.3-.3-.3l-.2-.1c-.1-.1-.3-.1-.4-.2-.2 0-.3-.1-.5-.2-.1-.1-.3-.1-.4 0h-.1c1.2.1 2.1.6 2.1 1.2s-.8 1-1.8 1.1h-.1c-.3 0-.6.1-.9.1-.7 0-1.3-.1-1.9-.3-.5-.2-.8-.5-.8-.9 0-.2.1-.4.3-.5l.1-.1c.4-.2.8-.4 1.2-.4h.3c.3 0 .5-.1.8-.1h.5-.1c-.1-.1-.3-.1-.4-.1l-.1-.1h-.8c-.2 0-.4 0-.5.1-.2.2-.5.2-.7.3-.4 0-.8.3-.9.6-.1.3-.1.7.2.9.2.3.5.5.8.6h.2c.1 0 .3 0 .4.1.2.1.4.1.6.1h.2c.2.1.4.1.5 0h1c.1 0 .2 0 .3-.1l.1-.1h.2c.1 0 .2 0 .3-.1.1-.1.3-.1.4-.2.1 0 .2-.1.3-.2l.3-.3c0-.2 0-.4-.1-.6zm-4.4 59H96.7l.1.2h2.7c.2 0 .4 0 .6-.1.7-.1 1.4-.1 2.1-.1.9.1 1.7.1 2.6 0 .4 0 .8 0 1.3-.1h3.7c.5-.1.9-.1 1.4 0 .4.1.8.1 1.3 0h2c.6-.1 1.2 0 1.8.1l.5.1h.8c.2 0 .3-.1.5-.1h4.2c.3 0 .7 0 1-.1h3.8c.5 0 1.1 0 1.6.1h1.4-12.9zm-21.9.1h.3c.3.1.7.1 1 .1v-.1h-1.3zm-13.6.1h-1.1c-.7 0-1.3-.3-1.2-.7l1.5-10.6.1-.5.5-3.6.1-.8.3-2.3h-.2c-.1.7-.2 1.3-.3 2v.1c-.1.4-.1.8-.1 1.2 0 .7-.1 1.4-.3 2.1-.2.8-.3 1.7-.4 2.6 0 .4-.1.8-.1 1.3 0 .2-.1.5-.1.8l-.3 1.5c-.1.3-.1.6-.2.9v.4c0 .5-.1.9-.2 1.4-.1.4-.2.8-.1 1.3v.5c0 .1 0 .2-.1.3-.1.4-.2.8-.1 1.2-.1.4.2.7.8.9.3.1.6.1.9.2h1c.2 0 .3-.1.5-.1h4.2c.3 0 .7 0 1-.1h1c.3 0 .7.1 1 0 .4 0 .8-.1 1.1-.1h3.7-12.9zm9.1-63.9c-.4.1-.8.1-1.2.2h.4c.3-.1.5-.1.8-.2zm-6.9 3.9l-.9 5.6-.1.4-1.2 7.1-.8 4.7v.2c0 .2-.1.4-.1.6l-.5 3.2-.1.7v.2l-.3 1.9h.2c.1-.6.2-1.2.3-1.9.1-.4.2-.7.1-1.1 0-.7.1-1.3.3-2 .2-.8.4-1.6.4-2.4 0-.4.1-.7.1-1.2 0-.2.1-.5.1-.8.1-.5.2-1 .3-1.4.1-.3.1-.6.2-.8v-.4c0-.4.1-.9.2-1.3s.2-.8.2-1.2v-.5c0-.1 0-.2.1-.3.1-.4.2-.7.2-1.1 0-.6.1-1.1.3-1.6 0-.2.1-.3.1-.5.1-.2.1-.5.1-.7v-.5c0-.2 0-.3.1-.5 0-.2.1-.4.1-.6.1-.6.1-1.1.3-1.7 0-.1.1-.3.1-.3l.1-1c0-.2 0-.4.1-.5 0-.2 0-.5.1-.7.1-.2.3-.5.4-.6l.3-.3.3-.3c.4-.4.9-.7 1.4-1 .4-.2.9-.4 1.4-.5.2-.1.5-.1.7-.2.2-.1.4-.2.6-.2-2.9.7-4.9 2-5.2 3.5zm3.8 6c-.2 0-.3 0-.5.1-.2 0-.4.2-.4.4h.1c0-.3.6-.5 1.1-.5h-.3zm-1 .5c-.1.7-.2 1.3-.3 2v.1c-.1.4-.1.8-.1 1.2 0 .7-.1 1.4-.3 2.1-.2.8-.4 1.7-.4 2.6 0 .4-.1.8-.1 1.3 0 .2-.1.5-.1.8l-.3 1.5c-.1.3-.1.6-.2.9v.4c0 .5-.1.9-.2 1.4-.1.4-.2.8-.1 1.3v.5c0 .1 0 .2-.1.3-.1.4-.2.8-.2 1.2 0 .6-.1 1.2-.3 1.8 0 .2-.1.3-.1.5-.1.3-.1.5-.1.8v.5c0 .2 0 .3-.1.5 0 .2-.1.4-.1.6 0 .6-.1 1.2-.3 1.8 0 .2 0 .3-.1.3l-.1 1c0 .3-.1.7-.1 1v.3c0 .2-.1.5-.1.7-.1.3-.2.7-.2 1 0 .2-.1.7-.1 1.1 0 .3-.1.5-.1.7-.1.5-.2 1.1-.3 1.6-.1.3-.1.6-.1.9v.5l1.8-12.9.1-.4 2-12.7c0-.2 0-.3.1-.5l.5-3.7.1-.8v-.3l.3-2h-.3zM82 167.9c-.1.3-.2.6-.2.9h.1l.2-1.3c0 .2-.1.3-.1.4zm-2.1-16l-.2 1.2c0-.1.1-.2.1-.3.1-.3.2-.6.1-.9zm-2.2 13.9c0 .1 0 .2-.1.3l-1.2 7.1-.8 4.9v.3L75 182l-.1.6-.4 2.2h.2c.1-.6.2-1.2.3-1.9v-.1c.1-.4.2-.7.2-1.1 0-.7.1-1.3.3-2 .2-.8.4-1.6.4-2.4 0-.4.1-.7.1-1.2 0-.2.1-.5.1-.8.1-.5.2-.9.3-1.4.1-.3.1-.6.2-.8v-.4c0-.4.1-.9.2-1.3s.2-.8.2-1.2v-.5c0-.1 0-.2.1-.3.1-.4.2-.7.2-1.1 0-.6.2-1.1.3-1.6 0-.2.1-.3.1-.5.1-.2.1-.5.1-.7v-.5c0-.2 0-.3.1-.5 0-.2.1-.4.1-.6.1-.6.1-1.1.3-1.7 0-.1.1-.3.1-.3l.1-1c0-.3.1-.6.1-1v-.3c0-.2.1-.4.1-.7.1-.3.2-.6.2-.9 0-.2.1-.7.1-1.1.1-.3.1-.5.1-.6l.3-1.5c.1-.3.1-.6.1-.8v-.4l-1.8 12.2z"/><path id="Shape_6_" class="st1" d="M153.9 132.1l-.3-2.1c.1.6.2 1.3.3 1.9v.2z"/><path id="Shape_7_" class="st1" d="M163.1 196.2l-.8-5.6.2-.1c.1 0 .2-.1.2-.2l-.5-3.8c0-.1-.1-.1-.2-.2h-.2l-.6-4.4h.2c.1 0 .2-.1.2-.1l-.9-6.4c0-.1-.1-.1-.2-.2h-.2l-1.8-12.3h.2c0-.3-.1-.6-.1-.9 0-.3 0-.5-.1-.8 0-.2-.1-.4-.2-.6-.1-.3-.1-.5-.1-.8 0-.5-.1-1-.2-1.6 0-.2-.1-.4-.1-.6-.1-.4-.1-.9-.2-1.1-.1-.3-.1-.6-.1-.9 0-.2 0-.5-.1-.7 0-.1 0-.2-.1-.3-.1-.3-.2-.7-.2-.9l-.2-1v-.3c0-.6-.1-1.2-.3-1.7-.1-.2-.1-.4-.1-.5 0-.2 0-.3-.1-.5 0-.2-.1-.3-.1-.5l-.1-.2c0-.1-.1-.3-.1-.4v-.5c0-.6 0-1.2-.2-1.7-.1-.3-.2-.7-.2-1.1v-.3c0-.2-.1-.3-.1-.5-.1-.3-.2-.7-.2-1.1 0-.5-.1-.9-.2-1.4 0-.1-.1-.3-.1-.4s-.1-.5-.1-.8c0-.5-.1-1-.1-1.5 0-.3-.1-.5-.1-.8-.1-.5-.1-.9-.2-1.2 0-.2-.1-.5-.1-.8l-.1-.4c0-.4-.1-.8-.1-1.2 0-.7-.1-1.4-.3-2.1 0-.1 0-.1-.1-.2-.1-.2-.1-.5-.1-.7l-.3-2.1h.1c0-.3-.1-.6-.1-.9v-.8c-.1-.4-.2-.8-.3-1.1 0-.1-.1-.2-.1-.3-.2-.5-.5-1-1-1.3-.5-.4-1-.7-1.5-.9l-.6-.3c-.3-.2-.6-.3-.9-.4l-1.3-.4c-.3-.1-.6-.1-.9-.2-.7-.2-1.3-.3-2-.3h-1.7c2 0 4 .4 5.9 1l-1.2-.3c-.3-.1-.7-.1-.9-.2h-.1c-.6-.2-1.3-.3-2-.3h-2.3l-.4-.1c-.6-.1-1.1-.1-1.7-.1-.4.1-.8.1-1.1 0h-.7c-.4.1-.8.1-1.2 0-.4-.1-.9-.1-1.3 0H135c-.4 0-1-.1-1.4-.1h-2c-.8.1-1.6 0-2.4 0-.7-.1-1.3-.1-2 0-.4.1-.7.1-1.1 0h-2l-.1-.2v.1c-.3 0-.6 0-.9-.1h-1.3c-.3.1-.6.1-.9 0-.5-.1-1-.1-1.5-.1h-3.6c-.3 0-.7.1-.9.1h-4.1c-.2 0-.3 0-.5.1s-.5.1-.7 0l-.5-.1c-.6-.1-1.1-.1-1.7-.1-.4.1-.8.1-1.1 0h-.7c-.4.1-.8.1-1.2 0-.4-.1-.9-.1-1.3 0h-1.3c-.4 0-.9-.1-1.4-.1h-2c-.8.1-1.6.1-2.4 0-.7-.1-1.3-.1-2 .1-.4.1-.8.1-1.2.1-.6 0-1.2.1-1.8.2l-.1-.2v.1c-.3.1-.5.1-.8.1h-.4c-.2 0-.3.1-.5.1-.2.1-.4.1-.6.2-.2.1-.4.2-.7.2-.5.1-1 .3-1.4.5-.5.3-.9.6-1.4 1l-.3.3-.3.3c-.2.2-.3.4-.4.6 0 .2-.1.5-.1.7 0 .2 0 .4-.1.5l-.1 1s0 .2-.1.3c-.1.5-.2 1.1-.3 1.7 0 .2 0 .4-.1.6 0 .2-.1.3-.1.5v.5c0 .3 0 .5-.1.7 0 .1-.1.3-.1.5-.2.5-.3 1.1-.3 1.6 0 .4-.1.8-.2 1.1 0 .1-.1.2-.1.3v.5c0 .4 0 .8-.2 1.2-.1.4-.2.8-.2 1.3v.4c0 .3-.1.6-.2.8-.1.4-.2.9-.3 1.4 0 .3-.1.6-.1.8-.1.5-.1.8-.1 1.2-.1.8-.2 1.6-.4 2.4-.2.6-.3 1.3-.3 2 0 .4 0 .8-.1 1.1v.1c-.1.6-.3 1.2-.3 1.9H80h.1c0 .3-.1.6-.2.9 0 .1-.1.2-.1.3l-.1.6v.4c0 .3 0 .6-.1.8l-.3 1.5c0 .1 0 .3-.1.6 0 .3-.1.9-.1 1.1 0 .3-.1.6-.2.9-.1.2-.1.4-.1.7v.3c0 .3 0 .6-.1 1l-.1 1s0 .2-.1.3c-.1.5-.2 1.1-.3 1.7 0 .2 0 .4-.1.6 0 .2-.1.3-.1.5v.5c0 .3 0 .5-.1.7 0 .1-.1.3-.1.5-.2.5-.3 1.1-.3 1.6 0 .4-.1.8-.2 1.1 0 .1-.1.2-.1.3v.5c0 .4 0 .8-.2 1.2-.1.4-.2.8-.2 1.3v.4c0 .3-.1.6-.2.8-.1.5-.2.9-.3 1.4 0 .3-.1.6-.1.8-.1.5-.1.8-.1 1.2-.1.8-.2 1.6-.4 2.4-.2.6-.3 1.3-.3 2 0 .4 0 .7-.2 1.1v.1c-.1.6-.2 1.2-.3 1.9h-.2l-.2 1.2v.1l-.1.6-1.3 5.9v.2l-.6 3.5c-.1.8 0 1.7.3 2.4.1.1.1.2.2.4.9 1.7 3 3.1 5.7 3.9l.2.1c1.5.4 3 .7 4.5.8h67.5c1.1 0 2.1-.1 3.2-.3l.8-.1h.1c.6-.1 1.3-.3 1.9-.5 4.1-.9 6.5-3.4 6.2-6.1zm-9.8-68.7l.1.7v.6l-.1-.6c-.1-.3-.2-.6-.2-.9 0-.1-.1-.2-.1-.3-.2-.5-.5-.9-.9-1.2-.4-.3-.9-.6-1.4-.8l-.6-.3c-.2-.1-.5-.3-.8-.4 2.3.7 3.8 1.9 4 3.2zm-37.5.4c.2-.4.5-.6.9-.6.3 0 .5-.1.7-.3.1-.1.3-.2.5-.1h.7l.1.1c.1 0 .3 0 .4.1h.4c.1-.1.3-.1.4 0 .2.1.3.2.5.2s.3.1.4.2l.2.1c.1 0 .2.2.3.3 0 .1 0 .1.1.2.1.2.1.4 0 .6l-.3.3c-.1.1-.2.1-.3.2-.1 0-.3.1-.4.2-.1.1-.2.1-.3.1h-.2c-.1 0-.1 0-.1.1-.1.1-.2.1-.3.1h-1c-.2.1-.4.1-.5 0h-.2c-.2.1-.4 0-.6-.1-.1-.1-.3-.1-.4-.1h-.2c-.3-.1-.6-.3-.8-.6 0-.3-.1-.7 0-1zm8.1 68.2H112c-.6 0-1-.3-1-.7 0-.4.5-.7 1-.7h12.2c.6 0 1 .3 1 .7 0 .3-.3.6-.8.7h-.5zm33.2-9.4c-.1.1-.2.3-.4.3-.4.1-.8.2-1.3.1h-2c-.2 0-.3 0-.5.1-.3.1-.5.1-.8 0h-.5c-.6-.1-1.2-.1-1.8-.1-.4.1-.8.1-1.2 0h-.8c-.4.1-.8.1-1.3 0s-.9-.1-1.4 0h-1.3c-.5 0-1-.1-1.5-.1h-2.1c-.9.1-1.7.1-2.6 0-.7-.1-1.4-.1-2.1 0-.2 0-.4.1-.6.1h-2.7l-.1-.2v.1c-.3 0-.6 0-1-.1h-1.5c-.3.1-.6.1-.9 0-.5-.1-1.1-.1-1.6-.1h-3.8c-.3 0-.7.1-1 .1h-3.1c-.2 0-.4.1-.6 0h-.5c-.2 0-.3 0-.5.1-.3.1-.5.1-.8 0l-.5-.1c-.6-.1-1.2-.1-1.8-.1h-2c-.4.1-.8.1-1.3 0s-.9-.1-1.4 0h-1.3c-.5 0-1-.1-1.5 0h-1c-.5 0-.9 0-1.3.1-.9.1-1.7.1-2.6 0-.7-.1-1.4-.1-2.1.1-.2 0-.4.1-.6.1h-2.7l-.1-.2v.2c-.3 0-.6 0-1-.1h-1.5c-.3.1-.6.1-.9 0-.5-.1-1.1-.1-1.6 0H91c-.4 0-.8 0-1.1.1h-2c-.3 0-.7.1-1 .1h-4.2c-.2 0-.3 0-.5.1-.3.1-.5.1-.8 0H81c-.3 0-.6-.1-.9-.2-.6-.2-.9-.5-.8-.9 0-.4 0-.8.1-1.2 0-.1.1-.2.1-.3v-.5c0-.4 0-.8.1-1.3.1-.4.2-.9.2-1.4v-.4c0-.3.1-.6.2-.9l.3-1.5c0-.3.1-.6.1-.8.1-.5.1-.9.1-1.3 0-.9.2-1.7.4-2.6.2-.7.3-1.4.3-2.1 0-.4 0-.8.1-1.2v-.1c.1-.7.2-1.3.3-2h.2-.1c0-.3.1-.6.2-.9 0-.1.1-.2.1-.4l.1-.6v-.5c0-.3 0-.6.1-.9.1-.5.2-1 .3-1.6 0-.1 0-.4.1-.7 0-.4.1-.9.1-1.1 0-.3.1-.7.2-1 .1-.2.1-.5.1-.7v-.3c0-.3 0-.7.1-1l.1-1c0-.1 0-.2.1-.3l.3-1.8c0-.2 0-.4.1-.6 0-.2.1-.3.1-.5v-.5c0-.3 0-.5.1-.8 0-.2.1-.3.1-.5.2-.6.3-1.2.3-1.8 0-.4.1-.8.2-1.2 0-.1 0-.2.1-.3v-.5c0-.4 0-.8.1-1.3.1-.4.2-.9.2-1.4v-.4c0-.3.1-.6.2-.9l.3-1.5c0-.3.1-.6.1-.8.1-.5.1-.9.1-1.3.1-.9.2-1.7.4-2.6.2-.7.3-1.4.3-2.1 0-.4 0-.8.1-1.2v-.1c.1-.7.2-1.3.3-2h.2-.1c.1-.2.2-.3.4-.4.1 0 .3-.1.5-.1h1.5c.3-.1.6-.1.9 0 .5.1 1.1.1 1.6.1h3.8c.3 0 .7-.1 1-.1h4.2c.2 0 .3 0 .5-.1h.8l.5.1c.6.1 1.2.1 1.8.1.4-.1.8-.1 1.2 0h.8c.4-.1.8-.1 1.3 0s.9.1 1.4 0h1.3c.4 0 1 .1 1.5.1h2.1c.9-.1 1.7-.1 2.6 0 .7.1 1.4.1 2.1 0 .4-.1.8-.1 1.2 0h2.1v.2-.1c.3 0 .6 0 1 .1h1.6c.3-.1.6-.1.9 0 .5.1 1.1.1 1.6.1h3.8c.3 0 .7-.1 1-.1h4.2c.2 0 .3 0 .5-.1.3-.1.5-.1.8 0l.5.1c.6.1 1.2.1 1.8.1h2c.4-.1.8-.1 1.3 0s.9.1 1.4 0h1.3c.5 0 1 .1 1.5.1h2.1c.1 0 .3.1.4.1.2.1.4.2.4.5.1.6.2 1.2.2 1.8 0 .7.1 1.4.3 2.1.1.4.2.8.2 1.2v.1c0 .7.1 1.3.3 2l-.2.1h.1c.1.3.1.6.1 1v.4l.1.6 1.7 12.8v.5l1 7.3v.2l.7 5.2c0 .2 0 .3.1.5v.1l.5 3.4c.1.3.1.6.1.9l.3 2.1h.1c.1.3.1.6.1 1v.4l.1.6c0 .2.1.3.1.5.1.3.1.6.2.9 0 .5.1 1.1.1 1.6 0 .1.1.4.1.7.1.4.1.9.2 1.1.1.3.1.7.1 1v.7c0 .1 0 .2.1.3.1.3.2.7.2 1v.1c.2.1.2.1.2.3z"/><path id="Shape_8_" class="st1" d="M149.3 124.2l-1.2-.3c-.3-.1-.7-.1-.9-.2h-.1c-.6-.2-1.3-.3-2-.3h-2.3l-.4-.1c-.6-.1-1.1-.1-1.7-.1-.4.1-.8.1-1.1 0h-.7c-.4.1-.8.1-1.2 0-.4-.1-.9-.1-1.3 0h-1.3c-.4 0-1-.1-1.4-.1h-2c-.8.1-1.6 0-2.4 0-.7-.1-1.3-.1-2 0-.4.1-.7.1-1.1 0h-2l-.1-.2h3.1c.7-.1 1.4-.1 2.1 0 .3 0 .7.1 1 .1h3.3c.5 0 1 0 1.5.1h1.2c.5-.1.9-.1 1.4 0 .4.1.7.1 1.1 0h.8c.4.1.7.1 1.1 0 .6-.1 1.2 0 1.8.1h.8c2.1 0 4.1.4 6 1z"/><path id="Shape_9_" class="st1" d="M153.4 128.2c-.1-.3-.2-.6-.2-.9 0-.1-.1-.2-.1-.3-.2-.5-.5-.9-.9-1.2-.4-.3-.9-.6-1.4-.8l-.6-.3c-.2-.1-.5-.3-.8-.4 2.2.8 3.7 1.9 3.9 3.2l.1.7z"/><path id="Shape_10_" class="st1" d="M124.1 123.2c-.3 0-.6 0-.9-.1h-1.3c-.3.1-.6.1-.9 0-.5-.1-1-.1-1.5-.1h-3.6c-.3 0-.7.1-.9.1h-4.1c-.2 0-.3 0-.5.1s-.5.1-.7 0l-.5-.1c-.6-.1-1.1-.1-1.7-.1-.4.1-.8.1-1.1 0h-.8c-.4.1-.8.1-1.2 0-.4-.1-.9-.1-1.3 0h-1.3c-.4 0-.9-.1-1.4-.1h-2c-.8.1-1.6.1-2.4 0-.7-.1-1.3-.1-2 .1-.4.1-.8.1-1.2.1-.6 0-1.2.1-1.8.2l-.1-.2c.6-.1 1.3-.2 1.9-.2H94c.7-.1 1.4-.2 2.1-.1.4.1.9.1 1.3.1h3c.5 0 1 0 1.5.1h1.2c.5-.1.9-.1 1.4 0h1.9c.4.1.7.1 1.1 0 .6-.1 1.2 0 1.7.1l.5.1h.6c.1 0 .3-.1.4-.1h4c.3 0 .6 0 .9-.1h1c.3 0 .6.1.9 0 .2 0 .7 0 1.1-.1h.6c.5 0 1 0 1.6.1h.8c.2 0 .4 0 .7-.1.3 0 .5 0 .8.1.3 0 .6.1.9.1l.1.1z"/><path id="Shape_11_" class="st1" d="M90.8 123.5c-.3.1-.5.1-.8.1h-.4c-.1 0-.3 0-.4.1h-.1c-.2.1-.4.1-.6.2-.2.1-.4.2-.7.2-.5.1-1 .3-1.4.5-.5.3-.9.6-1.4 1l-.3.3-.3.3c-.2.2-.3.4-.4.6 0 .2-.1.5-.1.7 0 .2 0 .4-.1.5l-.1 1s0 .2-.1.3c-.1.5-.2 1.1-.3 1.7 0 .2 0 .4-.1.6 0 .2-.1.3-.1.5v.5c0 .3 0 .5-.1.7 0 .1-.1.3-.1.5-.2.5-.3 1.1-.3 1.6 0 .4-.1.8-.2 1.1 0 .1-.1.2-.1.3v.5c0 .4 0 .8-.2 1.2-.1.4-.2.8-.2 1.3v.4c0 .3-.1.6-.2.8-.1.4-.2.9-.3 1.4 0 .3-.1.6-.1.8-.1.5-.1.8-.1 1.2-.1.8-.2 1.6-.4 2.4-.2.6-.3 1.3-.3 2 0 .4 0 .8-.1 1.1v.1c-.1.6-.3 1.2-.3 1.9H80c.1-.6.2-1.3.3-1.9v-.2c.1-.2.1-.5.1-.7v-.3c0-.7.1-1.4.3-2.1.1-.3.2-.6.2-.9 0-.2.1-.4.1-.6v-.2c0-.2 0-.4.1-.6 0-.4.1-.8.1-1.2 0-.2.1-.5.1-.8.1-.5.2-.9.3-1.4.1-.3.1-.5.1-.7v-.6c0-.5.1-.9.2-1.4.1-.4.2-.7.1-1.1v-.5c0-.1 0-.2.1-.3.1-.3.2-.7.2-1.1 0-.6.1-1.1.3-1.7 0-.2.1-.3.1-.5 0-.1.1-.3.1-.4v-.7c0-.2 0-.3.1-.5 0-.2.1-.4.1-.5.1-.6.1-1.2.3-1.7 0-.1 0-.2.1-.3l.1-1v-.5c0-.3 0-.5.1-.8.1-.3.3-.5.5-.7.1-.1.2-.2.4-.3.1-.1.2-.1.2-.2.4-.4.9-.8 1.4-1 .5-.3 1-.4 1.5-.6.2-.1.4-.1.6-.2.2-.1.5-.2.7-.3.3-.1.6-.1.9-.1.3 0 .5 0 .8-.1v.1l.2.2z"/><path id="Shape_12_" class="st1" d="M80 151.9c0 .3-.1.6-.2.9 0 .1-.1.2-.1.3 0 .1-.1.3-.1.4v.6c0 .3 0 .6-.1.8l-.3 1.5c0 .1 0 .3-.1.6 0 .3-.1.9-.1 1.1 0 .3-.1.6-.2.9-.1.2-.1.4-.1.7v.3c0 .3 0 .6-.1 1l-.1 1s0 .2-.1.3c-.1.5-.2 1.1-.3 1.7 0 .2 0 .4-.1.6 0 .2-.1.3-.1.5v.5c0 .3 0 .5-.1.7 0 .1-.1.3-.1.5-.2.5-.3 1.1-.3 1.6 0 .4-.1.8-.2 1.1 0 .1-.1.2-.1.3v.5c0 .4 0 .8-.2 1.2-.1.4-.2.8-.2 1.3v.4c0 .3-.1.6-.2.8-.1.5-.2.9-.3 1.4 0 .3-.1.6-.1.8-.1.5-.1.8-.1 1.2-.1.8-.2 1.6-.4 2.4-.2.6-.3 1.3-.3 2 0 .4 0 .7-.2 1.1v.1c-.1.6-.2 1.2-.3 1.9h-.2c.1-.6.2-1.3.3-1.9v-.3c.1-.2.1-.4.1-.6v-.3c0-.7.1-1.4.3-2.1l.3-1.2v-.3c0-.3.1-.6.1-.8 0-.4.1-.7.2-1.2 0-.2.1-.5.1-.8.1-.5.2-.9.3-1.4.1-.3.1-.5.1-.7v-.6c0-.5.1-.9.2-1.4.1-.4.2-.7.1-1.1v-.5c0-.1 0-.2.1-.3.1-.3.2-.7.2-1.1 0-.6.2-1.2.3-1.7 0-.2.1-.3.1-.4 0-.1 0-.2.1-.3v-.8c0-.2 0-.3.1-.5 0-.2.1-.4.1-.5 0-.6.1-1.2.3-1.7 0-.1 0-.2.1-.3l.1-1c0-.3.1-.6.1-.9v-.3c0-.2.1-.5.2-.7.1-.3.1-.6.2-.9 0-.2.1-.7.1-1.1 0-.3.1-.5.1-.6l.3-1.5c.1-.3.1-.5.1-.8v-.7c0-.3.1-.5.2-.8.1-.3.2-.6.2-.8h.1l.2-.1z"/><path id="Shape_13_" class="st1" d="M86.4 203.9c-.3 0-.6 0-.9-.1-.7-.1-1.4-.1-2.1-.1h-.3c-.5 0-1 0-1.6-.1l-.5-.1c-.4-.1-.9-.2-1.3-.3h-.1c-.3-.1-.5-.2-.8-.3l-.3-.1c-.5-.1-.9-.2-1.3-.5-.3-.2-.6-.3-.9-.4-.2-.1-.4-.1-.5-.2-.1-.1-.2-.1-.3-.2l-.2-.1h-.1c-.2-.1-.4-.3-.6-.5-.6-.4-1.1-1-1.3-1.7-.1-.2-.2-.4-.3-.5l-.3-.6c-.1-.2-.1-.3-.1-.5v-.1c0-.1 0-.3-.1-.4v-.1c0-.6.1-1.2.2-1.8v-.2l.1-1c0-.2.1-.6.1-.9v-.3c0-.2.1-.5.2-.7.1-.3.2-.6.2-.9 0-.2.1-.7.1-1.1 0-.3.1-.5.1-.6l.3-1.5c.1-.3.1-.5.1-.8v-.7c0-.3.1-.5.2-.8.1-.3.2-.6.2-.8h.3c0 .3-.1.6-.2.9-.1.2-.1.5-.2.7v.6c0 .3 0 .6-.1.9l-.3 1.5c0 .1 0 .3-.1.6-.1.4-.1.9-.1 1.1 0 .3-.1.6-.2.9-.1.2-.1.4-.1.7v.3c0 .3 0 .7-.1 1l-.1 1v.2c-.1.6-.2 1.1-.2 1.7v.1c0 .1.1.3.1.4v.1c0 .1 0 .3.1.4.1.2.1.4.3.5l.3.6c.3.6.7 1.2 1.3 1.6.3.2.5.3.7.5h.1l.2.2c.1.1.2.1.2.2.2.1.3.1.5.2.3.1.7.3 1 .5.4.2.8.4 1.2.5l.3.1c.3.1.5.2.8.3h.1c.4.1.8.2 1.3.3l.5.1c.5.1 1 .1 1.5.1h.3c.7 0 1.4 0 2.1.1.7.1 1.3.1 2 0 .4-.1.8-.1 1.1 0h2l.1.2h-2.1c-.3-.1-.7-.1-1.1 0-.6-.2-1-.1-1.4-.1z"/><path id="Shape_14_" class="st1" d="M92.2 204c-.2 0-.5 0-.7-.1-.3 0-.6-.1-.9-.1v-.3c.3 0 .6 0 .9.1.3 0 .5.1.8.1.2 0 .4 0 .6-.1.3-.1.6-.1.9 0 .5.1 1 .1 1.5.1H99c.3 0 .7-.1.9-.1h4.1c.2 0 .3 0 .5-.1h.7l.5.1c.5.1 1.1.1 1.7.1.4-.1.8-.1 1.1 0h.7c.4-.1.8-.1 1.2 0 .4.1.9.1 1.3 0h1.3c.4 0 1 .1 1.4.1h2c.8-.1 1.6-.1 2.4 0 .7.1 1.3.1 2 0 .4-.1.8-.1 1.1 0h2l.1.2h-2.1c-.3-.1-.7-.1-1.1 0-.7.1-1.4.1-2.1 0-.8-.1-1.6-.1-2.4 0h-2c-.5 0-1 0-1.5-.1h-1.2c-.5.1-.9.1-1.4 0-.4-.1-.7-.1-1.1 0h-1.9c-.6.1-1.2 0-1.7-.1l-.5-.1h-.7c-.2 0-.3.1-.5.1h-4c-.2 0-.6 0-.9.1h-1c-.3 0-.6-.1-.9 0-.2 0-.7 0-1.1.1h-.6c-.5 0-1 0-1.6-.1h-.8c-.2.1-.4.1-.7.1z"/><path id="Shape_15_" class="st1" d="M125.5 204c-.2 0-.5 0-.7-.1-.3 0-.6-.1-.9-.1v-.3c.3 0 .6 0 .9.1.3 0 .5.1.8.1.2 0 .4 0 .6-.1.3-.1.6-.1.9 0 .5.1 1 .1 1.5.1h3.7c.3 0 .6-.1 1-.1h4.1c.2 0 .3 0 .5-.1h.7l.5.1c.5.1 1.1.1 1.7.1.4-.1.8-.1 1.1 0h.7c.4-.1.8-.1 1.2 0 .4.1.9.1 1.3 0h1.3c.4 0 1 .1 1.4.1h2c.8-.1 1.6-.1 2.4 0h1.2c.3-.1.5-.1.8-.2.4-.1.8-.2 1.2-.2.6-.1 1.2-.2 1.8-.5l.1.2c-.6.3-1.2.4-1.9.5-.4 0-.7.1-1.1.2-.3.1-.6.2-.9.2-.4.1-.8.1-1.2.1-.8-.1-1.6-.1-2.4 0h-2c-.5 0-1 0-1.5-.1H145c-.5.1-.9.1-1.4 0-.4-.1-.7-.1-1.1 0h-1.9c-.6.1-1.2 0-1.7-.1l-.5-.1h-.7c-.2 0-.3.1-.5.1H133c-.3 0-.6 0-.9.1h-1c-.3 0-.6-.1-.9 0-.2 0-.7 0-1.1.1h-.6c-.5 0-1 0-1.6-.1h-1.4z"/><path id="Shape_16_" class="st1" d="M112.8 196.4h-.5c-.2 0-.5-.1-.7-.1-.4-.1-.7-.4-.7-.8 0-.3.2-.6.5-.7.2-.1.3-.1.5-.1h.4c.4-.1.7-.1 1.1 0 .4.1.8.1 1.2 0h1.1c.4 0 .9.1 1.3.1h1.8c.7-.1 1.5-.1 2.2 0 .6 0 1.2 0 1.8-.2.3-.1.7-.1 1 0h.3c.3 0 .6 0 .8.2.3.1.6.4.6.8h-.3c-.1-.2-.2-.4-.5-.5-.2-.1-.5-.1-.7-.1h-.3c-.3-.1-.6-.1-.9 0-.6.1-1.3.1-1.9 0-.7-.1-1.4-.1-2.1 0H117c-.4 0-.9 0-1.3-.1h-1c-.4.1-.8.1-1.3 0-.3-.1-.7-.1-1 0h-.4c-.1 0-.3 0-.4.1-.2.1-.4.3-.4.5 0 .3.3.5.6.6.2.1.4.1.7.1h.8c.2 0 .3-.1.5-.1h3.8c.3 0 .6 0 .8-.1h1c.3 0 .5.1.8 0 .3 0 .7-.1 1-.1h.5c.5 0 .9 0 1.4.1h.7c.2 0 .4-.1.6-.1h.7s.4-.1.4-.4h.3c0 .3-.2.6-.6.6-.2 0-.4.1-.6.1h-.1c-.2 0-.4 0-.6.1-.3.1-.5.1-.8 0-.4-.1-.9-.1-1.4-.1h-3.4c-.3 0-.6.1-.9.1h-3.6c-.1 0-.3 0-.4.1-.3-.1-.4-.1-.6 0z"/><path id="Shape_17_" class="st1" d="M119.4 129.4c-.1 0-.3-.1-.4-.1h-1c-.1 0-.3.1-.4 0-.2-.1-.4-.2-.5-.1h-.2c.6.2 1.3.3 1.9.3.3 0 .6 0 .9-.1h-.3zm-2.9-1.8c.1-.1.2-.1.3-.1.3 0 .6-.1.8-.3-.3 0-.8.2-1.1.4zm-.3 1c-.2-.2-.2-.4-.1-.7 0-.1.1-.2.2-.2-.2.1-.3.3-.3.5 0 .3.3.7.8.9-.2-.1-.4-.3-.6-.5zm3.2.8c-.1 0-.3-.1-.4-.1h-1c-.1 0-.3.1-.4 0-.2-.1-.4-.2-.5-.1h-.2c.6.2 1.3.3 1.9.3.3 0 .6 0 .9-.1h-.3zm-2.9-1.8c.1-.1.2-.1.3-.1.3 0 .6-.1.8-.3-.3 0-.8.2-1.1.4zm-.3 1c-.2-.2-.2-.4-.1-.7 0-.1.1-.2.2-.2-.2.1-.3.3-.3.5 0 .3.3.7.8.9-.2-.1-.4-.3-.6-.5zm3.2.8c-.1 0-.3-.1-.4-.1h-1c-.1 0-.3.1-.4 0-.2-.1-.4-.2-.5-.1h-.2c.6.2 1.3.3 1.9.3.3 0 .6 0 .9-.1h-.3zm-1.7-2.3c-.4.1-.9.2-1.2.4.1-.1.2-.1.3-.1.3.1.6 0 .9-.3zm-1.6.9c0-.1.1-.2.2-.2-.2.1-.3.3-.3.5 0 .3.3.7.8.9-.2-.1-.4-.3-.6-.5-.2-.2-.2-.5-.1-.7zm5.5.1c0-.1 0-.2-.1-.2-.1-.1-.2-.3-.3-.3l-.2-.1c-.1-.1-.3-.1-.4-.2-.2 0-.3-.1-.5-.2-.1-.1-.3-.1-.4 0h-.4c-.1-.1-.3-.1-.4-.1l-.1-.1h-.8c-.2 0-.4 0-.5.1-.2.2-.5.2-.7.3-.4 0-.8.3-.9.6-.1.3-.1.7.2.9.2.3.5.5.8.6h.2c.1 0 .3 0 .4.1.2.1.4.1.6.1h.2c.2.1.4.1.5 0h1c.1 0 .2 0 .3-.1l.1-.1h.2c.1 0 .2 0 .3-.1.1-.1.3-.1.4-.2.1 0 .2-.1.3-.2l.3-.3c0-.1 0-.3-.1-.5zm-1.9 1.3h-.2c-.1 0-.3-.1-.4-.1h-1c-.1 0-.3.1-.4 0-.2-.1-.4-.2-.5-.1h-.2c-.2-.1-.4-.3-.6-.5-.2-.2-.2-.4-.1-.7 0-.1.1-.2.2-.2l.1-.1c.1-.1.2-.1.3-.1.3 0 .6-.1.8-.3.1 0 .2-.1.3 0h.9v.1c.1 0 .2 0 .3.1.1 0 .2.1.3.1h.5c.2.1.4.2.6.2.1 0 .2.1.4.1l.2.1c.1 0 .1.1.1.2v.1s0 .1.1.1c0 0 .1.2 0 .3-.1.1-.1.2-.2.3 0 0-.2.1-.3.1-.2.1-.3.1-.5.2l-.1.1h-.2c-.1 0-.2.1-.2.1h-.1s-.1 0-.1-.1zm-3.5-.8c-.2-.2-.2-.4-.1-.7 0-.1.1-.2.2-.2-.2.1-.3.3-.3.5 0 .3.3.7.8.9-.2-.2-.4-.3-.6-.5zm.3-1c.1-.1.2-.1.3-.1.3 0 .6-.1.8-.3-.3 0-.8.2-1.1.4zm2.9 1.7c-.1 0-.3-.1-.4-.1h-1c-.1 0-.3.1-.4 0-.2-.1-.4-.2-.5-.1h-.2c.6.2 1.3.3 1.9.3.3 0 .6 0 .9-.1h-.3zm-3.2-.7c-.2-.2-.2-.4-.1-.7 0-.1.1-.2.2-.2-.2.1-.3.3-.3.5 0 .3.3.7.8.9-.2-.2-.4-.3-.6-.5zm.3-1c.1-.1.2-.1.3-.1.3 0 .6-.1.8-.3-.3 0-.8.2-1.1.4zm2.9 1.7c-.1 0-.3-.1-.4-.1h-1c-.1 0-.3.1-.4 0-.2-.1-.4-.2-.5-.1h-.2c.6.2 1.3.3 1.9.3.3 0 .6 0 .9-.1h-.3zm-3.2-.7c-.2-.2-.2-.4-.1-.7 0-.1.1-.2.2-.2-.2.1-.3.3-.3.5 0 .3.3.7.8.9-.2-.2-.4-.3-.6-.5zm.3-1c.1-.1.2-.1.3-.1.3 0 .6-.1.8-.3-.3 0-.8.2-1.1.4zm2.9 1.7c-.1 0-.3-.1-.4-.1h-1c-.1 0-.3.1-.4 0-.2-.1-.4-.2-.5-.1h-.2c.6.2 1.3.3 1.9.3.3 0 .6 0 .9-.1h-.3z"/><path id="Shape_18_" class="st1" d="M122.2 133.4H119c-.7.1-1.5.1-2.2 0-.4 0-.7-.1-1.1-.1H112c-.5 0-1 0-1.6-.1h-1.3c-.5.1-1 .1-1.5 0h-2.1c-.4-.1-.8-.1-1.2 0-.6.1-1.2 0-1.8-.1l-.5-.1h-.5c-.2 0-.4.1-.6.1h-4.3c-.3 0-.7 0-1 .1h-1.1c-.3 0-.6-.1-.9 0-.2 0-.7 0-1.2.1h-.6c-.6 0-1.1 0-1.7-.1h-.8c-.2 0-.5 0-.7.1h-.9c-.1 0-.3 0-.4.1-.1 0-.2.1-.2.2h-.2c.1-.2.2-.3.4-.4.1 0 .3-.1.5-.1h1.5c.3-.1.6-.1.9 0 .5.1 1.1.1 1.6.1h3.8c.3 0 .7-.1 1-.1h4.2c.2 0 .3 0 .5-.1h.8l.5.1c.6.1 1.2.1 1.8.1.4-.1.8-.1 1.2 0h.8c.4-.1.8-.1 1.3 0s.9.1 1.4 0h1.3c.4 0 1 .1 1.5.1h2.1c.9-.1 1.7-.1 2.6 0 .7.1 1.4.1 2.1 0 .4-.1.8-.1 1.2 0h2.1v.2l.2-.1z"/><path id="Shape_19_" class="st1" d="M151.4 141l-.2.1-.3-2.1v-.1c0-.3 0-.6-.1-.8 0-.1 0-.1-.1-.2-.2-.7-.3-1.4-.3-2.2v-1.3c0-.2 0-.4-.1-.5 0-.1 0-.1-.1-.2 0 0-.1-.1-.2-.1s-.2-.1-.3-.1h-2.1c-.5 0-1.1 0-1.6-.1h-1.3c-.5.1-1 .1-1.5 0-.4-.1-.8-.1-1.2 0h-2.1c-.6.1-1.2 0-1.8-.1-.2 0-.3 0-.5-.1h-.7c-.2 0-.4.1-.6.1h-4.2c-.3 0-.7 0-1 .1H130c-.3 0-.6-.1-.9 0h-1.9c-.6 0-1.1 0-1.7-.1h-.8c-.2 0-.5.1-.7.1-.3 0-.6 0-.9-.1-.3 0-.6-.1-.9-.1v-.3c.3 0 .6 0 1 .1h1.6c.3-.1.6-.1.9 0 .5.1 1.1.1 1.6.1h3.8c.3 0 .7-.1 1-.1h4.2c.2 0 .3 0 .5-.1.3-.1.5-.1.8 0l.5.1c.6.1 1.2.1 1.8.1h2c.4-.1.8-.1 1.3 0s.9.1 1.4 0h1.3c.5 0 1 .1 1.5.1h2.1c.1 0 .3.1.4.1.2.1.4.2.4.5.1.6.2 1.2.2 1.8 0 .7.1 1.4.3 2.1.1.4.2.8.2 1.2v.1c.3.7.3 1.4.4 2z"/><path id="Shape_20_" class="st1" d="M151.4 143.1l1.7 12.8-.1-.2c-.1-.2-.1-.4-.1-.5 0-.2-.1-.4-.1-.5 0-.2 0-.4-.1-.6-.1-.6-.2-1.2-.2-1.8v-.3s0-.2-.1-.4-.1-.4-.1-.6c0-.2-.1-.7-.2-1 0-.1-.1-.2-.1-.3 0-.3-.1-.5-.1-.8 0-.3 0-.6-.1-.9-.1-.4-.2-.8-.2-1.1 0-.3-.1-.5-.1-.6-.1-.5-.2-1.1-.2-1.7 0-.3-.1-.6-.1-.8-.1-.2-.1-.4-.2-.7 0-.3-.1-.5-.1-.8 0-.3 0-.6-.1-.9h.2c.1.3.1.6.1 1v.8c.3-.2.3-.1.3-.1z"/><path id="Shape_21_" class="st1" d="M153.2 156.4l1 7.3c0-.1-.1-.2-.1-.4-.1-.5-.2-.9-.2-1.4 0-.4-.1-.8-.2-1.2 0-.2-.1-.4-.1-.5v-.4c0-.4-.1-.8-.2-1.1-.1-.6-.2-1.2-.2-1.9v-.4z"/><path id="Shape_22_" class="st1" d="M154.2 163.9l.7 5.2c0-.3-.1-.6-.1-.8-.1-.4-.1-.8-.2-1.3 0-.2-.1-.5-.1-.8-.1-.5-.1-1-.1-1.5-.2-.3-.2-.6-.2-.8z"/><path id="Shape_23_" class="st1" d="M155 169.9l.5 3.4c0-.1 0-.1-.1-.2-.2-.7-.3-1.4-.3-2.2-.1-.4-.1-.7-.1-1z"/><path id="Shape_24_" class="st1" d="M155.8 176.3l-.3-2.1v-.1l.3 2.2z"/><path id="Shape_25_" class="st1" d="M157.2 186.7c-.1.1-.2.3-.4.3-.4.1-.8.2-1.3.1h-2c-.2 0-.3 0-.5.1-.3.1-.5.1-.8 0h-.5c-.6-.1-1.2-.1-1.8-.1-.4.1-.8.1-1.2 0h-.8c-.4.1-.8.1-1.3 0s-.9-.1-1.4 0h-1.3c-.5 0-1-.1-1.5-.1h-2.1c-.9.1-1.7.1-2.6 0-.7-.1-1.4-.1-2.1 0-.2 0-.4.1-.6.1h-2.7l-.1-.2h3.3c.7-.1 1.5-.1 2.2-.1.3 0 .7.1 1 .1h3.6c.5 0 1.1 0 1.6.1h1.3c.5-.1 1-.1 1.5 0h3.3c.6-.1 1.2 0 1.8.1h1.2c.2 0 .4-.1.5-.1h2.1c.4 0 .7 0 1.1-.1.1-.1.2-.1.3-.2v-.5c0-.3-.1-.7-.2-1 0-.1-.1-.2-.1-.3 0-.3-.1-.5-.1-.8 0-.3 0-.6-.1-.9-.1-.2-.1-.7-.2-1.1 0-.3-.1-.5-.1-.6-.1-.5-.1-1.1-.2-1.7 0-.3-.1-.6-.1-.8-.1-.2-.1-.4-.2-.7 0-.3-.1-.6-.1-.9 0-.3 0-.6-.1-.9h.2c.1.3.1.6.1 1v1c0 .2.1.3.1.5.1.3.1.6.2.9 0 .5.1 1.1.1 1.6 0 .1.1.4.1.7.1.4.1.9.2 1.1.1.3.1.7.1 1v.7c0 .1 0 .2.1.3.1.3.2.7.2 1v.1c.3-.1.3.1.3.3z"/><path id="Shape_26_" class="st1" d="M132.1 187.1v.1c-.3 0-.6 0-1-.1h-1.5c-.3.1-.6.1-.9 0-.5-.1-1.1-.1-1.6-.1h-3.8c-.3 0-.7.1-1 .1h-3.1c-.2 0-.4.1-.6 0h-.5c-.2 0-.3 0-.5.1-.3.1-.5.1-.8 0l-.5-.1c-.6-.1-1.2-.1-1.8-.1h-2c-.4.1-.8.1-1.3 0s-.9-.1-1.4 0h-1.3c-.5 0-1-.1-1.5 0h-1c-.5 0-.9 0-1.3.1-.9.1-1.7.1-2.6 0-.7-.1-1.4-.1-2.1.1-.2 0-.4.1-.6.1h-2.7l-.1-.2h3.3c.7-.1 1.5-.1 2.2 0 .4 0 .9.1 1.3.1h1.2c.4 0 .8 0 1.3-.1h3.7c.5-.1 1-.1 1.5 0h3.3c.6-.1 1.2 0 1.8.1l.5.1h.7c.2 0 .4-.1.5-.1h4.2c.3 0 .7 0 1-.1h1.1c.3 0 .6.1.9 0 .4 0 .8-.1 1.2-.1h.6c.6 0 1.1 0 1.7.1h.8c.2 0 .5-.1.7-.1h.9c.5 0 .8.1 1.1.1z"/><path id="Shape_27_" class="st1" d="M96.7 187.2v.1c-.3 0-.6 0-1-.1h-1.4c-.3.1-.6.1-.9 0-.5-.1-1.1-.1-1.6 0H91c-.4 0-.8 0-1.1.1h-2c-.3 0-.7.1-1 .1h-4.2c-.2 0-.3 0-.5.1-.3.1-.5.1-.8 0H81c-.3 0-.6-.1-.9-.2-.6-.2-.9-.5-.8-.9 0-.4 0-.8.1-1.2 0-.1.1-.2.1-.3v-.5c0-.4 0-.8.1-1.3.1-.4.2-.9.2-1.4v-.4c0-.3.1-.6.2-.9l.3-1.5c0-.3.1-.6.1-.8.1-.5.1-.9.1-1.3 0-.9.2-1.7.4-2.6.2-.7.3-1.4.3-2.1 0-.4 0-.8.1-1.2v-.1c.1-.7.2-1.3.3-2h.2l-.3 2.1v.2c-.1.3-.1.5-.1.8v.2c0 .7-.1 1.5-.3 2.2-.1.4-.2.8-.2 1.2l-.1.5c0 .3-.1.6-.1.9 0 .4-.1.8-.1 1.3 0 .3-.1.5-.1.8l-.3 1.5c-.1.4-.1.7-.2.9v.4c0 .5-.1 1-.2 1.4-.1.4-.1.8-.1 1.2v.5c0 .1 0 .2-.1.4-.1.4-.1.8-.1 1.1-.1.4.3.6.6.7.3.1.5.1.8.1h.9c.2 0 .4-.1.5-.1h4.2c.3 0 .7 0 1-.1h1.1c.3 0 .6.1.9 0 .2 0 .7 0 1.2-.1h.6c.6 0 1.1 0 1.7.1h.8c.2 0 .4 0 .7-.1.3 0 .6 0 .9.1.6.2.9.2 1.3.2z"/><path id="Shape_28_" class="st1" d="M86.9 133.8c-.1.7-.1 1.3-.3 2v.3c-.1.3-.1.5-.1.8v.2c0 .7-.1 1.5-.3 2.2-.1.4-.2.8-.3 1.3 0 .2 0 .4-.1.5 0 .2 0 .5-.1.7 0 .4-.1.8-.1 1.3 0 .2-.1.5-.1.8-.1.5-.2 1.1-.3 1.5-.1.3-.1.6-.2.9v.4c0 .5-.1 1-.2 1.4-.1.4-.1.8-.1 1.2v.5c0 .1 0 .2-.1.4-.1.4-.1.8-.1 1.1 0 .6-.1 1.2-.3 1.8 0 .2-.1.3-.1.5v.1c0 .1-.1.3-.1.4v.9c0 .2 0 .4-.1.5 0 .2-.1.4-.1.6 0 .6-.1 1.2-.3 1.8 0 .1 0 .3-.1.3l-.1 1c0 .3 0 .7-.1 1v.3c0 .3-.1.5-.1.7-.1.3-.1.6-.2.9 0 .2-.1.7-.1 1.2 0 .3-.1.5-.1.6-.1.6-.2 1.1-.3 1.6-.1.3-.1.6-.1.8v.7c0 .3-.1.6-.2.8-.1.3-.1.6-.2.9h-.2.3c0-.3.1-.6.2-.9 0-.1.1-.2.1-.4 0-.1.1-.3.1-.4v-.7c0-.3 0-.6.1-.9.1-.5.2-1 .3-1.6 0-.1 0-.4.1-.7 0-.4.1-.9.1-1.1 0-.3.1-.7.2-1 .1-.2.1-.5.1-.7v-.3c0-.3 0-.7.1-1l.1-1c0-.1 0-.2.1-.3l.3-1.8c0-.2 0-.4.1-.6 0-.2.1-.3.1-.5v-.5c0-.3 0-.5.1-.8 0-.2.1-.3.1-.5.2-.6.3-1.2.3-1.8 0-.4.1-.8.2-1.2 0-.1 0-.2.1-.3s0-.3 0-.5c0-.4 0-.8.1-1.3.1-.4.2-.9.2-1.4v-.4c0-.3.1-.6.2-.9l.3-1.5c0-.3.1-.6.1-.8.1-.5.1-.9.1-1.3.1-.9.2-1.7.4-2.6.2-.7.3-1.4.3-2.1 0-.4 0-.8.1-1.2v-.1c.1-.7.2-1.3.3-2l-.1.2z"/><path id="Shape_29_" class="st0" d="M119.9 72.2c0 .7-.1 1.4-.1 2.1v2.1c0 .3-.1.7-.1 1-.2 1.2-.8 2.4-1.7 3.3-.8.8-1.7 1.6-2.3 2.1-.2.2-.5.4-.8.5l-.9.3c-.2.1-.5.1-.7.2-.3.1-.6.1-.9.2-.3.1-.6.1-.9.1h-.4l-.1-.3v.1c-.4 0-.9 0-1.3-.1l-.5-.1h-.9c-.2 0-.4 0-.7.1-.4.1-.9.1-1.3.1-.7-.1-1.5-.1-2.3-.1h-.9c-.6 0-1.3 0-1.6.1-.5 0-.9 0-1.4-.1-.3 0-.7-.1-1-.1h-.5c-.5 0-1 .1-1.4.1h-2c-.8-.1-1.7-.1-2.5 0-.3.1-.6.1-.9 0h-.7c-.2 0-.5 0-.7.1-.4.1-.7.1-1.1 0l-.6.1c-.8-.1-1.7-.2-2.5-.1-.6.1-1.1.1-1.7 0H84c-.2 0-.4 0-.7.1-.6.1-1.2.1-1.8 0-.6-.1-1.3-.1-2 0h-1.9c-.7 0-1.4-.1-2.1-.1h-1.2c-.7 0-1.3 0-1.8.1-1.2.1-2.4.1-3.6-.1-1-.1-2-.1-3 .1-.3.1-.6.1-.9.1h-.9c-.9-.1-1.9-.1-2.8 0l-.1-.3v.1c-.4 0-.9 0-1.3-.1l-.5-.1h-1c-.2 0-.4 0-.7.1-.4.1-.9.1-1.3.1-.7-.1-1.5-.1-2.3-.1h-.9c-.6 0-1.3 0-1.6.1-.5 0-.9 0-1.4-.1-.3 0-.7-.1-1-.1h-.5c-.5 0-1 .1-1.4.1h-2c-.8-.1-1.7-.1-2.5 0-.3.1-.6.1-.9 0h-.7c-.2 0-.5 0-.7.1-.4.1-.8.2-1.2.2l-.7-.1c-.8-.1-1.7-.2-2.5-.1-.6.1-1.1.1-1.7 0h-.5c-.2 0-.4 0-.7.1-.6.1-1.2.1-1.8 0-.6-.1-1.3-.1-2 0h-1.9c-.7 0-1.4-.1-2.1-.1h-1.2c-.7 0-1.3 0-1.8.1-1.2.1-2.4.1-3.6-.1-1-.1-2-.1-3 .1-.3.1-.6.1-.9.1H14c-.9-.1-1.9-.1-2.8 0l-.1-.3v.1H11c-.4 0-.9 0-1.3-.1h-.4.3c-.3 0-.7 0-1-.1h-.9c-.3 0-.6-.1-.8-.3-.4-.2-1.3-.7-1.8-1l-.2-.1-.1-.1c-.3-.2-.6-.4-.9-.7l-.6-.6-.3-.3c-.3-.3-.5-.7-.7-1.1-.2-.1-.3-.3-.4-.5 0-.1-.1-.3-.2-.4 0-.1-.1-.2-.1-.3s-.2-.4-.3-.6l-.1-.3c-.1-.2-.2-.5-.2-.7-.1-.5-.2-1-.2-1.5v-.6c.1-.8.1-1.6 0-2.4 0-.3-.1-.6 0-.9v-.7c0-.2 0-.5-.1-.7-.1-.4-.1-.8-.1-1.1 0-.2 0-.5.1-.7.1-.8.2-1.7.1-2.5-.1-.6-.1-1.1 0-1.7v-.5c0-.2 0-.5-.1-.7-.1-.6-.1-1.2 0-1.8.1-.6.1-1.3 0-2V57c0-.7.1-1.4.1-2.1v-1.2c0-.7 0-1.3-.1-1.8-.1-1.2-.1-2.4.1-3.6.1-1 .1-2-.1-3-.1-.6-.1-1.1-.1-1.7v-.1c.1-.9.1-1.9 0-2.8l.4.1H.9c0-.4 0-.9.1-1.3 0-.2 0-.3.1-.5v-1c0-.2 0-.4-.1-.7-.1-.4-.1-.9-.1-1.3.1-.7.1-1.5.1-2.3v-.9c0-.6 0-1.3-.1-1.6 0-.6 0-1.1.1-1.7 0-.3.1-.6.1-.7 0-.6 0-1.3.2-1.9.1-.5.3-1 .5-1.4.2-.4.4-.8.7-1.2.2-.3.5-.6.7-.8l.4-.4c.2-.3.5-.5.7-.7.1-.1.3-.2.5-.4.2-.1.3-.2.5-.4.3-.3.7-.5 1.1-.6.7-.2 1.5-.3 2.2-.4.3 0 .7-.1 1-.1.6-.1 1.1-.1 1.7 0h.5c.2 0 .5 0 .7-.1.6-.1 1.2-.1 1.8 0 .6.1 1.3.1 1.9 0h1.9c.7 0 1.4.1 2.1.1h1.2c.7 0 1.3 0 1.8-.1 1.2-.1 2.4-.1 3.7 0 1 .1 2 .1 3 0 .6-.1 1.1-.1 1.7 0h.1c.9.1 1.9.1 2.8 0l.1.3v-.1c.4 0 .9 0 1.3.1l.5.1h1c.2 0 .4 0 .7-.1.4-.1.8-.1 1.3-.1.7.1 1.5.1 2.3.1h.9c.6 0 1.3 0 1.6-.1.5 0 .9 0 1.4.1.3 0 .7.1 1 .1h.5c.5 0 1-.1 1.4-.1h1.9c.8.1 1.7.1 2.5 0 .3-.1.6-.1.9 0h.7c.2 0 .5 0 .7-.1.4-.1.7-.1 1.1 0l.7.1c.8.1 1.7.2 2.5.1.6-.1 1.1-.1 1.7 0h.6v36.1c0 3.9 1.7 7.6 4.7 10.1.5.4.9.7 1.5 1.1.9.6 2 1.1 3 1.4.4.1.8.2 1.1.3.9.2 1.9.3 2.9.3h5c.1-.1.3-.1.5-.1s.3 0 .5.1h25c.2-.1.4-.2.6-.2.3 0 .5.1.7.2H120v.9c0 .2 0 .7-.1 1.2z"/><g id="Group" transform="translate(44.542 53.733)" class="st3"><path id="Shape_30_" class="st1" d="M51.2 29.4h-3c.1-.8.7-1.4 1.5-1.4s1.4.6 1.5 1.4z"/><path id="Shape_31_" class="st1" d="M51 27.9c0 .9.6 1.6 1.5 1.7.4 0 .8-.2 1.1-.5.3-.3.4-.7.4-1.2 0-.9-.6-1.6-1.5-1.7-.9.1-1.5.9-1.5 1.7z"/><path id="Shape_32_" class="st1" d="M58.4 29.2v.1h-3v-.1c0-.4.2-.9.5-1.2.3-.3.6-.5 1-.5s.8.2 1 .5c.4.4.5.8.5 1.2z"/><path id="Shape_33_" class="st1" d="M43.7 29.4h-2.5c.1-.1.2-.2.3-.4.3-.3.6-.5 1-.5.5.1.9.4 1.2.9z"/><path id="Shape_34_" class="st1" d="M48 24.8c-.4 0-.8.2-1.1.5-.3.3-.4.7-.4 1.1-.1.6.2 1.1.6 1.4.5.3 1.1.3 1.6 0s.8-.8.7-1.4c0-.4-.1-.8-.4-1.2-.2-.2-.6-.4-1-.4z"/><path id="Shape_35_" class="st1" d="M46.7 28.4c0 .4-.1.7-.3 1H44c-.2-.3-.3-.6-.3-1-.1-.8.6-1.6 1.4-1.6.9 0 1.6.7 1.6 1.6z"/><path id="Shape_36_" class="st1" d="M50.8 23.2c-.4 0-.8.2-1 .5-.3.3-.4.7-.4 1.1 0 .8.6 1.6 1.4 1.6.8-.1 1.5-.8 1.5-1.6s-.7-1.7-1.5-1.6z"/><path id="Shape_37_" class="st1" d="M62.4 29.4h-1.9c.2-.3.6-.4 1-.5.3 0 .6.2.9.5z"/><path id="Shape_38_" class="st1" d="M55.3 27.7c.8.1 1.4-.8 1.4-1.6s-.6-1.5-1.4-1.6c-.8.1-1.4.8-1.4 1.6s.6 1.7 1.4 1.6z"/><path id="Shape_39_" class="st1" d="M43.7 26.8c.8.1 1.4-.8 1.4-1.6s-.6-1.4-1.4-1.4c-.8 0-1.4.6-1.4 1.4 0 .8.6 1.7 1.4 1.6z"/><path id="Shape_40_" class="st1" d="M40.8 28.7c.8.1 1.4-.8 1.4-1.6s-.6-1.4-1.4-1.4-1.4.6-1.4 1.4c-.1.8.7 1.7 1.4 1.6z"/><path id="Shape_41_" class="st1" d="M39.4 29c0 .1 0 .3-.1.4h-2.7c0-.1-.1-.3-.1-.4 0-.8.6-1.4 1.4-1.4s1.5.6 1.5 1.4z"/><path id="Shape_42_" class="st1" d="M59.7 25.8c-.7-.1-1.4.8-1.4 1.6s.6 1.4 1.4 1.4 1.4-.6 1.4-1.4c.1-.8-.6-1.7-1.4-1.6z"/><path id="Shape_43_" class="st1" d="M65.6 28.8c0 .2 0 .4-.1.6h-2.6c-.2-.5-.1-1.1.3-1.6.4-.4 1-.5 1.5-.3.6.2.9.7.9 1.3z"/><path id="Shape_44_" class="st1" d="M69.2 28.7c-.6.2-1.2.4-1.8.5.2-.4.7-.7 1.1-.7.2 0 .5.1.7.2z"/><path id="Shape_45_" class="st1" d="M46.5 21.7c-.8.1-1.5.8-1.4 1.6-.1.8.6 1.5 1.4 1.6.4 0 .8-.2 1-.5.3-.3.4-.7.4-1.1 0-.8-.6-1.5-1.4-1.6z"/><path id="Shape_46_" class="st1" d="M53.6 21.3c-.8.1-1.4.8-1.4 1.6.1.8.8 1.3 1.5 1.2.8-.1 1.3-.7 1.3-1.5 0-.7-.6-1.3-1.4-1.3z"/><path id="Shape_47_" class="st1" d="M58.1 22.6c-.8.1-1.5.8-1.4 1.6 0 .4.1.8.4 1.1.3.3.6.5 1 .5s.8-.2 1-.5c.3-.3.4-.7.4-1.1 0-.4-.1-.8-.4-1.1s-.6-.5-1-.5z"/><path id="Shape_48_" class="st1" d="M42 23.6c.4 0 .8-.2 1-.5s.4-.7.4-1.1c0-.4-.1-.8-.4-1.1-.3-.3-.7-.5-1.1-.5-.4 0-.8.2-1 .5-.3.3-.4.7-.3 1.1 0 .4.1.8.4 1.1.3.3.7.5 1 .5z"/><path id="Shape_49_" class="st1" d="M49.3 20c-.8.1-1.4.8-1.4 1.6-.1.6.1 1.2.6 1.5.5.3 1.1.3 1.6 0s.7-.9.6-1.5c0-.4-.1-.8-.4-1.1-.2-.3-.6-.5-1-.5z"/><path id="Shape_50_" class="st1" d="M37.9 23.9c0 .8.6 1.5 1.4 1.6.4 0 .8-.2 1-.5.3-.3.4-.7.4-1.1 0-.8-.6-1.5-1.4-1.6-.9.1-1.4.8-1.4 1.6z"/><path id="Shape_51_" class="st1" d="M61.2 25.6c-.1.8.5 1.5 1.4 1.6.4 0 .8-.2 1-.5.3-.3.4-.7.4-1.1 0-.8-.6-1.5-1.4-1.6-.4 0-.7.2-1 .5-.3.3-.4.7-.4 1.1z"/><path id="Shape_52_" class="st1" d="M65.6 26.9c0 .8.6 1.5 1.4 1.6.8-.1 1.4-.8 1.4-1.6s-.6-1.5-1.4-1.6c-.4 0-.7.2-.9.4-.3.4-.4.8-.5 1.2z"/><path id="Shape_53_" class="st1" d="M35.9 29.4h-1.4c.4-.3.9-.3 1.4 0z"/><path id="Shape_54_" class="st1" d="M37.8 25.8c0-.4-.1-.8-.3-1s-.6-.5-1-.5-.7.2-1 .4c-.3.3-.4.7-.4 1.1 0 .8.6 1.5 1.4 1.5.4 0 .7-.2 1-.5.2-.3.3-.6.3-1z"/><path id="Shape_55_" class="st1" d="M41.7 18.8c-.1-.7-.7-1.2-1.4-1.2-.7.1-1.3.7-1.2 1.4 0 .7.6 1.3 1.3 1.3.4 0 .7-.2 1-.5s.4-.6.3-1z"/><path id="Shape_56_" class="st1" d="M47.6 16.9c-.4 0-.7.2-1 .4s-.4.6-.3 1c0 .4.1.7.4 1s.6.5 1 .5c.8-.1 1.4-.7 1.3-1.5 0-.7-.6-1.3-1.4-1.4z"/><path id="Shape_57_" class="st1" d="M71.9 26.9c-.5.6-1.2 1-1.8 1.4v-.1c0-.4.1-.7.4-1 .3-.3.6-.4 1-.4 0 0 .2 0 .4.1z"/><path id="Shape_58_" class="st1" d="M44.8 18.7c-.4 0-.7.2-1 .4-.2.3-.4.6-.3 1 0 .8.5 1.4 1.3 1.5.4 0 .7-.2 1-.5s.4-.7.4-1c0-.7-.6-1.5-1.4-1.4z"/><path id="Shape_59_" class="st1" d="M56.4 19.5c-.7-.1-1.3.7-1.3 1.5s.5 1.4 1.3 1.5c.8-.1 1.3-.7 1.3-1.5 0-.7-.5-1.6-1.3-1.5z"/><path id="Shape_60_" class="st1" d="M52.1 21.2c.7.1 1.3-.7 1.3-1.5.1-.5-.2-1-.6-1.3-.4-.3-1-.2-1.4 0-.4.3-.6.8-.6 1.3 0 .8.6 1.6 1.3 1.5z"/><path id="Shape_61_" class="st1" d="M65.3 22.3c-.6-.1-1.3.7-1.3 1.5-.1.5.2 1 .6 1.3s1 .3 1.4 0c.4-.3.7-.8.6-1.3.1-.8-.5-1.6-1.3-1.5z"/><path id="Shape_62_" class="st1" d="M37.6 19.3c-.7-.1-1.3.7-1.3 1.5s.6 1.4 1.3 1.5c.7-.1 1.3-.7 1.3-1.5s-.6-1.6-1.3-1.5z"/><path id="Shape_63_" class="st1" d="M60.9 21c-.7-.1-1.3.7-1.3 1.5-.1.5.2 1 .6 1.3.4.3 1 .3 1.4 0 .4-.3.7-.8.6-1.3 0-.7-.6-1.6-1.3-1.5z"/><path id="Shape_64_" class="st1" d="M33.6 29c.7.1 1.3-.8 1.3-1.4 0-.8-.5-1.4-1.3-1.5-.8.1-1.3.7-1.3 1.5 0 .7.7 1.4 1.3 1.4z"/><path id="Shape_65_" class="st1" d="M34.8 24c.7 0 1.3-.7 1.3-1.4.1-.5-.2-1-.6-1.3s-1-.3-1.4 0-.7.8-.6 1.3c0 .7.6 1.5 1.3 1.4z"/><path id="Shape_66_" class="st1" d="M44.5 17c0 .7-.6 1.5-1.3 1.5-.7.1-1.3-.7-1.3-1.4 0-.2.1-.5.2-.7h2.2c.1.1.2.3.2.6z"/><path id="Shape_67_" class="st1" d="M51.7 16.5c0 .8-.6 1.4-1.3 1.5-.7-.1-1.3-.7-1.3-1.5v-.3h2.5c.1.2.1.2.1.3z"/><path id="Shape_68_" class="st1" d="M32.1 29.4h-2.6c-.1-.5.2-1 .6-1.2.4-.3.9-.3 1.4 0 .4.2.7.7.6 1.2z"/><path id="Shape_69_" class="st1" d="M68.5 25c0 .7.5 1.4 1.3 1.5.7-.1 1.3-.7 1.3-1.4s-.5-1.3-1.3-1.4c-.7 0-1.3.6-1.3 1.3z"/><path id="Shape_70_" class="st1" d="M54.9 16.4c-.7.1-1.3.7-1.3 1.5 0 .7.6 1.3 1.3 1.4.7-.1 1.3-.7 1.3-1.5 0-.7-.6-1.4-1.3-1.4z"/><path id="Shape_71_" class="st1" d="M46.8 16.3c-.2.2-.5.4-.8.4-.3 0-.7-.1-.9-.4h1.7z"/><path id="Shape_72_" class="st1" d="M62.4 20.6c0 .7.5 1.4 1.3 1.4s1.4-.6 1.4-1.4c0-.8-.6-1.4-1.4-1.4-.7 0-1.3.6-1.3 1.4z"/><path id="Shape_73_" class="st1" d="M59.2 17.7c-.7.1-1.3.7-1.3 1.4-.1.5.2 1 .6 1.2.4.3.9.3 1.4 0 .4-.3.6-.7.6-1.2 0-.7-.5-1.3-1.3-1.4z"/><path id="Shape_74_" class="st1" d="M66.9 21.9c0 .7.5 1.4 1.3 1.4s1.4-.6 1.4-1.4c0-.8-.6-1.4-1.4-1.4-.8 0-1.3.6-1.3 1.4z"/><path id="Shape_75_" class="st1" d="M34.3 19.4c0-.4-.1-.7-.3-1-.2-.3-.5-.4-.9-.4-.3 0-.7.1-.9.4-.2.3-.4.6-.4 1 0 .7.5 1.3 1.2 1.4.8 0 1.4-.7 1.3-1.4z"/><path id="Shape_76_" class="st1" d="M39.8 16.3c-.2.5-.6.8-1.1.8-.5 0-.9-.4-1.1-.8h2.2z"/><path id="Shape_77_" class="st1" d="M33.2 24.4c0-.4-.1-.8-.4-1.1-.2-.2-.5-.4-.8-.4-.7.1-1.2.7-1.2 1.4 0 .4.2.7.4 1 .2.2.5.4.8.4.7 0 1.2-.6 1.2-1.3z"/><path id="Shape_78_" class="st1" d="M58.9 16.3c-.1.6-.6 1-1.2 1.1-.6-.1-1.1-.5-1.2-1.1h2.4z"/><path id="Shape_79_" class="st1" d="M73.8 23.2c0-.8-.5-1.4-1.2-1.4s-1.1.5-1.2 1.4c0 .3.1.7.3 1 .2.3.6.4.9.5.4 0 .7-.2.9-.4.2-.4.3-.8.3-1.1z"/><path id="Shape_80_" class="st1" d="M37.1 17.5c0 .3-.1.7-.3 1s-.6.4-.9.4c-.6-.1-1.1-.5-1.2-1.2-.1-.6.2-1.2.7-1.5.1-.1.3-.1.5-.1s.3 0 .5.1c.5.3.8.8.7 1.3z"/><path id="Shape_81_" class="st1" d="M29.2 24.9c-.3 0-.7.1-.9.4-.2.3-.3.6-.3.9 0 .3.1.7.3.9.2.3.5.4.9.4s.7-.2.9-.4.3-.6.3-1c0-.3-.1-.7-.3-.9-.3-.2-.6-.3-.9-.3z"/><path id="Shape_82_" class="st1" d="M63.2 17.4c0 .7-.5 1.4-1.2 1.4-.3 0-.7-.1-.9-.4s-.3-.6-.3-.9c0-.4.2-.9.5-1.1.2-.1.4-.2.6-.2.3 0 .5.1.7.2.4.1.6.5.6 1z"/><path id="Shape_83_" class="st1" d="M66.5 20c.7.1 1.2-.7 1.2-1.3 0-.7-.5-1.3-1.2-1.4-.7 0-1.2.7-1.2 1.4 0 .3.1.7.3.9.2.3.5.4.9.4z"/><path id="Shape_84_" class="st1" d="M26.4 29.4c.7.1 1.2-.7 1.2-1.3 0-.7-.5-1.3-1.2-1.3-.7.1-1.2.7-1.2 1.4 0 .6.5 1.3 1.2 1.2z"/><path id="Shape_85_" class="st1" d="M30.3 22.5c.6.1 1.2-.7 1.2-1.3 0-.7-.5-1.2-1.2-1.3-.7.1-1.2.6-1.2 1.3.1.6.6 1.3 1.2 1.3z"/><path id="Shape_86_" class="st1" d="M70.9 21.3c.6.1 1.2-.7 1.2-1.3 0-.7-.5-1.2-1.2-1.3-.7.1-1.2.7-1.2 1.4.1.6.6 1.3 1.2 1.2z"/><path id="Shape_87_" class="st1" d="M27.5 24.3c.6.1 1.2-.7 1.2-1.3 0-.7-.5-1.2-1.2-1.3-.7.1-1.2.7-1.2 1.4.1.6.6 1.3 1.2 1.2z"/><path id="Shape_88_" class="st1" d="M24.7 23.6c-.5-.1-1.2.6-1.1 1.3 0 .7.5 1.2 1.2 1.3.6-.1 1.1-.7 1.2-1.3-.1-.6-.7-1.4-1.3-1.3z"/><path id="Shape_89_" class="st1" d="M24.6 29.4h-2c.2-.4.6-.7 1-.7s.8.3 1 .7z"/><path id="Shape_90_" class="st1" d="M70.5 16.8c0 .7-.5 1.2-1.1 1.4-.7-.1-1.2-.6-1.2-1.3 0-.2 0-.4.1-.6h2.1c0 .1 0 .3.1.5z"/><path id="Shape_91_" class="st1" d="M65.9 16.3c-.2.3-.5.5-.9.5s-.7-.2-.9-.5h1.8z"/><path id="Shape_92_" class="st1" d="M74.3 21v.8c0-.1-.1-.2 0-.3V21z"/><path id="Shape_93_" class="st1" d="M32.6 16.3c0 .3-.1.6-.3.9-.2.2-.5.4-.8.4-.6-.1-1.1-.6-1.1-1.3h2.2z"/><path id="Shape_94_" class="st1" d="M27.6 18c0 .7.5 1.2 1.1 1.3.6-.1 1.1-.6 1.1-1.3 0-.7-.5-1.2-1.1-1.3-.7 0-1.2.6-1.1 1.3z"/><path id="Shape_95_" class="st1" d="M20.8 26.8c.1.8.5 1.3 1.1 1.3.6-.1 1.1-.6 1.1-1.3 0-.6-.5-1.2-1.1-1.3-.6 0-1.1.5-1.1 1.3z"/><path id="Shape_96_" class="st1" d="M24.7 19.8c0 .7.5 1.2 1.1 1.3.6-.1 1.1-.6 1.1-1.3 0-.6-.5-1.2-1.1-1.3-.6.1-1.1.7-1.1 1.3z"/><path id="Shape_97_" class="st1" d="M72.5 16.3c-.2.1-.5.1-.7 0h.7z"/><path id="Shape_98_" class="st1" d="M74.4 17.2v2.1c-.2.1-.4.2-.6.2-.6-.1-1.1-.6-1.1-1.3s.5-1.2 1.1-1.3l.6.3z"/><path id="Shape_99_" class="st1" d="M23.1 23c.6-.1 1.1-.6 1.1-1.3 0-.3-.1-.6-.3-.9-.2-.2-.5-.4-.8-.4-.6.1-1.1.6-1.1 1.3 0 .7.4 1.2 1.1 1.3z"/><path id="Shape_100_" class="st1" d="M27.5 15.9c-.1 0-.2.1-.4.1-.3 0-.6-.1-.8-.4l1.2.3z"/><path id="Shape_101_" class="st1" d="M20.3 24.6c.6.1 1.1-.6 1.1-1.2s-.5-1.1-1.1-1.1-1.1.5-1.1 1.1c0 .7.5 1.3 1.1 1.2z"/><path id="Shape_102_" class="st1" d="M24.3 15.5c-.5-.1-1 .6-1 1.2s.4 1.1 1 1.2c.6-.1 1.1-.6 1-1.2 0-.3-.1-.6-.3-.8s-.4-.4-.7-.4z"/><path id="Shape_103_" class="st1" d="M20.2 28.5c0 .3-.1.6-.4.8h-1.4c-.2-.2-.4-.5-.3-.8 0-.6.4-1.1 1-1.2.6.1 1.1.6 1.1 1.2z"/><path id="Shape_104_" class="st1" d="M20.5 18.5c0 .6.4 1.1 1 1.2.5.1.9-.2 1.2-.6.2-.4.2-.9-.1-1.3-.3-.4-.8-.5-1.3-.3-.5.1-.8.6-.8 1z"/><path id="Shape_105_" class="st1" d="M16.5 25.3c0 .6.4 1.1 1 1.1s1-.4 1-1.1c0-.4-.1-.8-.5-1-.3-.2-.7-.2-1.1 0-.3.3-.5.7-.4 1z"/><path id="Shape_106_" class="st1" d="M16.7 29.4H16c.1-.1.2-.1.4-.1.1 0 .2 0 .3.1z"/><path id="Shape_107_" class="st1" d="M18.7 19.2c-.3 0-.5.1-.7.3s-.3.5-.2.7c0 .3 0 .5.2.7.2.2.4.3.7.3.3 0 .5-.1.7-.3s.3-.5.2-.7c0-.3-.1-.5-.2-.7-.1-.1-.4-.3-.7-.3z"/><path id="Shape_108_" class="st1" d="M14.7 28.3c.5.1.9-.5.9-1 0-.6-.4-1-.9-1.1-.5 0-.9.5-.9 1 0 .6.4 1.1.9 1.1z"/><path id="Shape_109_" class="st1" d="M23.3 14.1c-.1.2-.4.3-.6.4-.5 0-.9-.5-.9-1 0-.1 0-.3.1-.4.4.4.9.7 1.4 1z"/><path id="Shape_110_" class="st1" d="M16 23.2c.5-.1.9-.5.8-1 0-.5-.4-.9-.9-1-.5.1-.9.5-.8 1 0 .5.5 1 .9 1z"/><path id="Shape_111_" class="st1" d="M19.9 16.4c.5-.1.9-.5.9-1s-.4-.9-.9-1c-.5.1-.9.5-.9 1s.4.9.9 1z"/><path id="Shape_112_" class="st1" d="M16.3 17.1c0 .5.4.9.9.9.5-.1.8-.5.8-1s-.3-.9-.8-.9c-.6.1-.9.5-.9 1z"/><path id="Shape_113_" class="st1" d="M13.1 23.1c-.5 0-.8.4-.8.9 0 .2.1.5.2.6s.4.3.6.3c.2 0 .4-.1.6-.3s.2-.4.2-.6c0-.4-.3-.9-.8-.9z"/><path id="Shape_114_" class="st1" d="M12.6 29.1v.3h-1.5v-.2c0-.5.3-.9.7-.9.2 0 .4.1.6.2s.3.3.2.6z"/><path id="Shape_115_" class="st1" d="M14.3 19.9c.2 0 .4-.1.6-.3.1-.2.2-.4.2-.6 0-.2 0-.4-.2-.6s-.4-.3-.6-.3c-.4.1-.7.4-.7.9s.3.8.7.9z"/><path id="Shape_116_" class="st1" d="M10.7 20.9c0 .4.3.8.7.8.4 0 .8-.4.8-.8s-.3-.8-.8-.8c-.4 0-.7.3-.7.8z"/><path id="Shape_117_" class="st1" d="M9.5 25.9c0 .4.3.8.7.8.4-.1.7-.4.7-.8s-.3-.8-.7-.9c-.3.1-.7.5-.7.9z"/><path id="Shape_118_" class="st1" d="M18.2 11.4c-.4 0-.7.3-.7.7-.1.3 0 .6.2.8.2.2.6.2.8 0 .2-.2.4-.5.2-.8.2-.3-.1-.7-.5-.7z"/><path id="Shape_119_" class="st1" d="M15.4 13.2c-.3-.1-.7.4-.7.7 0 .4.3.7.6.7.2 0 .4-.1.5-.2.1-.1.2-.3.2-.5s0-.4-.2-.5c0-.1-.2-.2-.4-.2z"/><path id="Shape_120_" class="st1" d="M12.6 15.1c-.3-.1-.6.4-.6.7 0 .3.3.8.6.7.4 0 .6-.3.6-.7.1-.4-.2-.7-.6-.7z"/><path id="Shape_121_" class="st1" d="M8.7 22c-.3 0-.7.4-.7.7 0 .3.3.8.6.7.4 0 .6-.3.6-.7.1-.3-.1-.6-.5-.7z"/><path id="Shape_122_" class="st1" d="M7.4 26.9c-.3 0-.6.4-.6.7 0 .3.3.7.7.7.3 0 .5-.3.5-.7 0-.3-.2-.6-.6-.7z"/><path id="Shape_123_" class="st1" d="M10.4 17.7c0-.2 0-.3-.1-.5-.1-.1-.3-.2-.5-.2-.3 0-.6.3-.6.7 0 .3.2.6.6.7.2 0 .3-.1.4-.2.2-.2.2-.4.2-.5z"/><path id="Shape_124_" class="st1" d="M5.9 25.1c.4 0 .5-.2.6-.6 0-.4-.1-.6-.5-.6s-.6.2-.6.6.1.6.5.6z"/><path id="Shape_125_" class="st1" d="M5.1 29.4h-1c0-.2.2-.4.5-.4.2-.1.5.1.5.4z"/><path id="Shape_126_" class="st1" d="M16.1 9c0 .2.1.4.2.5.2.1.4.1.5 0 .2-.1.3-.3.3-.5 0-.1 0-.3-.1-.4s-.2-.2-.4-.2c-.1 0-.3.1-.4.2-.1.1-.1.2-.1.4z"/><path id="Shape_127_" class="st1" d="M6.5 19.6c0 .1 0 .3.1.4.1.1.2.2.4.2.3 0 .5-.3.5-.6S7.3 19 7 19c-.1 0-.3.1-.4.2 0 .1-.1.2-.1.4z"/><path id="Shape_128_" class="st1" d="M3.1 25.8c-.3 0-.5.3-.5.6 0 .2.1.4.2.5.2.1.4.1.6 0 .2-.1.3-.3.2-.5 0-.3-.2-.6-.5-.6z"/><path id="Shape_129_" class="st1" d="M13.3 10.8c0 .3.2.5.5.5s.5-.3.5-.6-.2-.5-.5-.6c-.3.1-.5.4-.5.7z"/><path id="Shape_130_" class="st1" d="M10.5 12.6c0 .3.2.5.5.6.2 0 .5-.3.5-.5 0-.3-.2-.5-.4-.6-.3-.1-.6.3-.6.5z"/><path id="Shape_131_" class="st1" d="M4.2 20.8c-.2 0-.4.2-.4.5 0 .2.3.5.5.5.3 0 .5-.3.4-.6 0-.2-.2-.4-.5-.4z"/><path id="Shape_132_" class="st1" d="M8.2 14.1c-.3 0-.4.1-.4.4s.1.4.4.5c.3 0 .4-.1.4-.4s-.2-.5-.4-.5z"/><path id="Shape_133_" class="st1" d="M15.1 5.4c-.3 0-.4.1-.4.4s.1.4.4.4c.1 0 .2 0 .3-.1s.1-.2.1-.3c-.1-.2-.2-.4-.4-.4z"/><path id="Shape_134_" class="st1" d="M5 16.4c0 .1 0 .2.1.3.1.1.2.1.3.1.2 0 .4-.2.4-.4s-.2-.4-.4-.4c-.1 0-.2.1-.3.1-.1.1-.1.2-.1.3z"/><path id="Shape_135_" class="st1" d="M12.2 7.1c-.1.1-.4.2-.3.5.1.2.2.3.3.4.1 0 .3-.2.3-.3.1-.2 0-.4-.3-.6z"/><path id="Shape_136_" class="st1" d="M9.7 9.2h-.5c-.1.2-.1.4 0 .6h.4c.2-.3.2-.5.1-.6z"/><path id="Shape_137_" class="st1" d="M16 1c.2 0 .4.1.5-.1.1-.1.1-.3 0-.4-.1-.2-.3-.1-.4-.1-.2.2-.2.5-.1.6z"/><path id="Shape_138_" class="st1" d="M6.4 11v.6h.4c.1-.2.1-.4 0-.5-.1-.1-.2-.1-.4-.1z"/><path id="Shape_139_" class="st1" d="M1.2 23.2c0 .2.1.3.2.3s.1 0 .2-.1.1-.1.1-.2 0-.2-.1-.2-.1-.1-.2-.1c-.2 0-.2.1-.2.3z"/><path id="Shape_140_" class="st1" d="M0 28.2c0 .2.1.3.3.3s.3-.1.3-.3-.1-.3-.3-.3-.3.1-.3.3z"/><path id="Shape_141_" class="st1" d="M13.4 2.4c-.3.2-.3.2 0 .5.3-.2.3-.3 0-.5z"/></g><path id="Shape_142_" class="st2" d="M119.6 28.9v46.6c-.2 1.9-1.1 3.7-2.4 5.1-.5.6-1.2 1-1.8 1.4-.3.2-.6.3-.9.4-.6.2-1.2.4-1.8.5-.5.1-1 .1-1.5.1H9.8c-4.7 0-8.5-3.8-8.5-8.5V28.9c0-4.7 3.8-8.5 8.5-8.5h101.3c4.7 0 8.5 3.8 8.5 8.5z"/><path id="Shape_143_" class="st4" d="M28 44.5c-1.9 1.1-3.7 2.2-5.6 3.3-.1.1-.2.1-.3 0l-5.6-3.3c-.1 0-.2 0-.2-.2l1.2-2.1 4.1-6.9.6-.9c.2 0 .2.2.3.3l5.7 9.4c0 .3.1.3-.2.4z"/><path id="Shape_144_" class="st4" d="M28.2 46.3l-1.3 1.9c-1.5 2.1-2.9 4.2-4.4 6.2-.1.1-.1.3-.2.2l-.9-1.2c-1.6-2.3-3.3-4.6-4.9-6.9-.1-.1-.2-.2-.2-.3.7.3 1.3.7 1.9 1.1 1.3.8 2.6 1.5 3.9 2.3.1 0 .1.1.2.1l3.9-2.3 1.8-1.1h.2z"/><path id="Shape_145_" class="st5" d="M228.7 81.1v-1c0-.6 0-1.3.1-1.8 0-.4.1-.7.1-1.1v-.5c-.1-.6-.1-1.1 0-1.7.1-.5.1-1 0-1.5 0-.2-.1-.4-.1-.6v-.4c.1-.5.1-.9 0-1.4-.1-.7 0-1.4.1-2.1 0-.2.1-.4.1-.6v-.9c0-.2-.1-.4-.1-.6v-1.3c-.1-.7-.1-1.4 0-2.1v-1.6c0-.3 0-.6-.1-.9-.1-.5-.3-1.1-.6-1.5-.1-.3-.4-.6-.6-.9l-.2-.1c-.1-.1-.2-.2-.4-.3-.7-.5-1.5-.7-2.4-.7h-3.9c-.3 0-.6-.1-.9 0h-4.3.2c.4-.1.9-.1 1.4 0h.1c.8.1 1.6.1 2.5 0v-.2c-.8.1-1.6.1-2.4 0h-.1c-.5-.1-.9 0-1.4 0-.8.2-1.7.2-2.6.1-1-.1-2-.2-3.1-.1-.5 0-.9.1-1.5.1h-1c-.6 0-1.2 0-1.8-.1h-.5c-.2 5.5-4.7 9.9-10.3 9.9h-21.9c0 .6 0 1.3-.1 1.8 0 .4-.1.7-.1 1.1v.5c.1.6.1 1.1 0 1.7-.1.5-.1 1 0 1.5 0 .2.1.4.1.6v.4c-.1.5-.1.9 0 1.4.1.7 0 1.4-.1 2.1 0 .2-.1.4-.1.6v.9c0 .2.1.4.1.6v1.3c.1.7.1 1.4 0 2.2v1.6c0 .3 0 .6.1.9.1.5.3 1.1.6 1.5.1.3.4.6.6.9l.2.1c.1.1.2.1.3.2.7.5 1.6.8 2.4.8h3.9c.3 0 .5.1.8.1h.2v-.1h4.1-.2c-.4.1-.9.1-1.4 0h-.1c-.8-.1-1.6-.1-2.5 0v.2c.8-.1 1.6-.1 2.4 0h.8c.2 0 .5 0 .7-.1.8-.2 1.7-.2 2.6-.1 1 .1 2 .2 3.1.1.5 0 .9-.1 1.5-.1h1c.6 0 1.2 0 1.8.1.4 0 .7.1 1.1 0h.5c.6-.1 1.1-.1 1.7 0 .5.1 1 .1 1.5 0 .2 0 .4-.1.6-.1h.4c.5.1.9.1 1.4 0 .7-.1 1.4 0 2.1.1l.6.1h.9c.2 0 .4-.1.6-.1h1.3c.7-.1 1.4-.1 2.2 0h1.7c.3 0 .6 0 1-.1h1.6c.4.1.7.1 1.1.1.3 0 .5-.1.8-.1h6.5c.3 0 .6.1.9.1 1.4 0 2.7-.7 3.5-1.8 0 .1 0 .1-.1.2-.2.4-.6.8-1 1-.4.2-.8.4-1.2.5-.3.1-.6.1-.8.2h-.3l.1.2h.3c.3 0 .6-.1.9-.2.4-.1.9-.3 1.3-.5.5-.2.9-.6 1.1-1.1.4-.8.7-1.6.8-2.5.1-1 .2-2 .1-3.1-.3-.7-.3-1.1-.3-1.8zm-40.3-5.2c-1.3 0-2.3-1.1-2.3-2.3s1.1-2.3 2.3-2.3c1.3 0 2.3 1 2.3 2.3 0 .6-.2 1.2-.7 1.7s-1 .6-1.6.6zm12.3 0c-1.3 0-2.3-1.1-2.3-2.3s1.1-2.3 2.3-2.3c1.3 0 2.3 1 2.3 2.3 0 .6-.2 1.2-.7 1.7-.4.4-1 .6-1.6.6zm12.4 0c-1.3 0-2.3-1-2.3-2.3s1-2.3 2.3-2.3c1.3 0 2.3 1 2.4 2.3 0 .6-.2 1.2-.7 1.7-.5.4-1.1.6-1.7.6z"/><path id="Shape_146_" class="st4" d="M80.5 69.9c.2 0 .3 0 .5.1h-1c.1-.1.3-.1.5-.1z"/><path id="Shape_147_" class="st4" d="M106.5 69.8c.3 0 .5.1.7.2H106c.1-.1.3-.2.5-.2z"/><path id="Shape_148_" class="st1" d="M202.6 48.9c.1.3.1.5 0 .8 0 .2 0 .3-.1.5-.1.6-.1 1.2-.1 1.7.1.4.1.8 0 1.2v.8c.1.4.1.8 0 1.2-.1.3-.1.7-.1 1 0 .3 0 .5-.1.8-.4 1.4-1.1 2.7-1.9 3.8l-.2.2c-.5.7-1.2 1.3-1.9 1.7-.6.3-1.1.6-1.5.8l-.4.2c-.3.2-.7.3-1.1.4h-.1c-.2 0-.4.1-.5.1l-.5.1c-.2 0-.8 0-.9.1l-.1-.2v.1c-.3 0-.6 0-.9-.1h-2.3c-.5-.1-1-.1-1.6-.1h-3.7c-.3 0-.7.1-1 .1h-4.2c-.2 0-.3 0-.5.1-.3.1-.5.1-.8 0l-.5-.1c-.6-.1-1.2-.1-1.7-.1-.4.1-.8.1-1.2 0h-.8c-.4.1-.8.1-1.2 0-.4-.1-.9-.1-1.4 0H170c-.4 0-1-.1-1.5-.1h-2.1c-.8.1-1.7.1-2.5 0-.7-.1-1.4-.1-2.1 0-.2 0-.4.1-.6.1h-2.7l-.1-.2v.2c-.3 0-.6 0-.9-.1h-2.3c-.5-.1-1-.1-1.6-.1h-3.7c-.3 0-.7.1-1 .1h-4.1c-.2 0-.3 0-.5.1-.3.1-.5.1-.8 0l-.5-.1c-.6-.1-1.2-.1-1.7-.1-.4.1-.8.1-1.2 0h-.8c-.4.1-.8.1-1.2 0-.5-.1-.9-.1-1.4 0h-1.3c-.4 0-1-.1-1.5-.1h-2.1c-.8.1-1.7.1-2.5 0-.7-.1-1.4-.1-2.1 0-.2 0-.4.1-.6.1h-2.7l-.1-.2v.1c-.3 0-.6 0-.9-.1h-2.3c-.5-.1-1-.1-1.6-.1h-3.7c-.3 0-.7.1-1 .1h-4.2c-.2 0-.3 0-.5.1-.3.1-.5.1-.8 0l-.5-.1c-.6-.1-1.2-.1-1.7-.1-.4.1-.8.1-1.2 0h-.8c-.4.1-.8.1-1.2 0-.5-.1-.9-.1-1.4 0h-1.3c-.4 0-1-.1-1.5-.1h-2.1c-.8.1-1.7.1-2.5 0-.7-.1-1.4-.1-2.1 0-.2 0-.4.1-.6.1h-2.7l-.1-.2v.1c-.3 0-.6 0-.9-.1h-2.3c-.5-.1-1-.1-1.6-.1h-3.4c-.3 0-.7.1-1 .1h-4.8c-.3 0-.6 0-.8-.1-.4-.1-.7-.3-1.1-.4-.3-.2-.7-.3-1-.4-.4-.2-.8-.4-1.1-.7l-.1.2-.2-.1c-.4-.2-.8-.6-1.1-.9-.2-.3-.4-.5-.6-.8-.2-.2-.4-.4-.5-.6-.4-.7-.7-1.5-.9-2.2-.2-.7-.3-1.3-.4-2v-.1c-.1-.8-.1-1.7 0-2.5.1-.5.1-1.1 0-1.6-.1-.4-.1-.8 0-1.2v-2.1l.2-.1h-.1c0-.3 0-.7.1-1v-1.4c-.1-.3-.1-.6 0-.9.1-.5.1-1 .1-1.6V39c0-.3-.1-.7-.1-1v-4.2c0-.2 0-.3-.1-.5s-.1-.5-.1-.7c0-.2 0-.3.1-.5.1-.6.1-1.2.1-1.7v-2c-.1-.4-.1-.8 0-1.2.1-.4.1-.9 0-1.4v-1.3c0-.5.1-1 .1-1.5v-2.1c-.1-.8-.1-1.7 0-2.5.1-.7 0-1.4-.1-2.1-.1-.4-.1-.8 0-1.2V13l.2-.1h-.1c0-.3 0-.6.1-.9V9.7c0-.2.1-.5.1-.8.1-.3.1-.6.1-.7 0-.1.1-.4.1-.6v-.2c-.1-.3 0-.6 0-.9.1-.3.2-.5.4-.8l.1-.2.2-.2.1-.1v-.1l.2-.2.6-.9.4-.5.3-.3c.3-.3.7-.5 1.1-.7l.7-.5c.2-.1.4-.3.6-.3.1 0 .2-.1.4-.2.1-.1.3-.1.4-.2.3-.2.6-.3.8-.3.4-.1.7-.1 1.1-.1.4 0 .8 0 1.2-.1.4-.1.8-.1 1.2 0h.7c.4-.1.8-.1 1.2 0 .4.1.9.1 1.4 0h1.3c.5 0 1 .1 1.5.1H86c.8-.1 1.7-.1 2.5 0 .7.1 1.4.1 2.1 0 .4-.1.8-.1 1.2 0h2.1l-.1.1V.9c.3 0 .6 0 .9.1h1.4c.3-.1.6-.1.9 0h5.4c.3 0 .7-.1 1-.1h4.1c.2 0 .3 0 .5-.1s.5-.1.8-.1l.5.1c.6.1 1.2.1 1.7.1.4-.1.8-.1 1.2 0h.8c.4-.1.8-.1 1.2 0 .4.1.9.1 1.4 0h1.3c.5 0 1 .1 1.5.1h2.1c.8-.1 1.7-.1 2.5 0 .7.1 1.4.1 2.1 0 .4-.1.8-.1 1.2 0h2.1l.1.2V.9c.3 0 .6 0 .9.1h1.4c.3 0 .6-.1.9 0 .5.1 1 .1 1.6.1h3.8c.3 0 .7-.1 1-.1h4.1c.2 0 .3 0 .5-.1s.5-.1.8-.1l.5.1c.6.1 1.1.1 1.7.1.4-.1.8-.1 1.2 0h.8c.4-.1.8-.1 1.2 0 .4.1.9.1 1.4 0l.4-.1h.9c.5 0 1 .1 1.5.1h2.1c.8-.1 1.7-.1 2.5 0 .7.1 1.4.1 2.1 0 .4-.1.8-.1 1.2 0h2.1l.1.2V.9c.3 0 .6 0 .9.1h1.4c.3 0 .6-.1.9 0 .5.1 1 .1 1.6.1h3.8c.3 0 .7-.1 1-.1h4.1c.2 0 .3 0 .5-.1s.5-.1.8-.1l.5.1c.6.1 1.2.1 1.7.1.4-.1.8-.1 1.2 0h.8c.4-.1.8-.1 1.2 0 .4.1.9.1 1.4 0h1.3c.5 0 1 .1 1.5.1h2.1c.8-.1 1.7-.1 2.5 0 .7.1 1.4.1 2.1 0 .4 0 .9.1 1.3.2.5.1 1 .3 1.4.5l.4.2-.1.2v-.1c.3.2.7.4.9.7.2.1.4.3.6.4l.3.2.2.1c.2.1.4.3.5.5.2.2.6.8.8 1.1l.2.3c.2.2.3.4.4.7.1.2.2.3.2.5.1.1.1.3.2.3.1.3.2.5.3.8 0 .3.1.6.1.7 0 .1 0 .1.1.2.1.3.2.7.2 1.1v4.2c0 .2 0 .3.1.5.1.3.1.5 0 .8 0 .2 0 .3-.1.5-.1.6-.1 1.1-.1 1.7.1.4.1.8 0 1.2v.8c.1.4.1.8 0 1.2-.1.4-.1.9 0 1.4v1.3c0 .5-.1 1-.1 1.5v2.1c.1.8.1 1.7 0 2.5-.1.7-.1 1.4 0 2.1.1.4.1.8 0 1.2v2.1h-.2.1c0 .3 0 .6-.1.9v1.4c.1.3.1.6 0 .9-.1.5-.1 1-.1 1.6v3.8c0 .3.1.7.1 1v4.2c.3 0 .4.1.5.3z"/><g id="Group_1_" transform="translate(126.555 10.605)" class="st3"><path id="Shape_149_" class="st1" d="M67.3 53.3c.7-.6.8-1.7.3-2.5-.4-.7-1.3-1-2-.7-1.1.4-1.4 1.2-1.2 2.4-.3-.2-.7-.4-1.1-.6-.4-.1-.8-.1-1.1.1.7-.7.8-1.7.2-2.5-.4-.6-1.2-.9-2-.7-.3.1-.6.2-.8.5-.2.2-.4.5-.4.8v1.1c-.4-.5-1-.7-1.6-.7-.6 0-1.1.3-1.4.8-.2.6-.3 1.2-.2 1.7-.2-.1-.3-.2-.4-.3-.3-.2-.7-.3-1-.3-.3 0-.5.1-.7.2h-.2l-.3.3c-.1.1-.3.3-.4.5h6.3c.3-.5.4-1.1.3-1.6.6.5 1.3.7 2 .6-.2.3-.3.6-.4.9v.1h3.7v-.3c0-.1.2.1.3.2l.1.1h2.2-.1c0-.1 0 0-.1-.1z"/><path id="Shape_150_" class="st1" d="M70.2 51.6c0-.1.1-.1.1-.1.5-.4.8-1 .8-1.6-.1-.6-.5-1.2-1.1-1.4-.2-.1-.5-.1-.8-.1-.7 0-1.2.4-1.5 1-.4.8-.1 1.8.7 2.3.4.3.9.3 1.4.1.2-.1.3-.2.4-.2z"/><path id="Shape_151_" class="st1" d="M53.6 52.7s0-.1.1-.1c.5-.3.9-1 .8-1.6-.1-.7-.5-1.2-1.1-1.5-.2-.1-.5-.1-.8-.1-.6.1-1.2.5-1.5 1.1-.3.8 0 1.7.7 2.2.4.3.9.3 1.4.1.1-.1.2-.2.4-.1z"/><path id="Shape_152_" class="st1" d="M71.8 51.7c-.7.5-1.6 1-2.4 1.3.1-.5.3-.9.7-1.1.1 0 .1-.1.1-.2h.4c.1 0 .2-.1.4-.1s.5 0 .7.1h.1z"/><path id="Shape_153_" class="st1" d="M64.2 50.5c.6 0 1.2-.4 1.5-.9.3-.6.3-1.2 0-1.8-.3-.5-.9-.9-1.5-.9-1 0-1.8.8-1.7 1.8 0 1 .8 1.8 1.7 1.8z"/><path id="Shape_154_" class="st1" d="M57.4 47.2c0 1 .8 1.7 1.8 1.7s1.7-.8 1.7-1.7-.8-1.7-1.7-1.7c-1.1 0-1.8.8-1.8 1.7z"/><path id="Shape_155_" class="st1" d="M55.9 47.4c-1 0-1.7.8-1.7 1.8s.8 1.7 1.7 1.7c1 0 1.7-.8 1.7-1.7 0-1.1-.8-1.8-1.7-1.8z"/><path id="Shape_156_" class="st1" d="M47.4 53.4h-2.3c.3-.3.7-.5 1.1-.5.4.1.9.2 1.2.5z"/><path id="Shape_157_" class="st1" d="M60.6 45.5c0 .9.8 1.7 1.7 1.7.5 0 .9-.2 1.2-.5.3-.3.5-.8.5-1.2 0-.9-.8-1.7-1.7-1.7-.9 0-1.7.7-1.7 1.7z"/><path id="Shape_158_" class="st1" d="M51.1 52.9c0 .2 0 .3-.1.5h-3.3c-.1-.2-.1-.4-.1-.6.1-.4.3-.8.6-1.2.5-.5 1.2-.6 1.9-.3.6.3 1.1 1 1 1.6z"/><path id="Shape_159_" class="st1" d="M65.8 46.8c0 .9.8 1.7 1.7 1.7.5 0 .9-.2 1.2-.5.3-.3.5-.8.5-1.2 0-.5-.2-.9-.5-1.2-.3-.3-.7-.5-1.2-.5-.4 0-.9.2-1.2.5-.3.3-.5.7-.5 1.2z"/><path id="Shape_160_" class="st1" d="M49 47.8c0 1 .8 1.7 1.7 1.8.5 0 .9-.2 1.2-.5.3-.3.5-.8.5-1.2 0-.7-.4-1.3-1-1.6-.6-.3-1.3-.2-1.8.3-.3.3-.5.7-.6 1.2z"/><path id="Shape_161_" class="st1" d="M57.2 42.3c-.4 0-.9.2-1.2.5-.3.3-.5.8-.5 1.2 0 .6.3 1.2.8 1.5s1.2.3 1.7 0 .8-.8.9-1.4c0-.5-.1-.9-.5-1.2-.3-.4-.7-.6-1.2-.6z"/><path id="Shape_162_" class="st1" d="M54 47.6c.4 0 .9-.2 1.2-.5.3-.3.5-.7.5-1.2 0-.9-.8-1.6-1.7-1.6-.4 0-.9.2-1.2.5-.3.3-.5.8-.5 1.2 0 .4.2.9.5 1.2.3.2.7.4 1.2.4z"/><path id="Shape_163_" class="st1" d="M73.7 49.8c-.3.4-.6.8-.9 1.1.1-.5.4-.9.9-1.1z"/><path id="Shape_164_" class="st1" d="M60.4 40.6c-.4 0-.9.2-1.2.5-.3.3-.5.7-.5 1.2 0 .9.7 1.6 1.6 1.7.9 0 1.6-.7 1.7-1.7.1-.9-.7-1.7-1.6-1.7z"/><path id="Shape_165_" class="st1" d="M72.6 49.7c.4 0 .9-.2 1.2-.5s.5-.7.5-1.2c0-.9-.8-1.6-1.7-1.7-.9 0-1.6.8-1.6 1.7 0 .4.2.9.5 1.2.2.4.6.6 1.1.5z"/><path id="Shape_166_" class="st1" d="M65.5 45.2c.9 0 1.6-.7 1.6-1.6 0-.9-.8-1.6-1.7-1.6-.9 0-1.6.8-1.6 1.6 0 .4.2.9.5 1.2.4.3.8.4 1.2.4z"/><path id="Shape_167_" class="st1" d="M47.5 48.1c-.4 0-.9.2-1.2.5s-.5.7-.5 1.2c0 .9.8 1.6 1.7 1.6.9 0 1.6-.8 1.6-1.7.1-.9-.7-1.6-1.6-1.6z"/><path id="Shape_168_" class="st1" d="M52.2 44.3c.9 0 1.6-.7 1.7-1.6 0-.6-.3-1.2-.8-1.5-.5-.3-1.2-.3-1.7 0s-.8.9-.8 1.5c0 .9.7 1.6 1.6 1.6z"/><path id="Shape_169_" class="st1" d="M48.8 46.2c.9 0 1.6-.7 1.7-1.6 0-.9-.7-1.6-1.6-1.6s-1.6.7-1.6 1.6c-.1.9.6 1.6 1.5 1.6z"/><path id="Shape_170_" class="st1" d="M45.6 48.1c.9 0 1.6-.7 1.6-1.6 0-.6-.3-1.2-.8-1.5-.5-.3-1.2-.3-1.7 0s-.8.9-.8 1.5c.1.9.9 1.6 1.7 1.6z"/><path id="Shape_171_" class="st1" d="M44.3 53.1c.9 0 1.6-.7 1.6-1.6 0-.9-.7-1.6-1.6-1.6-.9 0-1.6.7-1.6 1.6 0 .9.7 1.6 1.6 1.6z"/><path id="Shape_172_" class="st1" d="M70.7 43.3c-.9 0-1.6.7-1.6 1.6.1.9.8 1.5 1.6 1.5s1.6-.7 1.6-1.5c0-.9-.7-1.6-1.6-1.6z"/><path id="Shape_173_" class="st1" d="M75.5 44.8c0 1-.3 2-.6 2.9-.5-.4-.8-1-.7-1.7.2-.6.7-1.1 1.3-1.2z"/><path id="Shape_174_" class="st1" d="M55.5 39.2c-.9 0-1.6.7-1.6 1.6 0 .9.7 1.6 1.6 1.6.9 0 1.6-.7 1.6-1.6-.1-.9-.8-1.6-1.6-1.6z"/><path id="Shape_175_" class="st1" d="M63.6 38.8c-.9 0-1.6.8-1.6 1.6 0 .9.7 1.6 1.6 1.6.9 0 1.6-.7 1.6-1.6 0-1-.7-1.7-1.6-1.6z"/><path id="Shape_176_" class="st1" d="M68.8 40.1c-.4 0-.8.2-1.1.5-.3.3-.5.7-.5 1.2 0 .4.2.8.5 1.1.3.3.7.5 1.1.5.4 0 .8-.2 1.1-.4s.5-.7.5-1.1c0-.4-.2-.8-.5-1.2-.3-.4-.7-.6-1.1-.6z"/><path id="Shape_177_" class="st1" d="M50.3 41.1c.4 0 .8-.2 1.1-.5.3-.3.5-.7.5-1.1 0-.4-.1-.8-.4-1.1-.3-.3-.7-.5-1.1-.4-.4 0-.8.2-1.1.5s-.5.7-.4 1.1c-.2.8.6 1.5 1.4 1.5z"/><path id="Shape_178_" class="st1" d="M58.7 37.5c-.4 0-.8.2-1.1.5-.3.3-.5.7-.5 1.1 0 .9.7 1.6 1.6 1.6.9 0 1.6-.7 1.6-1.6 0-.4-.2-.8-.5-1.1-.3-.4-.7-.5-1.1-.5z"/><path id="Shape_179_" class="st1" d="M42.7 53.4h-3.1c0-.4.2-.8.5-1.1.3-.3.7-.5 1.1-.5.4 0 .8.1 1.1.4s.4.8.4 1.2z"/><path id="Shape_180_" class="st1" d="M45.5 41.4c0 .9.7 1.6 1.6 1.6.4 0 .8-.2 1.1-.4.3-.3.5-.7.5-1.1 0-.9-.7-1.6-1.6-1.6-.9-.1-1.5.6-1.6 1.5z"/><path id="Shape_181_" class="st1" d="M72.3 43.1c0 .9.7 1.6 1.6 1.6.4 0 .8-.2 1.1-.5s.5-.7.5-1.1c0-.9-.7-1.6-1.5-1.6-.4 0-.8.2-1.1.5-.4.3-.6.7-.6 1.1z"/><path id="Shape_182_" class="st1" d="M44 48.3c0-.4-.2-.8-.4-1.1-.3-.3-.7-.5-1.1-.5-.4 0-.8.1-1.1.4-.3.3-.5.7-.5 1.1 0 .9.7 1.6 1.6 1.6.8 0 1.5-.7 1.5-1.5z"/><path id="Shape_183_" class="st1" d="M45.4 43.3c0-.4-.1-.8-.4-1.1-.3-.3-.7-.5-1.1-.5-.4 0-.8.1-1.1.5-.3.3-.5.7-.5 1.1 0 .9.7 1.5 1.5 1.5.4 0 .8-.2 1.1-.5s.5-.6.5-1z"/><path id="Shape_184_" class="st1" d="M49.9 36.3c0-.8-.7-1.5-1.5-1.5s-1.5.7-1.5 1.5.7 1.5 1.5 1.5c.4 0 .8-.1 1.1-.4s.4-.7.4-1.1z"/><path id="Shape_185_" class="st1" d="M56.8 34.3c-.4 0-.8.1-1.1.4-.3.3-.4.7-.4 1.1 0 .4.2.8.4 1.1.3.3.7.4 1.1.4.8 0 1.5-.7 1.5-1.5 0-.4-.2-.8-.4-1.1-.4-.2-.7-.4-1.1-.4z"/><path id="Shape_186_" class="st1" d="M53.5 36.1c-.4 0-.8.1-1.1.4-.3.3-.4.7-.4 1.1 0 .8.7 1.5 1.5 1.5s1.5-.7 1.5-1.5c0-.4-.2-.8-.4-1.1s-.7-.4-1.1-.4z"/><path id="Shape_187_" class="st1" d="M66.8 37c-.4 0-.8.1-1.1.4-.3.3-.4.7-.4 1.1 0 .8.7 1.5 1.5 1.5s1.5-.7 1.5-1.5c0-.4-.2-.8-.5-1-.2-.4-.6-.5-1-.5z"/><path id="Shape_188_" class="st1" d="M61.9 38.6c.4 0 .8-.2 1.1-.5s.4-.7.4-1.1c-.1-.8-.7-1.5-1.5-1.5s-1.5.7-1.5 1.5c0 .4.2.8.5 1s.6.6 1 .6z"/><path id="Shape_189_" class="st1" d="M45.2 36.7c-.4 0-.8.2-1.1.4-.3.3-.4.7-.4 1.1 0 .8.7 1.5 1.5 1.5.8-.1 1.4-.7 1.4-1.5.1-.8-.6-1.5-1.4-1.5z"/><path id="Shape_190_" class="st1" d="M72 38.4c-.4 0-.8.2-1.1.4-.3.3-.4.7-.4 1.1.1.8.7 1.4 1.5 1.4s1.4-.6 1.5-1.4c0-.8-.7-1.5-1.5-1.5z"/><path id="Shape_191_" class="st1" d="M40.6 46.5c.8 0 1.5-.6 1.5-1.5 0-.8-.7-1.5-1.5-1.5s-1.5.7-1.5 1.5c.1.9.7 1.5 1.5 1.5z"/><path id="Shape_192_" class="st1" d="M39.2 51.6c.8 0 1.5-.6 1.5-1.4 0-.8-.7-1.5-1.5-1.5s-1.5.7-1.5 1.5.7 1.4 1.5 1.4z"/><path id="Shape_193_" class="st1" d="M42 41.5c.8 0 1.5-.7 1.5-1.5 0-.6-.2-1.1-.7-1.4-.5-.3-1.1-.3-1.5 0-.5.3-.7.8-.7 1.4-.1.9.6 1.5 1.4 1.5z"/><path id="Shape_194_" class="st1" d="M51.6 35.8c.8 0 1.5-.7 1.5-1.5-.1-.8-.7-1.4-1.5-1.4s-1.4.6-1.5 1.4c.1.9.7 1.5 1.5 1.5z"/><path id="Shape_195_" class="st1" d="M58.5 33.9c0 .8.6 1.4 1.4 1.5.8 0 1.5-.7 1.5-1.5s-.7-1.5-1.5-1.5c-.8.1-1.4.7-1.4 1.5z"/><path id="Shape_196_" class="st1" d="M37.4 48.4c.8 0 1.4-.7 1.4-1.5s-.7-1.5-1.5-1.5-1.5.7-1.5 1.5c.2.9.8 1.5 1.6 1.5z"/><path id="Shape_197_" class="st1" d="M65 33.8c-.8 0-1.4.7-1.4 1.5s.7 1.4 1.5 1.4 1.4-.7 1.4-1.5-.6-1.5-1.5-1.4z"/><path id="Shape_198_" class="st1" d="M54.9 34.1c.6 0 1.1-.4 1.3-.9.2-.6.1-1.2-.4-1.6-.4-.4-1.1-.5-1.6-.3s-.9.8-.9 1.4c.1.7.8 1.4 1.6 1.4z"/><path id="Shape_199_" class="st1" d="M34.5 52.1c0 .8.7 1.4 1.5 1.4s1.4-.6 1.4-1.4-.6-1.4-1.4-1.4c-.4 0-.8.2-1 .4-.3.2-.5.6-.5 1z"/><path id="Shape_200_" class="st1" d="M75.5 36.6v2.8h-.3c-.8 0-1.4-.6-1.4-1.4s.6-1.4 1.4-1.4h.3z"/><path id="Shape_201_" class="st1" d="M70.1 35.1c-.8 0-1.4.7-1.4 1.5s.7 1.4 1.4 1.4c.4 0 .7-.2 1-.4s.4-.6.4-1c0-.9-.6-1.5-1.4-1.5z"/><path id="Shape_202_" class="st1" d="M58.1 29.2c-.8 0-1.4.6-1.4 1.4 0 .4.1.7.4 1 .3.3.6.4 1 .4.8 0 1.4-.7 1.4-1.4-.1-.7-.7-1.3-1.4-1.4z"/><path id="Shape_203_" class="st1" d="M32.8 48.9c.1.8.7 1.4 1.4 1.4.8 0 1.4-.6 1.4-1.4s-.6-1.4-1.4-1.4c-.8 0-1.4.6-1.4 1.4z"/><path id="Shape_204_" class="st1" d="M61.8 32c0 .8.6 1.4 1.4 1.5.8 0 1.4-.6 1.4-1.4 0-.4-.1-.7-.4-1-.3-.3-.6-.4-1-.4s-.7.1-1 .4c-.2.2-.4.5-.4.9z"/><path id="Shape_205_" class="st1" d="M41.5 36.8c0-.4-.1-.7-.4-1-.3-.3-.6-.4-1-.4s-.7.1-1 .4c-.4.4-.5 1-.3 1.5s.7.9 1.3.9c.7 0 1.3-.6 1.4-1.4z"/><path id="Shape_206_" class="st1" d="M47.9 33.1c0-.4-.1-.7-.4-1-.3-.3-.6-.4-1-.4s-.7.1-1 .4c-.4.4-.5 1-.3 1.5s.7.9 1.3.9c.8 0 1.4-.7 1.4-1.4z"/><path id="Shape_207_" class="st1" d="M40.2 41.9c0-.4-.2-.8-.5-1.1-.3-.2-.6-.4-.9-.4-.8 0-1.4.6-1.4 1.4 0 .4.2.8.5 1 .4.3 1 .4 1.5.2.3-.1.7-.6.8-1.1z"/><path id="Shape_208_" class="st1" d="M66.9 33.3c0 .8.6 1.4 1.4 1.4.8 0 1.4-.6 1.4-1.4 0-.4-.1-.7-.4-1-.3-.3-.6-.4-1-.4s-.8.1-1 .4c-.2.3-.4.6-.4 1z"/><path id="Shape_209_" class="st1" d="M44.7 34.9c0-.4-.1-.7-.4-1-.3-.3-.6-.4-1-.4s-.7.1-1 .4c-.3.3-.4.6-.4 1 0 .8.6 1.4 1.4 1.4.4 0 .7-.1 1-.4.3-.2.4-.6.4-1z"/><path id="Shape_210_" class="st1" d="M35.5 42.4c-.4 0-.7.1-1 .4s-.4.6-.4 1 .1.7.4 1c.3.3.6.4 1 .4s.8-.1 1-.4c.3-.3.4-.6.4-1s-.2-.7-.4-1c-.3-.3-.6-.5-1-.4z"/><path id="Shape_211_" class="st1" d="M49.7 29.8c-.4 0-.7.1-1 .4-.3.3-.4.6-.4 1s.1.7.4 1c.3.3.6.4 1 .4s.7-.1 1-.4c.3-.3.4-.6.4-1s-.1-.7-.4-1c-.2-.3-.6-.4-1-.4z"/><path id="Shape_212_" class="st1" d="M73.3 36.1c.4 0 .7-.1 1-.4s.4-.6.4-1c0-.7-.7-1.3-1.4-1.3S72 34 72 34.8c0 .4.1.7.4 1s.6.4.9.3z"/><path id="Shape_213_" class="st1" d="M56.2 28.8c.4 0 .7-.1 1-.4.3-.3.4-.6.4-1 0-.8-.6-1.4-1.4-1.4-.4 0-.7.1-1 .4-.3.3-.4.6-.4 1s.1.7.4 1c.3.3.6.4 1 .4z"/><path id="Shape_214_" class="st1" d="M34 53.4h-2.5c.2-.5.7-.8 1.2-.8.6 0 1.1.3 1.3.8z"/><path id="Shape_215_" class="st1" d="M61.3 30.1c.4 0 .7-.1 1-.4s.4-.6.4-.9c0-.7-.6-1.3-1.4-1.4-.7 0-1.3.6-1.3 1.3 0 .4.1.7.4 1 .2.3.5.4.9.4z"/><path id="Shape_216_" class="st1" d="M32.3 47c.4 0 .7-.1 1-.4.3-.3.4-.6.4-.9 0-.7-.6-1.3-1.4-1.4-.7 0-1.3.6-1.4 1.4 0 .4.1.7.4.9.3.2.7.4 1 .4z"/><path id="Shape_217_" class="st1" d="M52.9 30.7c.7 0 1.4-.6 1.4-1.3 0-.7-.6-1.3-1.3-1.4-.7 0-1.3.6-1.4 1.3 0 .4.1.7.4 1 .2.3.6.4.9.4z"/><path id="Shape_218_" class="st1" d="M36.8 39.9c.7 0 1.3-.6 1.4-1.3 0-.7-.6-1.3-1.3-1.3-.7 0-1.3.6-1.4 1.3 0 .4.1.7.4 1s.6.3.9.3z"/><path id="Shape_219_" class="st1" d="M31 52.1c.7 0 1.4-.6 1.4-1.3 0-.7-.6-1.3-1.3-1.4-.7 0-1.3.6-1.4 1.3 0 .4.1.7.4 1 .2.2.5.4.9.4z"/><path id="Shape_220_" class="st1" d="M33.6 41.8c.7 0 1.3-.6 1.3-1.3-.1-.7-.6-1.3-1.4-1.4-.7.1-1.3.6-1.3 1.4.1.8.7 1.3 1.4 1.3z"/><path id="Shape_221_" class="st1" d="M59.4 26.9c.7 0 1.3-.6 1.3-1.3 0-.7-.6-1.3-1.3-1.3-.7 0-1.3.6-1.3 1.3 0 .7.6 1.3 1.3 1.3z"/><path id="Shape_222_" class="st1" d="M30.4 41.1c-.7 0-1.3.6-1.3 1.3 0 .7.6 1.3 1.3 1.3.7-.1 1.3-.6 1.4-1.3-.1-.7-.7-1.3-1.4-1.3z"/><path id="Shape_223_" class="st1" d="M29.1 48.9c.7-.1 1.3-.6 1.3-1.3 0-.7-.6-1.3-1.3-1.3-.7 0-1.3.6-1.3 1.3 0 .7.6 1.2 1.3 1.3z"/><path id="Shape_224_" class="st1" d="M47.9 26.6c-.7.1-1.3.6-1.3 1.3 0 .7.6 1.3 1.3 1.3s1.3-.6 1.3-1.3c.1-.7-.5-1.3-1.3-1.3z"/><path id="Shape_225_" class="st1" d="M66.4 28.8c-.7.1-1.3.6-1.3 1.4 0 .7.6 1.3 1.4 1.3s1.3-.6 1.3-1.4c-.1-.7-.7-1.3-1.4-1.3z"/><path id="Shape_226_" class="st1" d="M71.6 32.9c.7 0 1.3-.6 1.3-1.3 0-.7-.6-1.3-1.4-1.3s-1.3.6-1.3 1.4c.1.6.7 1.2 1.4 1.2z"/><path id="Shape_227_" class="st1" d="M40.1 31.7c0 .7.6 1.3 1.3 1.3.5 0 1-.2 1.2-.6.3-.4.3-1 0-1.4s-.7-.7-1.2-.6c-.7 0-1.3.6-1.3 1.3z"/><path id="Shape_228_" class="st1" d="M44.8 28.5c-.7 0-1.3.6-1.3 1.3 0 .7.6 1.3 1.3 1.3.7 0 1.3-.6 1.3-1.3-.1-.7-.6-1.3-1.3-1.3z"/><path id="Shape_229_" class="st1" d="M75.5 32.3v1.3c-.1-.2-.2-.4-.2-.6.1-.3.1-.5.2-.7z"/><path id="Shape_230_" class="st1" d="M64.5 28.2c.7 0 1.3-.6 1.3-1.3-.1-.7-.6-1.3-1.4-1.3-.7.1-1.2.6-1.3 1.3.1.7.7 1.3 1.4 1.3z"/><path id="Shape_231_" class="st1" d="M27.8 53.8c.7 0 1.3-.6 1.3-1.3 0-.7-.6-1.3-1.3-1.3s-1.3.6-1.3 1.3c0 .7.6 1.3 1.3 1.3z"/><path id="Shape_232_" class="st1" d="M75.5 28.6v2.1c-.2.2-.5.3-.7.3-.7 0-1.3-.6-1.3-1.3s.6-1.3 1.3-1.3c.2 0 .5.1.7.2z"/><path id="Shape_233_" class="st1" d="M36.9 33.6c0 .3.1.7.4.9s.6.4.9.4c.7 0 1.3-.6 1.3-1.3s-.6-1.3-1.3-1.3c-.7 0-1.3.6-1.3 1.3z"/><path id="Shape_234_" class="st1" d="M33.6 35.4c0 .7.6 1.3 1.3 1.3.7 0 1.3-.6 1.3-1.3S35.7 34 35 34c-.8 0-1.4.6-1.4 1.4z"/><path id="Shape_235_" class="st1" d="M24.6 49.3c0 .3.1.7.4.9.2.2.6.4.9.4.7 0 1.3-.6 1.3-1.3 0-.7-.6-1.3-1.3-1.3-.3 0-.7.1-.9.4-.3.2-.4.5-.4.9z"/><path id="Shape_236_" class="st1" d="M25.9 44.3c0 .3.1.7.4.9.2.2.6.4.9.4.5 0 .9-.2 1.2-.6.3-.4.3-.9 0-1.3s-.7-.6-1.2-.6c-.3 0-.7.1-.9.4-.3.1-.4.5-.4.8z"/><path id="Shape_237_" class="st1" d="M68.3 28.4c0 .7.6 1.3 1.3 1.3.7 0 1.3-.6 1.3-1.3-.1-.7-.6-1.2-1.3-1.3-.7 0-1.2.6-1.3 1.3z"/><path id="Shape_238_" class="st1" d="M30.4 37.3c0 .7.6 1.3 1.3 1.3.7 0 1.3-.6 1.3-1.3s-.6-1.3-1.3-1.3c-.7 0-1.3.6-1.3 1.3z"/><path id="Shape_239_" class="st1" d="M61.3 23.7c0 .7.6 1.3 1.3 1.3.7 0 1.3-.6 1.3-1.3-.1-.7-.6-1.2-1.3-1.3-.7 0-1.2.6-1.3 1.3z"/><path id="Shape_240_" class="st1" d="M51.2 27.5c.7 0 1.3-.6 1.3-1.3 0-.7-.6-1.3-1.3-1.3-.7 0-1.3.6-1.3 1.3 0 .7.6 1.2 1.3 1.3z"/><path id="Shape_241_" class="st1" d="M53.1 24.3c.1.7.6 1.2 1.3 1.3.7 0 1.3-.6 1.3-1.3 0-.7-.6-1.3-1.3-1.3-.7 0-1.2.6-1.3 1.3z"/><path id="Shape_242_" class="st1" d="M28.5 40.5c.7 0 1.3-.6 1.3-1.3s-.6-1.3-1.3-1.3c-.7 0-1.2.6-1.3 1.3.1.7.6 1.2 1.3 1.3z"/><path id="Shape_243_" class="st1" d="M71.6 26.4c.1.7.6 1.2 1.2 1.3.7 0 1.2-.6 1.3-1.3 0-.3-.1-.7-.4-.9-.4-.3-.9-.4-1.4-.2-.4.2-.7.6-.7 1.1z"/><path id="Shape_244_" class="st1" d="M69 25.1c0-.3-.1-.7-.3-.9-.2-.2-.5-.4-.9-.4-.3 0-.7.1-.9.4-.4.4-.5.9-.3 1.4s.7.8 1.2.8c.6 0 1.2-.6 1.2-1.3z"/><path id="Shape_245_" class="st1" d="M57.6 23.6c.3 0 .6-.1.9-.3.2-.2.4-.5.4-.9 0-.7-.5-1.2-1.2-1.2-.3 0-.6.1-.9.3s-.4.5-.4.9c0 .3.1.6.3.9.3.1.6.3.9.3z"/><path id="Shape_246_" class="st1" d="M33.2 31c-.3 0-.6.1-.9.3-.2.2-.4.6-.3.9 0 .3.1.6.4.9s.5.4.9.3c.7 0 1.2-.5 1.2-1.2 0-.3-.1-.6-.4-.9s-.5-.3-.9-.3z"/><path id="Shape_247_" class="st1" d="M25.1 53.4h-1.4c.2-.2.5-.2.7-.2.2 0 .5.1.7.2z"/><path id="Shape_248_" class="st1" d="M39.6 29.7c.3 0 .6-.1.9-.3.2-.2.4-.5.4-.9 0-.7-.5-1.2-1.2-1.2s-1.2.5-1.2 1.2c0 .3.1.6.4.8s.4.4.7.4z"/><path id="Shape_249_" class="st1" d="M36.4 31.4c.3 0 .6-.1.9-.3.2-.2.4-.5.4-.9 0-.7-.5-1.2-1.2-1.2s-1.2.5-1.2 1.2c0 .3.1.6.4.8s.4.4.7.4z"/><path id="Shape_250_" class="st1" d="M25.3 42.1c.3 0 .6-.1.9-.3.2-.2.4-.5.4-.9 0-.7-.5-1.2-1.2-1.2s-1.2.5-1.2 1.2c0 .3.1.6.4.8.1.3.4.4.7.4z"/><path id="Shape_251_" class="st1" d="M46.1 25.9c.7 0 1.2-.5 1.2-1.2 0-.6-.5-1.1-1.2-1.2-.7 0-1.2.5-1.2 1.2 0 .6.5 1.2 1.2 1.2z"/><path id="Shape_252_" class="st1" d="M22.6 50c-.6 0-1.2.5-1.2 1.2s.6 1.2 1.2 1.2c.6-.1 1.1-.6 1.2-1.2 0-.7-.5-1.2-1.2-1.2z"/><path id="Shape_253_" class="st1" d="M65.8 20.7c-.7 0-1.2.5-1.2 1.2s.5 1.2 1.2 1.2c.6 0 1.2-.6 1.2-1.2s-.5-1.2-1.2-1.2z"/><path id="Shape_254_" class="st1" d="M75.5 23.5v2.1c-.4-.2-.6-.6-.6-1 0-.5.2-.9.6-1.1z"/><path id="Shape_255_" class="st1" d="M29.9 32.9c-.6 0-1.2.5-1.2 1.2 0 .6.6 1.1 1.2 1.2.7 0 1.2-.6 1.2-1.2 0-.3-.1-.6-.4-.8-.1-.3-.4-.4-.8-.4z"/><path id="Shape_256_" class="st1" d="M60.9 21.6c.6 0 1.2-.5 1.2-1.2s-.5-1.2-1.2-1.2-1.2.5-1.2 1.2.5 1.2 1.2 1.2z"/><path id="Shape_257_" class="st1" d="M69.8 23.2c0 .6.5 1.2 1.2 1.2s1.2-.5 1.2-1.2S71.7 22 71 22s-1.2.6-1.2 1.2z"/><path id="Shape_258_" class="st1" d="M22.8 46.1c0 .6.5 1.2 1.2 1.2s1.2-.5 1.2-1.2-.5-1.2-1.2-1.2-1.2.5-1.2 1.2z"/><path id="Shape_259_" class="st1" d="M42.9 27.8c.6 0 1.2-.5 1.2-1.2 0-.6-.6-1.1-1.2-1.1s-1.1.5-1.2 1.1c0 .6.5 1.2 1.2 1.2z"/><path id="Shape_260_" class="st1" d="M64.1 19.9c.7 0 1.2-.5 1.2-1.2s-.5-1.2-1.2-1.2-1.2.5-1.2 1.2c0 .6.5 1.1 1.2 1.2z"/><path id="Shape_261_" class="st1" d="M55.7 20.3c.7 0 1.2-.6 1.2-1.2s-.5-1.2-1.2-1.2c-.6 0-1.2.5-1.2 1.2.1.7.6 1.2 1.2 1.2z"/><path id="Shape_262_" class="st1" d="M49.3 24c.6 0 1.2-.5 1.2-1.2 0-.6-.5-1.2-1.2-1.1-.6 0-1.2.5-1.2 1.2 0 .5.6 1.1 1.2 1.1z"/><path id="Shape_263_" class="st1" d="M52.5 19.9c-.6 0-1.2.5-1.1 1.2 0 .6.5 1.2 1.2 1.2.6 0 1.2-.5 1.2-1.2-.1-.7-.7-1.2-1.3-1.2z"/><path id="Shape_264_" class="st1" d="M25.6 36c0 .6.5 1.2 1.1 1.2.6 0 1.2-.5 1.2-1.2s-.5-1.2-1.2-1.2c-.6 0-1.1.5-1.1 1.2z"/><path id="Shape_265_" class="st1" d="M20.6 53.1c0 .1 0 .2-.1.3h-2.2c0-.1-.1-.2-.1-.3 0-.6.5-1.1 1.2-1.1.3 0 .6.1.8.3.3.2.4.5.4.8z"/><path id="Shape_266_" class="st1" d="M73 21.3c0 .6.5 1.1 1.1 1.1.3 0 .6-.1.8-.3.2-.2.3-.5.3-.8 0-.6-.5-1.1-1.2-1.2-.4.1-.9.6-1 1.2z"/><path id="Shape_267_" class="st1" d="M20.9 42.8c0 .6.5 1.1 1.1 1.1.3 0 .6-.1.8-.3.2-.2.3-.5.3-.8 0-.6-.5-1.1-1.1-1.1s-1.1.5-1.1 1.1z"/><path id="Shape_268_" class="st1" d="M57.8 17.2c0 .6.5 1.1 1.1 1.1.3 0 .6-.1.8-.3.2-.2.3-.5.3-.8 0-.6-.5-1.1-1.1-1.1s-1.1.5-1.1 1.1z"/><path id="Shape_269_" class="st1" d="M69.2 21.2c.6 0 1.1-.5 1.1-1.1s-.5-1.1-1.1-1.1c-.6 0-1.1.5-1.1 1.2 0 .4.5.9 1.1 1z"/><path id="Shape_270_" class="st1" d="M19.6 48c0 .6.5 1.1 1.1 1.1.6 0 1.1-.5 1.1-1.1 0-.6-.5-1.1-1.1-1.1-.6 0-1 .5-1.1 1.1z"/><path id="Shape_271_" class="st1" d="M46.3 19.6c0 .6.5 1.1 1.1 1.1.6 0 1.1-.5 1.1-1.1 0-.3-.1-.6-.3-.8-.2-.2-.5-.3-.8-.3-.6 0-1.1.5-1.1 1.1z"/><path id="Shape_272_" class="st1" d="M42 23.4c0-.3-.1-.6-.3-.8-.2-.2-.5-.3-.8-.3-.6 0-1.1.5-1.1 1.1 0 .6.5 1.1 1.1 1.1.6 0 1.1-.5 1.1-1.1z"/><path id="Shape_273_" class="st1" d="M23.5 36.7c-.3 0-.6.1-.8.3-.2.2-.3.5-.3.8 0 .3.1.6.3.8.2.2.5.3.8.3.3 0 .6-.1.8-.3.2-.2.3-.5.3-.8 0-.3-.1-.6-.3-.8-.2-.3-.5-.4-.8-.3z"/><path id="Shape_274_" class="st1" d="M45.2 21.5c0-.4-.3-.8-.7-1s-.9-.1-1.2.2c-.3.3-.4.8-.2 1.2s.6.7 1 .7c.3 0 .6-.1.8-.3.3-.3.4-.5.3-.8z"/><path id="Shape_275_" class="st1" d="M35.6 27c0-.6-.5-1.1-1.1-1.1-.6 0-1.1.5-1.1 1.1 0 .6.5 1.1 1.1 1.1.3 0 .6-.1.8-.3s.3-.5.3-.8z"/><path id="Shape_276_" class="st1" d="M37.7 24.2c-.3 0-.6.1-.8.3-.2.2-.3.5-.3.8 0 .3.1.6.3.8.2.2.5.3.8.3.3 0 .6-.1.8-.3.2-.2.3-.5.3-.8 0-.3-.1-.6-.3-.8-.2-.2-.5-.3-.8-.3z"/><path id="Shape_277_" class="st1" d="M67.3 17.8c.3 0 .6-.1.8-.3.2-.2.3-.5.3-.8 0-.3-.1-.6-.3-.8-.2-.2-.5-.3-.8-.3-.3 0-.6.1-.8.3-.2.2-.3.5-.3.8 0 .3.1.6.3.8.2.3.5.4.8.3z"/><path id="Shape_278_" class="st1" d="M31.3 30c.3 0 .6-.1.8-.3.2-.2.3-.5.3-.8 0-.6-.5-1.1-1.1-1.1-.3 0-.6.1-.8.3-.2.2-.3.5-.3.8 0 .3.1.6.3.8.2.2.5.3.8.3z"/><path id="Shape_279_" class="st1" d="M18.8 45.8c.3 0 .5-.1.7-.3.2-.2.3-.5.3-.7 0-.6-.5-1-1-1.1-.6 0-1 .5-1.1 1 0 .3.1.5.3.7.3.3.5.4.8.4z"/><path id="Shape_280_" class="st1" d="M72.4 19.1c.3 0 .5-.1.7-.3.2-.2.3-.5.3-.7 0-.3-.1-.5-.3-.7s-.5-.3-.7-.3c-.6 0-1 .5-1 1 0 .6.5 1 1 1z"/><path id="Shape_281_" class="st1" d="M62.2 16.5c.5.1 1.1-.6 1-1 0-.6-.5-1-1.1-1-.6 0-1 .5-1 1 .1.6.5 1 1.1 1z"/><path id="Shape_282_" class="st1" d="M50.6 16.8c-.3 0-.5.1-.7.3-.2.2-.3.5-.3.7 0 .3.1.5.3.7s.5.3.7.3c.6 0 1-.5 1-1.1 0-.5-.5-.9-1-.9z"/><path id="Shape_283_" class="st1" d="M39.1 21.2c.5.1 1.1-.6 1-1 0-.6-.5-1.1-1.1-1.1-.6 0-1 .5-1 1 0 .3.1.6.3.8.2.2.5.3.8.3z"/><path id="Shape_284_" class="st1" d="M17.5 50.9c.3 0 .5-.1.7-.3.2-.2.3-.5.3-.7 0-.6-.5-1-1.1-1-.6 0-1 .5-1 1 .1.5.6 1 1.1 1z"/><path id="Shape_285_" class="st1" d="M34.8 22.1c-.1.5.5 1.1 1 1 .6 0 1-.5 1-1-.1-.5-.5-1-1-1-.4-.1-1.1.5-1 1z"/><path id="Shape_286_" class="st1" d="M27 30.8c0 .6.5 1 1 1 .6-.1 1-.5 1-1.1-.1-.5-.5-.9-1-1-.4.1-1 .7-1 1.1z"/><path id="Shape_287_" class="st1" d="M20.3 40.6c.4 0 .7-.2.9-.5.2-.3.2-.7 0-1-.2-.3-.5-.5-.9-.5-.6 0-1 .5-1 1.1 0 .5.5 1 1 .9z"/><path id="Shape_288_" class="st1" d="M53.8 16.9c.5 0 1-.5 1-1 0-.6-.5-1-1-1-.5.1-1 .5-1 1 .1.6.5 1 1 1z"/><path id="Shape_289_" class="st1" d="M24.9 33.8c.6 0 1-.5 1-1 0-.6-.5-1-1-1-.6 0-1 .5-1 1s.4.9 1 1z"/><path id="Shape_290_" class="st1" d="M32.6 24.8c.4 0 .8-.2.9-.6s.1-.8-.2-1.1c-.3-.3-.7-.4-1.1-.2-.4.2-.6.5-.6.9 0 .6.4 1 1 1z"/><path id="Shape_291_" class="st1" d="M43.3 18.2c0-.6-.5-1-1-1s-1 .5-1 1c0 .6.5 1 1 1s1-.4 1-1z"/><path id="Shape_292_" class="st1" d="M69.5 14.8c0 .6.5 1 1 1 .3 0 .5-.1.7-.3.2-.2.3-.4.3-.7 0-.6-.4-1-1-1-.5 0-1 .5-1 1z"/><path id="Shape_293_" class="st1" d="M44.5 16.4c0 .5.5 1 1 1 .4 0 .8-.2.9-.6.2-.4.1-.8-.2-1.1-.3-.3-.7-.4-1.1-.2s-.6.5-.6.9z"/><path id="Shape_294_" class="st1" d="M66.4 13.6c0-.5-.4-1-1-1s-1 .4-1 1 .4 1 1 1c.5-.1.9-.5 1-1z"/><path id="Shape_295_" class="st1" d="M20.7 34.5c0 .5.5.9 1 1 .5 0 .9-.5.9-1 0-.3-.1-.5-.3-.7-.2-.2-.4-.3-.7-.3-.5.1-.9.5-.9 1z"/><path id="Shape_296_" class="st1" d="M56.1 14c0 .5.5.9 1 1 .5 0 .9-.5.9-1 0-.3-.1-.5-.3-.7-.2-.2-.4-.3-.7-.3-.5.1-.9.5-.9 1z"/><path id="Shape_297_" class="st1" d="M17.1 40.6c-.3 0-.5.1-.7.2-.2.2-.3.4-.2.7 0 .2.1.5.3.6.2.2.4.3.6.2.2 0 .5-.1.6-.3s.3-.4.3-.6c0-.2-.1-.5-.3-.6-.1-.1-.4-.2-.6-.2z"/><path id="Shape_298_" class="st1" d="M14.3 52.7c.2 0 .5-.1.7-.3s.3-.4.3-.7c0-.5-.4-.9-.9-.9-.2 0-.5.1-.6.3-.2.2-.3.4-.3.6 0 .3.1.5.3.7 0 .2.3.3.5.3z"/><path id="Shape_299_" class="st1" d="M37.3 17.8c.2 0 .5-.1.6-.2s.3-.4.3-.6c0-.5-.4-.9-.9-.9-.2 0-.5.1-.7.3s-.3.4-.3.7c0 .2.1.5.3.6.2.1.4.2.7.1z"/><path id="Shape_300_" class="st1" d="M29.4 24.8c-.2 0-.5.1-.6.3-.2.2-.3.4-.2.6 0 .3.2.6.5.8s.6.1.9 0c.3-.2.4-.5.4-.8 0-.2-.1-.5-.3-.6-.3-.2-.5-.3-.7-.3z"/><path id="Shape_301_" class="st1" d="M75.5 15.3v1.8c-.5 0-.8-.4-.8-.9s.4-.9.8-.9z"/><path id="Shape_302_" class="st1" d="M34.1 17.9c-.2 0-.5.1-.6.3-.2.2-.3.4-.3.6 0 .5.4.9.9.9s.9-.4.9-.9c0-.2-.1-.5-.3-.6-.2-.2-.4-.3-.6-.3z"/><path id="Shape_303_" class="st1" d="M15.7 47.5c.2 0 .5-.1.6-.3.2-.2.2-.4.2-.7 0-.2-.1-.5-.3-.6-.2-.2-.4-.2-.7-.2-.5.1-.8.5-.8.9.1.6.5.9 1 .9z"/><path id="Shape_304_" class="st1" d="M18.4 37.3c.5 0 .9-.4.9-.9s-.4-.9-.9-.9-.9.4-.9.9.4.9.9.9z"/><path id="Shape_305_" class="st1" d="M60.3 11.2c-.2 0-.5.1-.6.3-.2.2-.2.4-.2.6 0 .2.1.5.3.6.2.2.4.3.6.2.5 0 .9-.4.9-.9-.2-.4-.6-.8-1-.8z"/><path id="Shape_306_" class="st1" d="M48.7 13.7c-.4 0-.9.5-.9.9 0 .5.4.9.9.9.5-.1.8-.4.9-.9 0-.5-.4-.9-.9-.9z"/><path id="Shape_307_" class="st1" d="M30.7 19.7c-.5 0-.8.4-.9.9 0 .5.4.9.9.9.5-.1.8-.4.9-.9 0-.5-.4-.9-.9-.9z"/><path id="Shape_308_" class="st1" d="M40.5 15.9c.5 0 .8-.4.9-.9 0-.5-.4-.9-.9-.9s-.9.4-.9.9c.1.5.5.9.9.9z"/><path id="Shape_309_" class="st1" d="M68.6 10.8c-.5 0-.8.4-.9.9 0 .3.1.7.4.8.3.2.6.2.9 0 .3-.2.4-.5.4-.8.1-.5-.3-.9-.8-.9z"/><path id="Shape_310_" class="st1" d="M11.9 53.4h-1.7c.1-.4.4-.8.9-.8.4.1.8.4.8.8z"/><path id="Shape_311_" class="st1" d="M26.2 26.7c-.5 0-.9.4-.9.9s.4.9.9.9.9-.4.9-.9c-.1-.5-.5-.9-.9-.9z"/><path id="Shape_312_" class="st1" d="M14.3 38.3c0 .5.4.8.8.9.5 0 .9-.4.9-.9s-.4-.9-.9-.9c-.4.1-.8.4-.8.9z"/><path id="Shape_313_" class="st1" d="M62.6 10.4c0 .5.4.8.8.9.2 0 .5-.1.6-.3.2-.2.2-.4.2-.6 0-.2-.1-.4-.3-.6-.2-.2-.4-.2-.6-.2-.3-.1-.7.3-.7.8z"/><path id="Shape_314_" class="st1" d="M51.1 12.7c0 .5.4.8.8.9.5 0 .8-.4.9-.9 0-.4-.4-.8-.8-.9-.5 0-.9.4-.9.9z"/><path id="Shape_315_" class="st1" d="M42.9 13.1c0 .5.4.8.8.8.5 0 .8-.4.8-.8 0-.5-.4-.8-.8-.8s-.8.4-.8.8z"/><path id="Shape_316_" class="st1" d="M12.9 43.4c0 .4.4.8.8.9.5 0 .8-.4.8-.8s-.4-.8-.8-.8c-.4-.1-.8.3-.8.7z"/><path id="Shape_317_" class="st1" d="M72.9 13c0 .4.4.8.8.8.5 0 .8-.4.8-.8 0-.5-.4-.8-.8-.8s-.7.3-.8.8z"/><path id="Shape_318_" class="st1" d="M12.4 49.2c.2 0 .4 0 .6-.2.2-.1.2-.4.2-.6 0-.2-.1-.4-.2-.5-.1-.1-.3-.2-.5-.2s-.4 0-.6.2c-.2.2-.2.4-.2.6 0 .2.1.4.2.6.1 0 .3.1.5.1z"/><path id="Shape_319_" class="st1" d="M23 28.8c-.2 0-.4 0-.5.2s-.2.3-.2.5 0 .4.2.6.3.2.5.2.4-.1.6-.2c.2-.1.2-.3.2-.6 0-.2-.1-.4-.2-.5-.3-.2-.4-.2-.6-.2z"/><path id="Shape_320_" class="st1" d="M66.7 7.7c-.2 0-.4.1-.5.2-.2.2-.2.4-.2.6 0 .4.4.8.8.7.4 0 .8-.4.7-.8 0-.2-.1-.4-.2-.6-.2-.1-.4-.1-.6-.1z"/><path id="Shape_321_" class="st1" d="M55.1 10c-.2 0-.4.1-.5.2-.1.1-.2.4-.2.6 0 .4.4.8.8.7.4 0 .8-.4.7-.8 0-.2-.1-.4-.2-.6-.1 0-.3-.1-.6-.1z"/><path id="Shape_322_" class="st1" d="M27.5 23.2c.2 0 .4 0 .6-.2.1-.1.2-.3.2-.6 0-.4-.4-.8-.8-.8s-.7.3-.7.7c0 .2.1.4.2.6s.3.4.5.3z"/><path id="Shape_323_" class="st1" d="M19.7 30.5c-.2 0-.4.1-.5.2-.2.2-.2.4-.2.5 0 .4.3.7.7.7.2 0 .4-.1.5-.2.1-.1.2-.3.2-.5s-.1-.4-.2-.5c-.1-.1-.3-.2-.5-.2z"/><path id="Shape_324_" class="st1" d="M35.4 13c-.4-.1-.7.3-.7.7 0 .3.1.6.4.7s.6.2.8 0 .4-.4.4-.7c0-.2-.1-.4-.2-.5-.4-.2-.6-.2-.7-.2z"/><path id="Shape_325_" class="st1" d="M16.5 32.5c-.4-.1-.7.4-.7.7 0 .4.3.7.7.7.4 0 .7-.3.7-.7 0-.4-.3-.7-.7-.7z"/><path id="Shape_326_" class="st1" d="M12 39.5c-.4 0-.7.4-.7.7 0 .4.3.7.7.7.4 0 .7-.3.7-.7-.1-.4-.3-.7-.7-.7z"/><path id="Shape_327_" class="st1" d="M32.2 16.3c.4 0 .7-.3.7-.7 0-.2-.1-.4-.2-.5-.1-.1-.3-.2-.5-.2-.4 0-.7.3-.7.7-.1.5.2.8.7.7z"/><path id="Shape_328_" class="st1" d="M10.5 44.5c-.3 0-.7.4-.7.7 0 .4.4.7.8.7s.7-.4.7-.7c-.1-.4-.4-.7-.8-.7z"/><path id="Shape_329_" class="st1" d="M37.9 11.8c0 .4.4.7.7.7.4 0 .7-.3.7-.7s-.3-.7-.7-.7c-.4 0-.7.3-.7.7z"/><path id="Shape_330_" class="st1" d="M46.2 11.4c0 .4.3.7.7.7.4 0 .7-.3.8-.7 0-.4-.3-.7-.7-.7-.4 0-.7.3-.8.7z"/><path id="Shape_331_" class="st1" d="M71.1 9.8c0 .4.3.7.7.7.4 0 .7-.3.8-.7-.1-.4-.4-.7-.7-.7-.4 0-.7.3-.8.7z"/><path id="Shape_332_" class="st1" d="M9.2 51c.4 0 .7-.3.7-.7 0-.4-.3-.7-.7-.7-.4 0-.7.3-.7.7 0 .4.3.7.7.7z"/><path id="Shape_333_" class="st1" d="M57.8 8.9c0 .4.3.7.7.7.4-.1.7-.3.7-.7 0-.4-.3-.7-.7-.7-.4 0-.7.3-.7.7z"/><path id="Shape_334_" class="st1" d="M69.2 6.5c0 .4.3.7.7.7.4 0 .7-.3.7-.7 0-.4-.3-.7-.7-.7-.3.1-.6.4-.7.7z"/><path id="Shape_335_" class="st1" d="M28.2 17.4c0 .4.3.7.7.7.4 0 .7-.3.7-.7 0-.4-.3-.7-.7-.7-.3 0-.6.3-.7.7z"/><path id="Shape_336_" class="st1" d="M23.6 24.4c0 .4.3.7.7.7.4 0 .7-.3.7-.7 0-.4-.3-.7-.7-.7s-.7.3-.7.7z"/><path id="Shape_337_" class="st1" d="M61 7.1c0 .4.3.7.7.7.4 0 .7-.3.7-.7s-.3-.7-.7-.7c-.3.1-.6.4-.7.7z"/><path id="Shape_338_" class="st1" d="M13.9 35.1c0-.2 0-.4-.2-.5-.1-.1-.3-.2-.5-.2-.4 0-.7.3-.7.7 0 .4.3.7.7.7.4 0 .7-.3.7-.7z"/><path id="Shape_339_" class="st1" d="M41.8 9.3c-.5 0-.7.2-.7.6 0 .4.2.6.6.6.3 0 .6-.3.6-.6.1-.3-.1-.6-.5-.6z"/><path id="Shape_340_" class="st1" d="M8.7 42.6c.4 0 .6-.2.6-.6 0-.2 0-.3-.1-.5-.1-.1-.3-.2-.5-.2-.5 0-.7.2-.7.6.1.5.3.7.7.7z"/><path id="Shape_341_" class="st1" d="M65 5.8c.2 0 .3 0 .5-.2s.2-.3.2-.5 0-.3-.2-.5c-.1-.1-.3-.2-.5-.2s-.3 0-.5.2c-.1.1-.2.3-.2.5 0 .6.2.7.7.7z"/><path id="Shape_342_" class="st1" d="M6 51.6c-.3 0-.6.3-.6.6s.3.6.6.6.6-.3.6-.6-.3-.6-.6-.6z"/><path id="Shape_343_" class="st1" d="M75 7.4c-.2 0-.3 0-.4.2-.1.1-.2.3-.2.4 0 .2.1.3.2.5.1.1.3.2.5.2s.3-.1.4-.2c.1-.1.2-.3.2-.4 0-.2-.1-.3-.2-.4-.1-.3-.3-.3-.5-.3z"/><path id="Shape_344_" class="st1" d="M7.3 47.7c.2 0 .3-.1.4-.2.1-.1.2-.3.2-.4 0-.2-.1-.3-.2-.4-.1-.1-.3-.2-.4-.2-.2 0-.3.1-.4.2s-.3.3-.2.4c0 .4.2.6.6.6z"/><path id="Shape_345_" class="st1" d="M50.2 8.9c-.2 0-.3 0-.4.2-.1.1-.2.3-.2.4 0 .3.3.6.6.6.2 0 .3-.1.4-.2.1-.1.2-.3.2-.4 0-.3-.3-.7-.6-.6z"/><path id="Shape_346_" class="st1" d="M20.5 26.3c0 .2 0 .3.2.4.1.1.3.2.4.2.2 0 .4-.1.5-.3s.1-.4 0-.6-.3-.3-.5-.3c-.4 0-.6.3-.6.6z"/><path id="Shape_347_" class="st1" d="M9.5 37c0 .2.1.3.2.4.1.1.3.2.4.2.3 0 .5-.3.5-.6s-.2-.6-.5-.6c-.2 0-.3.1-.4.2-.2.1-.2.2-.2.4z"/><path id="Shape_348_" class="st1" d="M25.7 19.9c.2 0 .4-.1.5-.3s.1-.4 0-.6c-.1-.2-.3-.3-.6-.2-.3 0-.5.3-.5.6 0 .2.1.3.2.4.1 0 .3.1.4.1z"/><path id="Shape_349_" class="st1" d="M67.6 3.3c0 .3.3.6.6.6s.6-.3.6-.6c-.1-.3-.3-.5-.6-.6-.3.1-.6.3-.6.6z"/><path id="Shape_350_" class="st1" d="M45.1 8.7c.3-.1.5-.3.5-.6s-.3-.6-.6-.5c-.3 0-.6.3-.5.6 0 .3.4.6.6.5z"/><path id="Shape_351_" class="st1" d="M5.5 43.3c-.3 0-.6.3-.6.6s.2.5.5.6c.3 0 .6-.3.6-.6s-.2-.6-.5-.6z"/><path id="Shape_352_" class="st1" d="M17.2 28.1c0 .3.3.6.6.6.2 0 .4-.1.5-.3.1-.2.1-.4 0-.6-.1-.2-.3-.3-.5-.3-.3 0-.6.3-.6.6z"/><path id="Shape_353_" class="st1" d="M53.4 7c-.3 0-.5.3-.5.6s.2.5.5.6c.2 0 .4-.1.6-.3.1-.2.1-.4 0-.6-.2-.2-.4-.3-.6-.3z"/><path id="Shape_354_" class="st1" d="M70.8 1.4c0 .3.3.6.6.6s.6-.3.6-.6-.3-.6-.6-.6c-.3.1-.5.3-.6.6z"/><path id="Shape_355_" class="st1" d="M73.1 5.2c.3 0 .5-.3.6-.6 0-.3-.2-.5-.5-.6-.3 0-.5.3-.6.5 0 .4.2.6.5.7z"/><path id="Shape_356_" class="st1" d="M14 29.9c0 .3.3.5.5.6.3 0 .5-.3.5-.5 0-.3-.2-.5-.5-.6-.2.1-.4.3-.5.5z"/><path id="Shape_357_" class="st1" d="M59.3 3.9c.1.3.3.5.6.6.3-.1.5-.3.5-.6s-.3-.5-.5-.5c-.4 0-.6.2-.6.5z"/><path id="Shape_358_" class="st1" d="M56.6 5.1c-.1.1-.4.1-.4.3 0 .1-.1.2-.1.3.1.2.3.4.5.5.2 0 .4-.2.5-.5.1-.2-.1-.4-.5-.6z"/><path id="Shape_359_" class="st1" d="M6.8 38.2c-.3 0-.5.3-.5.5 0 .3.2.5.5.5s.5-.3.5-.6c0-.1-.2-.4-.5-.4z"/><path id="Shape_360_" class="st1" d="M22.5 21.6c.3 0 .5-.1.5-.4 0-.1 0-.3-.1-.4-.1-.1-.2-.1-.4-.1-.1 0-.3 0-.3.1-.1.1-.2.2-.2.4 0 .1 0 .3.1.3s.3.2.4.1z"/><path id="Shape_361_" class="st1" d="M4.1 48.5c-.2 0-.4.1-.5.2s-.1.3 0 .5.3.2.5.2c.3 0 .5-.2.5-.5s-.2-.4-.5-.4z"/><path id="Shape_362_" class="st1" d="M33.5 11c.1 0 .3 0 .3-.1s.1-.2.1-.3c0-.1 0-.3-.1-.4-.1-.2-.2-.2-.4-.2-.1 0-.3 0-.3.1-.1.2-.1.3-.1.4 0 .3.2.5.5.5z"/><path id="Shape_363_" class="st1" d="M30.2 11.9c-.3 0-.4.2-.4.5s.2.4.5.4c.1 0 .2-.1.3-.1s.1-.2.1-.3c0-.4-.2-.5-.5-.5z"/><path id="Shape_364_" class="st1" d="M36.7 9c.3 0 .5-.1.5-.5 0-.3-.1-.4-.4-.4-.1 0-.3 0-.3.1s-.1.2-.1.3c-.1.4 0 .5.3.5z"/><path id="Shape_365_" class="st1" d="M11.4 31.4c-.3 0-.4.1-.4.4 0 .3.1.5.4.5.3 0 .5-.1.5-.5-.1-.3-.2-.4-.5-.4z"/><path id="Shape_366_" class="st1" d="M62.6 2c0 .1 0 .2.1.3s.2.1.3.1c.2 0 .4-.2.4-.4s-.2-.4-.4-.4c-.1 0-.2 0-.3.1-.1.1-.1.2-.1.3z"/><path id="Shape_367_" class="st1" d="M47.8 6.2c0 .3.1.4.5.4.2 0 .4-.2.4-.4s-.2-.4-.4-.4c-.1 0-.3 0-.3.1-.1.1-.2.2-.2.3z"/><path id="Shape_368_" class="st1" d="M27 13.7c-.1 0-.2 0-.3.1-.1.1-.1.2-.1.3 0 .1 0 .2.1.3s.2.1.3.1c.1 0 .2 0 .3-.1s.1-.2.1-.3c0-.1 0-.2-.1-.3 0-.1-.2-.1-.3-.1z"/><path id="Shape_369_" class="st1" d="M19.3 22.6c-.2 0-.4.2-.4.4s.2.4.4.4.4-.2.4-.4-.2-.4-.4-.4z"/><path id="Shape_370_" class="st1" d="M7.7 33.8c0 .1 0 .2.1.3s.2.1.3.1c.2 0 .4-.2.4-.4s-.2-.4-.4-.4c-.1 0-.2 0-.3.1 0 0-.1.2-.1.3z"/><path id="Shape_371_" class="st1" d="M39.9 7.1c.2 0 .4-.2.4-.4s-.2-.4-.5-.4c-.1 0-.2 0-.3.1-.1.1-.1.2-.1.3 0 .1 0 .2.1.3.2.1.3.1.4.1z"/><path id="Shape_372_" class="st1" d="M23.8 16.5c.2 0 .4-.2.4-.4s-.2-.4-.4-.4-.4.2-.4.4.2.3.4.4z"/><path id="Shape_373_" class="st1" d="M57.9 1.1c.2 0 .4-.2.4-.4s-.2-.4-.4-.4-.4.2-.4.4c.1.2.2.4.4.4z"/><path id="Shape_374_" class="st1" d="M16 24.4c-.2.1-.4.2-.4.5.1.2.2.3.4.3s.3-.2.4-.3c.1-.2 0-.3-.4-.5z"/><path id="Shape_375_" class="st1" d="M51.1 4.4c.1.2.2.4.4.4s.4-.2.4-.4-.3-.4-.4-.4c-.2 0-.4.2-.4.4z"/><path id="Shape_376_" class="st1" d="M13.1 26.4h-.5c-.1.2-.1.4 0 .6h.5c.1-.1.1-.4 0-.6z"/><path id="Shape_377_" class="st1" d="M20.3 18.2c.2 0 .4.1.5-.1.1-.1.1-.3 0-.4-.1-.2-.3-.1-.5-.1-.1.2-.1.5 0 .6z"/><path id="Shape_378_" class="st1" d="M42.8 4.9c0 .2.1.3.3.3.2 0 .3-.1.3-.3 0-.2-.1-.3-.3-.3s-.3.1-.3.3z"/><path id="Shape_379_" class="st1" d="M9.3 28.3v.6h.5c.1-.2.1-.4 0-.5-.1-.1-.2 0-.5-.1z"/><path id="Shape_380_" class="st1" d="M3.3 40.7c0 .2.1.3.3.3.1 0 .2 0 .2-.1.1-.1.1-.1.1-.2s0-.2-.1-.2c-.1-.1-.1-.1-.2-.1s-.2 0-.2.1c-.1 0-.1.1-.1.2z"/><path id="Shape_381_" class="st1" d="M2 45.8c0 .2.1.3.3.3.1 0 .2 0 .2-.1.1-.1.1-.1.1-.2s0-.2-.1-.2c-.1-.1-.1-.1-.2-.1-.2 0-.3.1-.3.3z"/><path id="Shape_382_" class="st1" d="M.8 51.2c.1 0 .2 0 .2-.1.1-.1.1-.1.1-.2s0-.2-.1-.2c-.1-.1-.2-.1-.2-.1-.1 0-.2 0-.2.1-.1.1-.1.1-.1.2s0 .2.1.2c.1.1.2.1.2.1z"/><path id="Shape_383_" class="st1" d="M46.5 3.3c0-.1.2-.2.2-.3 0-.1-.1-.2-.3-.2-.1 0-.3.2-.3.3 0 .1.2.2.4.2z"/><path id="Shape_384_" class="st1" d="M54.4 2.4c0 .1.1.3.3.3.1 0 .2 0 .2-.1.1 0 .1-.1.1-.2 0-.2-.1-.3-.3-.3-.1.1-.3.2-.3.3z"/><path id="Shape_385_" class="st1" d="M17.4 19.6c-.3.2-.3.2 0 .5.3-.2.3-.3 0-.5z"/></g><path id="Shape_386_" class="st2" d="M202.1 10.4v45c0 1-.3 2-.6 2.9-.3.8-.7 1.5-1.2 2.1-.5.7-1.2 1.3-1.9 1.8s-1.6 1-2.4 1.3c-.6.2-1.3.4-1.9.4-.3 0-.7.1-1 .1H76.7c-5 0-9.1-4.1-9.1-9.1V10.4c0-5 4.1-9.1 9.1-9.1H193c5 0 9.1 4 9.1 9.1z"/><path id="Shape_387_" class="st4" d="M95.8 25.9l-.5-.3c1.6-.5 2.5-2.2 2.1-3.8-.1-.5-.3-1-.7-1.4-.2-.2-.5-.4-.8-.6-.6-.4-1.3-.7-2-1 0-.1 0-.2.1-.3.2-.8.4-1.6.6-2.3 0-.2 0-.3-.2-.3-.4-.1-.9-.2-1.3-.3-.2-.1-.3 0-.4.2-.2.8-.4 1.5-.6 2.3 0 .1-.2.2-.2.2l-1.2-.3c0-.1 0-.2.1-.3.2-.7.4-1.5.6-2.2.1-.2 0-.3-.2-.4-.4-.1-.9-.2-1.3-.3-.2-.1-.3 0-.3.2-.1.6-.3 1.2-.4 1.8-.1.3-.1.6-.2.9l-.3-.1c-1-.2-2-.5-2.9-.7-.3-.1-.4 0-.4.2-.1.5-.2.9-.3 1.4-.1.2 0 .4.3.4.4.1.7.2 1.1.3.3 0 .5.2.6.4.1.2.1.5 0 .7v.2c-.3 1.3-.7 2.7-1 4-.3 1.1-.6 2.2-.8 3.3 0 .2-.1.4-.3.5-.2.1-.4.1-.6 0-.3-.1-.7-.2-1-.2-.1 0-.2 0-.3.1-.3.6-.6 1.3-.9 2l3.6.9c0 .1 0 .3-.1.4-.2.8-.4 1.5-.6 2.3-.1.2 0 .3.2.3s.6.1.8.2c.8.2.8.2.9-.6s.4-1.4.5-2.2l1.3.3c0 .2-.1.3-.1.4-.2.7-.4 1.5-.5 2.2-.1.2 0 .4.3.4l1.2.3c.3.1.4 0 .4-.3.2-.8.4-1.6.6-2.3 0-.2.2-.3.4-.3.8.1 1.7.1 2.5.1 1.1 0 2.2-.5 2.8-1.4.4-.6.7-1.4.9-2.1 0-1-.5-2.2-1.5-2.9zm-2.6 2.8c-.2.6-.8 1.1-1.4 1.1-1.1.1-2.2 0-3.3-.3l-.7-.2.3-1.2.6-2.4c0-.1.2-.2.2-.2 1.1.2 2.3.6 3.3 1.1.1.1.3.2.4.3.7.5.9 1.2.6 1.8zm.6-5.7c-.2.6-.8 1-1.5 1-1 0-1.9-.1-2.8-.4-.1 0-.1-.1-.1-.2.2-1 .5-2 .8-3.1 0-.1 0-.2.1-.3l1 .3c.5.2 1 .3 1.4.5.3.1.5.3.7.5.4.4.6 1.1.4 1.7z"/><path id="Shape_388_" class="st5" d="M166.6 39.1c0-.4-.3-.7-.7-.7-1.6 0-3.3-.2-4.9-.4-1.6-.1-3.2-.1-4.7.2-1.1.2-2.3.3-3.4.4-1.4 0-2.8-.1-4.1-.3-1.4-.2-2.8-.4-4.2-.4-.2 0-.4.1-.5.2s-.2.3-.2.6c0 .4.3.7.7.7 1.3 0 2.7.2 4 .4 1.2.2 2.5.3 3.8.4h.7c1.2-.1 2.4-.2 3.5-.4 1.4-.3 2.8-.4 4.2-.2 1.7.2 3.4.4 5.1.4.2 0 .4-.1.6-.2 0-.2.1-.5.1-.7z"/><path id="Shape_389_" class="st5" d="M176 38.8l-.5-.4c-1.5 0-2.8.1-3.4.1h-1.6c-.2 0-.4.1-.5.2-.1.2-.2.4-.2.6 0 .4.3.7.7.7.7 0 1.3 0 1.7-.1.6-.1 1.9-.1 3.3-.1h.6c0-.3-.1-.7-.1-1z"/><path id="Shape_390_" class="st5" d="M190.1 48.5c-.1-.4-.7-.7-1.4-.7-3.6-.1-7.6-.2-9.9-.4-3.2-.1-6.4-.1-9.6.2-2.3.2-4.6.3-6.9.4-2.8.1-5.6-.1-8.4-.3-2.6-.2-5.4-.4-8.4-.4-.9 0-1.6.3-1.5.8 0 .4.7.7 1.5.7 2.9 0 5.5.2 8 .4s5 .4 7.6.4h1.3c2.5-.1 4.9-.2 7.2-.4 2.9-.3 5.8-.3 8.6-.2 2.5.2 6.6.3 10.3.4.9-.1 1.6-.4 1.6-.9z"/></g><g id="Page-1" transform="translate(115.655 171.241)"><defs><filter id="Adobe_OpacityMaskFilter" filterUnits="userSpaceOnUse" x="0" y="0" width="51.1" height="37.7"><feColorMatrix values="1 0 0 0 0 0 1 0 0 0 0 0 1 0 0 0 0 0 1 0"/></filter></defs><mask maskUnits="userSpaceOnUse" x="0" y="0" width="51.1" height="37.7" id="mask-2"><g class="st6"><path id="path-1" class="st4" d="M0 0h51.1v37.7H0z"/></g></mask><path id="Fill-1" class="st7" d="M51.1 34.8c0 .3-.1.5-.2.7-.3.7-.8 1.1-1.6 1.3-.3.2-.8.2-1.4.3h-.4c-.9.1-1.6.1-2.1-.1-.7-.2-1.6 0-2.4.1-.4.1-.8.1-1.1.1-.3 0-.5 0-.8-.1-.6-.1-1.2-.2-2.3 0-1.3.2-2.7 0-3.9-.2-.4-.1-.7-.1-1-.1H33c-.2 0-.3.1-.4.1-.3.1-.6.2-1.2.2h-1.1c-.3 0-.6 0-1.1.1-.9.2-2.7.1-3.9 0h-2.8c-.6 0-1.4.1-2 .2-.3 0-.5.1-.7.1-.3 0-.9 0-1.6-.1-.7-.1-1.6-.2-1.9-.1-.5.1-1.5.1-2.4.2-.6 0-1.1 0-1.3.1-.7.1-2.7 0-3.5-.2-.4-.1-1 0-1.7.1-.5.1-.9.1-1.4.2h-.3c-.5 0-1-.1-1.5-.2-.6-.1-1.2-.2-1.9-.2v-.4H2c-.2 0-.3 0-.5-.1-.4-.1-.8-.4-1-.8-.5-.8-.4-1.9 0-2.3l.1-.1c.2-.3.5-.5.9-.7l.6-.3c.1-.1.3-.2.4-.3.8-.7 2.4-1.6 4.1-2.1.7-.2 1.6-.6 2.4-1l.6-.3c.6-.3 1-.6 1.4-.9.6-.4 1.2-.8 1.9-1.2.6-.3 1.2-.7 1.9-1.2.8-.5 1.8-1 2.6-1.4.9-.5 1.5-.8 1.8-1 .2-.1.4-.3.7-.6.7-.6 1.6-1.4 2.5-1.7.7-.3 1.4-1 2-1.5l.7-.7c.2-.2.4-.3.7-.4.5-.3 1.1-.6 1.8-1.4.6-.7 1.5-1.3 2-1.6.3-.2.7-.5 1-.7l.9-.6c.1 0 .1-.1.2-.1l.4-.4.1-.1c.1-.1.2-.2.3-.4.2-.3.3-.5.7-.9.3-.4.6-.6.8-.7.3-.2.5-.4.8-.9.4-.6 1.6-1.7 2.4-2.5l.7-.7c.2-.2.3-.4.6-.7.3-.3.5-.7.8-1 .5-.6 1.1-1.7 1.4-2.3.1-.2.4-.5.7-.8l.5-.5.6-.6c.1-.4.3-.7.5-.8.1-.1.4-.4.9-.5.4-.1.9-.1 1.4 0 .4.1.8.4 1.2.7.2.2.4.5.5.8.1.2.2.7.2.8 0 .3.1.6.1.9.1.7.1 1.4.1 1.8 0 .4.1 1 .3 1.6.1.4.3.9.4 1.4.1.6.1 1.2.1 1.8 0 .6 0 1.2.1 1.8l-.4.1c.3.6.5 3.4.5 4.3v.4l.2 1.6c0 .1.1.3.1.4.4 1 .8 2.7.7 4.5 0 .8 0 1.7.1 2.6v.1c0 .2 0 .4.1.6v.1c.1.7.2 1.3.3 1.7.2.8.3 1.6.5 2.7.1.5.2 1.1.3 1.7.3.5.3 1 .4 1.5v.8"/></g></g></g></g><linearGradient id="SVGID_1_" gradientUnits="userSpaceOnUse" x1="123.379" y1="88.436" x2="124.195" y2="149.054"><stop offset="0" stop-color="#fff"/><stop offset="1" stop-color="#3788c6"/></linearGradient><path class="st8" d="M23 86.7l58.9 62.5.8-18.1c.2-4.5 3.9-8 8.3-8l53.4-.3c4.5 0 8.2 3.4 8.6 7.9l1.4 18.5 69.3-62.8c0 .1-199.7 1.7-200.7.3z"/></svg>