<?xml version="1.0" encoding="utf-8"?>
<!-- Generator: Adobe Illustrator 21.0.0, SVG Export Plug-In . SVG Version: 6.00 Build 0)  -->
<svg version="1.1" id="图层_1" xmlns="http://www.w3.org/2000/svg" xmlns:xlink="http://www.w3.org/1999/xlink" x="0px" y="0px"
	 viewBox="0 0 48 50" style="enable-background:new 0 0 48 50;" xml:space="preserve">
<style type="text/css">
	.st0{fill:#FFFFFF;}
</style>
<title>logo_white</title>
<desc>Created with Sketch.</desc>
<g>
	<path class="st0" d="M29.7,48c-1,0-2-0.7-2.3-1.8c-0.3-1.3,0.4-2.5,1.7-2.9c8.4-2.2,14.2-9.8,14.2-18.5c0-8.7-5.8-16.2-14.2-18.5
		c-1.3-0.3-2-1.6-1.7-2.9c0.3-1.3,1.6-2,2.9-1.7C40.7,4.7,48,14.1,48,24.9c0,10.8-7.3,20.3-17.7,23C30.1,48,29.9,48,29.7,48z"/>
	<path class="st0" d="M18.7,48c-0.2,0-0.4,0-0.6-0.1C7.7,45.2,0.4,35.7,0.4,24.9c0-10.8,7.3-20.3,17.7-23c1.3-0.3,2.5,0.4,2.9,1.7
		s-0.4,2.5-1.7,2.9C11,8.7,5.1,16.2,5.1,24.9c0,8.7,5.8,16.2,14.2,18.5c1.3,0.3,2,1.6,1.7,2.9C20.7,47.3,19.8,48,18.7,48z"/>
	<path class="st0" d="M24.3,39.5c-8.1,0-14.6-6.6-14.6-14.6s6.6-14.6,14.6-14.6c4.7,0,9.2,2.3,11.9,6.1c0.7,0.9,0.5,2.2-0.5,2.9
		c-0.9,0.7-2.2,0.5-2.9-0.5c-2-2.7-5.1-4.4-8.5-4.4c-5.7,0-10.4,4.7-10.4,10.4s4.7,10.4,10.4,10.4c3.3,0,6.4-1.5,8.4-4.2
		c0.7-0.9,2-1.1,2.9-0.4c0.9,0.7,1.1,2,0.4,2.9C33.3,37.3,28.9,39.5,24.3,39.5z"/>
	<path class="st0" d="M10.5,27.3H2.1c-0.9,0-1.6-1.1-1.6-2.4s0.7-2.4,1.6-2.4h8.5c0.9,0,1.6,1.1,1.6,2.4S11.4,27.3,10.5,27.3z"/>
	<path class="st0" d="M46.4,27.3h-8.5c-0.9,0-1.6-1.1-1.6-2.4s0.7-2.4,1.6-2.4h8.5c0.9,0,1.6,1.1,1.6,2.4S47.3,27.3,46.4,27.3z"/>
</g>
</svg>
