<?xml version="1.0" encoding="utf-8"?>
<!-- Generator: Adobe Illustrator 22.0.0, SVG Export Plug-In . SVG Version: 6.00 Build 0)  -->
<svg version="1.1" id="图层_1" xmlns="http://www.w3.org/2000/svg" xmlns:xlink="http://www.w3.org/1999/xlink" x="0px" y="0px"
	 viewBox="0 0 38 36" style="enable-background:new 0 0 38 36;" xml:space="preserve">
<style type="text/css">
	.st0{fill:#95AABF;}
	.st1{fill:#157AF9;}
	.st2{fill:#1C3C55;}
</style>
<title>visibility</title>
<desc>Created with Sketch.</desc>
<g id="Symbols">
	<g id="Get-some-free-visibility.icon" transform="translate(-11.000000, -12.000000)">
		<g id="visibility" transform="translate(11.000000, 12.000000)">
			<g id="Group-3" transform="translate(0.000000, 7.000000)">
				<path id="Path" class="st0" d="M19,18.6c4.2,0,7.6-3.4,7.6-7.6c0-4.2-3.4-7.6-7.6-7.6c-4.2,0-7.6,3.4-7.6,7.6S14.8,18.6,19,18.6
					z M19,19.6c-4.7,0-8.6-3.8-8.6-8.6s3.8-8.6,8.6-8.6c4.7,0,8.6,3.8,8.6,8.6C27.6,15.7,23.7,19.6,19,19.6z"/>
				<path id="Oval" class="st1" d="M19.5,11.5v4.9l-0.5,0c-0.4,0-0.7,0-0.9,0c-2.7-0.4-4.6-2.7-4.6-5.4c0-3,2.5-5.5,5.5-5.5
					c2.9,0,5.3,2.2,5.5,5.1c0,0.1,0,0.2,0,0.4l0,0.5H19.5z M18.5,10.5h5c-0.2-2.3-2.2-4-4.5-4c-2.5,0-4.5,2-4.5,4.5
					c0,2.2,1.6,4.1,3.8,4.4c0.1,0,0.1,0,0.2,0V10.5z"/>
				<path id="Path_1_" class="st0" d="M20.8,1c1.2,0.2,2.5,0.5,3.9,1c3.9,1.4,8,4,12.1,8.1c0.5,0.5,0.5,1.3,0,1.8
					c-3.9,3.9-7.8,6.5-11.6,7.9c-2.5,1-4.6,1.3-6.1,1.3h-0.3c-1.5,0-3.6-0.4-6.1-1.3c-3.8-1.5-7.7-4-11.6-7.9
					c-0.5-0.5-0.5-1.3,0-1.8C5.2,6,9.3,3.4,13.3,2c1.4-0.5,2.7-0.8,3.9-1C18,0.8,18.6,0.8,19,0.8C19.4,0.8,20,0.8,20.8,1z M19,1.8
					c-0.4,0-1,0-1.7,0.1c-1.1,0.2-2.4,0.5-3.7,1C9.8,4.3,5.8,6.8,1.9,10.8c-0.1,0.1-0.1,0.3,0,0.4c3.8,3.8,7.6,6.3,11.2,7.7
					c2.4,0.9,4.3,1.3,5.7,1.3h0.3c1.4,0,3.3-0.3,5.7-1.3c3.6-1.4,7.4-3.9,11.2-7.7c0.1-0.1,0.1-0.3,0-0.4c-4-4-8-6.5-11.7-7.9
					c-1.4-0.5-2.6-0.8-3.7-1C19.9,1.8,19.4,1.8,19,1.8z"/>
			</g>
			<g id="Group-2" transform="translate(2.000000, 0.000000)">
				<path id="Path-2" class="st2" d="M0.5,6h-1V3c0-1.4,1.1-2.5,2.5-2.5h3.1v1H2C1.2,1.5,0.5,2.2,0.5,3V6z"/>
				<path id="Path-2-Copy" class="st2" d="M33.1,6h1V3c0-1.4-1.1-2.5-2.5-2.5H20v1h11.6c0.8,0,1.5,0.7,1.5,1.5V6z"/>
				<polygon id="Path-3" class="st2" points="17,0.5 17,1.5 12.4,1.5 12.4,0.5 				"/>
			</g>
			
				<g id="Group" transform="translate(19.500000, 33.000000) scale(-1, -1) translate(-19.500000, -33.000000) translate(2.000000, 30.000000)">
				<path id="Path-2_1_" class="st2" d="M0.5,6h-1V3c0-1.4,1.1-2.5,2.5-2.5h3.1v1H2C1.2,1.5,0.5,2.2,0.5,3V6z"/>
				<path id="Path-2-Copy_1_" class="st2" d="M33.1,6h1V3c0-1.4-1.1-2.5-2.5-2.5H20v1h11.6c0.8,0,1.5,0.7,1.5,1.5V6z"/>
				<polygon id="Path-3_1_" class="st2" points="17,0.5 17,1.5 12.4,1.5 12.4,0.5 				"/>
			</g>
		</g>
	</g>
</g>
</svg>
