<?xml version="1.0" encoding="utf-8"?>
<!-- Generator: Adobe Illustrator 22.0.0, SVG Export Plug-In . SVG Version: 6.00 Build 0)  -->
<svg version="1.1" id="图层_1" xmlns="http://www.w3.org/2000/svg" xmlns:xlink="http://www.w3.org/1999/xlink" x="0px" y="0px"
	 viewBox="0 0 38 37" style="enable-background:new 0 0 38 37;" xml:space="preserve">
<style type="text/css">
	.st0{fill:none;stroke:#95AABF;stroke-width:0.9;}
	.st1{fill:#FFFFFF;stroke:#1C3C55;}
	.st2{fill:#157AF9;}
</style>
<title>Group 2</title>
<desc>Created with Sketch.</desc>
<g id="Symbols">
	<g id="You-can-be-your-own-financial-system.icon" transform="translate(-11.000000, -12.000000)">
		<g id="Group-2" transform="translate(12.000000, 13.000000)">
			<g id="documentation-icon-copy" transform="translate(18.064516, 0.000000)">
				<g id="file">
					<path id="Path" class="st0" d="M17.1,7h-1.7c-0.3,0-0.5-0.1-0.6-0.4c-0.1-0.3-0.1-0.5,0.1-0.7l1.2-1.2c0.2-0.2,0.3-0.4,0.3-0.7
						c0-0.2-0.1-0.5-0.3-0.7l-1.5-1.5c-0.4-0.4-1-0.4-1.3,0l-1.2,1.2c-0.2,0.2-0.5,0.2-0.7,0.1C11.2,3.1,11,2.9,11,2.6V0.9
						C11,0.4,10.6,0,10.1,0H8C7.4,0,7,0.4,7,0.9v1.7c0,0.3-0.1,0.5-0.4,0.6C6.4,3.3,6.1,3.3,5.9,3.1L4.7,1.9c-0.4-0.4-1-0.4-1.3,0
						L1.9,3.4C1.7,3.6,1.6,3.8,1.6,4.1c0,0.2,0.1,0.5,0.3,0.7l1.2,1.2c0.2,0.2,0.2,0.5,0.1,0.7S2.9,7,2.6,7H0.9C0.4,7,0,7.4,0,8v2.2
						C0,10.6,0.4,11,0.9,11h1.7c0.3,0,0.5,0.1,0.6,0.4c0.1,0.3,0.1,0.5-0.1,0.7l-1.2,1.2c-0.2,0.2-0.3,0.4-0.3,0.7
						c0,0.2,0.1,0.5,0.3,0.7l1.5,1.5c0.4,0.4,1,0.4,1.3,0L5.9,15c0.2-0.2,0.5-0.2,0.7-0.1C6.9,14.9,7,15.2,7,15.4v1.7
						c0,0.5,0.4,0.9,0.9,0.9h2.2c0.5,0,0.9-0.4,0.9-0.9v-1.7c0-0.3,0.1-0.5,0.4-0.6c0.3-0.1,0.5-0.1,0.7,0.1l1.2,1.2
						c0.4,0.4,1,0.4,1.3,0l1.5-1.5c0.2-0.2,0.3-0.4,0.3-0.7c0-0.2-0.1-0.5-0.3-0.7L15,12.1c-0.2-0.2-0.2-0.5-0.1-0.7
						c0.1-0.3,0.3-0.4,0.6-0.4h1.7c0.5,0,0.9-0.4,0.9-0.9V8C18.1,7.4,17.6,7,17.1,7z"/>
					<path id="Path_1_" class="st0" d="M9,12.6C7,12.6,5.4,11,5.4,9S7,5.4,9,5.4S12.6,7,12.6,9S11,12.6,9,12.6z"/>
				</g>
			</g>
			<path id="Path_2_" class="st1" d="M28.7,25.3c0.5,0.3,0.7,0.8,0.7,1.5v2.5L0,29.4v-2.6c0-0.6,0.2-1,0.6-1.3
				c0.3-0.2,0.5-0.3,0.6-0.4l8.9-4.2c0.2-0.1,0.4-0.3,0.5-0.5c0.2-0.2,0.3-0.5,0.3-0.7c0-0.3,0-0.5-0.1-0.7
				c-0.1-0.2-0.2-0.4-0.4-0.6c-1.1-0.9-2-2.2-2.5-3.8c-0.5-1.6-0.8-2.9-0.8-4v-5c0-0.7,0.2-1.3,0.7-2c0.4-0.6,1-1.2,1.7-1.8
				c0.7-0.5,1.5-1,2.4-1.3C12.8,0.2,13.8,0,14.7,0c0.9,0,1.8,0.2,2.7,0.5c0.9,0.3,1.7,0.8,2.4,1.3c0.7,0.5,1.3,1.1,1.7,1.7
				c0.5,0.7,0.7,1.4,0.7,2v5c0,1-0.2,2.3-0.7,3.9c-0.5,1.7-1.3,2.9-2.5,3.9c-0.2,0.1-0.3,0.3-0.4,0.6c-0.1,0.2-0.1,0.5-0.1,0.7
				c0,0.3,0.1,0.5,0.3,0.7c0.2,0.2,0.3,0.4,0.6,0.5l8.7,4.1C28.2,25,28.3,25.1,28.7,25.3z"/>
			<g id="Group" transform="translate(14.677419, 13.548387)">
				<path id="path3094" class="st1" d="M21.1,13.3c-1.4,5.7-7.3,9.2-13,7.8c-5.7-1.4-9.2-7.3-7.8-13c1.4-5.7,7.3-9.2,13-7.8
					C19.1,1.8,22.6,7.6,21.1,13.3z"/>
			</g>
		</g>
	</g>
</g>
<g>
	<path class="st2" d="M27.8,31.9c-0.3,0-0.5-0.2-0.6-0.5c-0.1-0.3,0.1-0.6,0.4-0.8c2.2-0.6,3.7-2.5,3.7-4.8s-1.5-4.2-3.7-4.8
		c-0.3-0.1-0.5-0.4-0.4-0.8c0.1-0.3,0.4-0.5,0.8-0.4c2.7,0.8,4.6,3.2,4.6,6s-1.9,5.3-4.6,6C27.9,31.9,27.9,31.9,27.8,31.9z"/>
	<path class="st2" d="M25,31.9c-0.1,0-0.1,0-0.2,0c-2.7-0.7-4.6-3.2-4.6-6s1.9-5.3,4.6-6c0.3-0.1,0.6,0.1,0.8,0.4
		c0.1,0.3-0.1,0.6-0.4,0.8c-2.2,0.6-3.7,2.5-3.7,4.8s1.5,4.2,3.7,4.8c0.3,0.1,0.5,0.4,0.4,0.8C25.5,31.7,25.3,31.9,25,31.9z"/>
	<path class="st2" d="M26.4,29.7c-2.1,0-3.8-1.7-3.8-3.8s1.7-3.8,3.8-3.8c1.2,0,2.4,0.6,3.1,1.6c0.2,0.2,0.1,0.6-0.1,0.8
		c-0.2,0.2-0.6,0.1-0.8-0.1c-0.5-0.7-1.3-1.1-2.2-1.1c-1.5,0-2.7,1.2-2.7,2.7s1.2,2.7,2.7,2.7c0.9,0,1.7-0.4,2.2-1.1
		c0.2-0.2,0.5-0.3,0.8-0.1s0.3,0.5,0.1,0.8C28.8,29.1,27.6,29.7,26.4,29.7z"/>
	<path class="st2" d="M22.8,26.5h-2.2c-0.2,0-0.4-0.3-0.4-0.6c0-0.3,0.2-0.6,0.4-0.6h2.2c0.2,0,0.4,0.3,0.4,0.6
		C23.3,26.2,23.1,26.5,22.8,26.5z"/>
	<path class="st2" d="M32.2,26.5H30c-0.2,0-0.4-0.3-0.4-0.6c0-0.3,0.2-0.6,0.4-0.6h2.2c0.2,0,0.4,0.3,0.4,0.6
		C32.6,26.2,32.4,26.5,32.2,26.5z"/>
</g>
</svg>
