<?xml version="1.0" encoding="utf-8"?>
<!-- Generator: Adobe Illustrator 22.0.0, SVG Export Plug-In . SVG Version: 6.00 Build 0)  -->
<svg version="1.1" id="图层_1" xmlns="http://www.w3.org/2000/svg" xmlns:xlink="http://www.w3.org/1999/xlink" x="0px" y="0px"
	 viewBox="0 0 32 39" style="enable-background:new 0 0 32 39;" xml:space="preserve">
<style type="text/css">
	.st0{fill:none;}
	.st1{fill:#157AF9;}
	.st2{fill:#1C3C55;}
	.st3{fill:#C9D4DE;}
</style>
<title>Control against fraud ICON</title>
<desc>Created with Sketch.</desc>
<g id="Innovation">
	<g id="_x32_2.01.18-Bitcoin.org_x5F_Innovation_x5F_Desktop-1200px--" transform="translate(-384.000000, -738.000000)">
		<g id="_x2F__x2F_contenct" transform="translate(215.000000, 697.000000)">
			<g id="box1">
				<g id="Control-against-fraud-ICON" transform="translate(155.000000, 30.000000)">
					<g>
						<rect id="Rectangle-2" class="st0" width="60" height="60"/>
						<g id="firewall-shield" transform="translate(14.000000, 11.000000)">
							<path id="Shape" class="st1" d="M16,38.7l-0.2,0C6.5,36.5,0,28.3,0,18.8V5.5l0.6,0c5.4-0.2,10.6-2,15-5.2L16,0l0.4,0.3
								c4.4,3.2,9.5,4.9,15,5.2l0.6,0v13.3c0,9.5-6.5,17.7-15.8,19.9L16,38.7z M1.1,6.3v12.5c0,8.9,6.3,16.9,14.9,19
								c8.6-2.1,15-10.2,15-19V6.5c-5.3-0.4-10.6-2.3-15-5.4C11.7,4.2,6.4,6,1.1,6.3z"/>
							<path id="Shape_1_" class="st2" d="M16,33.7l-0.2,0C9,32,4.2,26,4.2,18.9V9.1l0.4,0c4-0.2,7.8-1.5,11.1-3.9L16,5.1l0.3,0.2
								c3.2,2.3,7.1,3.7,11.1,3.9l0.4,0v9.8c0,7-4.8,13.1-11.7,14.7L16,33.7z M5.1,10v9c0,6.6,4.5,12.3,10.9,13.8
								c6.4-1.6,10.9-7.2,10.9-13.8v-9C23,9.7,19.2,8.4,16,6.2C12.8,8.4,9,9.7,5.1,10z"/>
							<path id="Shape_2_" class="st3" d="M19.1,18v-1.6c0-1.6-1.4-2.9-3-2.9h-0.2c-1.7,0-3,1.3-3,2.9V18h-1.1v7.2h8.4V18H19.1z
								 M14.1,16.4c0-1,0.8-1.8,1.9-1.8h0.2c1,0,1.9,0.8,1.9,1.8V18h-3.9V16.4z"/>
						</g>
					</g>
				</g>
			</g>
		</g>
	</g>
</g>
</svg>
