<?xml version="1.0" encoding="utf-8"?>
<!-- Generator: Adobe Illustrator 22.0.0, SVG Export Plug-In . SVG Version: 6.00 Build 0)  -->
<svg version="1.1" id="图层_1" xmlns="http://www.w3.org/2000/svg" xmlns:xlink="http://www.w3.org/1999/xlink" x="0px" y="0px"
	 viewBox="0 0 46 46" style="enable-background:new 0 0 46 46;" xml:space="preserve">
<style type="text/css">
	.st0{opacity:0.5;fill:#95AABF;enable-background:new    ;}
	.st1{fill:none;stroke:#186DF1;}
</style>
<title>icon</title>
<desc>Created with Sketch.</desc>
<g id="Template-4--For-Individuals">
	
		<g id="_x32_2.01.18-Bitcoin.org_x5F_Bitcoin-for-individuals_x5F_Desktop-1200px--" transform="translate(-377.000000, -1135.000000)">
		<g id="_x2F__x2F_contenct" transform="translate(215.000000, 555.000000)">
			<g id="box1" transform="translate(0.000000, 530.000000)">
				<g id="icon" transform="translate(155.000000, 41.000000)">
					<g id="icon_x2F_world">
						<g id="Group-2">
							<g transform="translate(8.000000, 10.000000)">
								<path id="ion-android-globe---Ionicons" class="st0" d="M22,0c6.1,0,11.2,2.2,15.5,6.5S44,15.9,44,22s-2.2,11.2-6.5,15.5
									S28.1,44,22,44s-11.2-2.2-15.5-6.5S0,28.1,0,22S2.2,10.8,6.5,6.5S15.9,0,22,0z M16.2,44l1.1-2.8c0.1-0.3,0.2-0.7,0.2-1.1
									c0-0.4-0.2-0.7-0.5-1.1c-1.1-1.2-1.9-2.1-2.4-2.7c-0.1-0.2-0.3-0.7-0.6-1.5s-0.4-1.3-0.3-1.5c0.3-0.8,0.6-1.8,0.8-3.1
									c0.2-1-0.2-2-1.4-2.8c-0.5-0.3-1-0.8-1.5-1.3c-0.5-0.5-1-1.1-1.6-1.7c-0.6-0.6-1.1-1.1-1.4-1.4c-1.2-1.1-1.9-1.9-2.1-2.4
									c-0.6-2.2-1-3.4-1-3.6c-0.6-1.1-1-2.3-1.1-3.5s-0.1-2.5,0.1-3.9c0-0.6,0.1-0.1,0-1.6C1.7,12.2,0,15.6,0,21.4
									c0,6.3,1.8,11.7,5.4,16.1C8.4,41.1,12,43.3,16.2,44z M36.4,37.9c2.7-2.9,4.5-6.4,5.4-10.3l-2.2-0.3c-1.6-2-2.5-3.9-2.7-5.6
									c-0.1-0.8-0.1-1.9-0.1-3.5s-0.1-2.8-0.2-3.6c-0.2-0.8-0.7-1.8-1.6-3.1c-0.9-1.3-1.4-2.2-1.6-2.6c-0.2-0.6-0.6-1.5-1.1-2.6
									c-0.5-1.2-0.9-2-1.2-2.6c0.1,0,0.2,0,0.4,0.1s0.3,0.2,0.4,0.3c0.8-0.2,1.3-0.3,1.6-0.3c-2.5-1.9-5.4-3.1-8.8-3.6v1l0.5,1.1
									l-1.6,1.6l-1-0.4l-1.2-1.3l-1.2-1.5L18.6,0c-1.6,0.3-3.4,0.8-5.2,1.6v0.9c0.2-0.2,0.7-0.3,1.3-0.5s1.1-0.3,1.4-0.5
									c0.2-0.1,0.8,0.3,1.9,1.1c-0.1,0.1-0.5,0.5-1.3,1.2c-0.8,0.7-1.2,1.2-1.3,1.4c0,0.1,0.1,0.3,0.4,0.6
									c0.3,0.3,0.4,0.5,0.4,0.7c0,0.3,0,0.6-0.1,1.1s-0.1,0.8-0.1,1.1C17.7,6.9,18.6,6,18.6,6c0.7-0.2,1.5,0.2,2.5,1.1
									s1.6,1.6,1.7,2.2c0.1,0.3-0.1,0.6-0.5,1.1c-0.4,0.5-1,1.1-1.9,1.8c-0.8,0.8-1.4,1.2-1.5,1.4c-0.2,0.2-0.5,0.4-1,0.8
									s-0.9,0.7-1.2,1.1c-0.2,0.3-0.3,0.7-0.1,1.1c0.8,1.7,1,2.7,0.6,3c-0.2,0.2-0.3,0.2-0.6,0.1c-0.2-0.1-0.4-0.3-0.5-0.4
									s-0.3-0.4-0.5-0.6c-0.2-0.3-0.3-0.4-0.4-0.5c-0.5-0.6-1.9-0.9-4.4-0.9c0,2.7,0.6,4.5,1.7,5.4c3.2,2.5,5,3.9,5.4,4.1
									s1.4,0.3,2.8,0s2.3-0.2,2.7,0.1c2.5,1.9,4.4,3.1,5.4,3.6c0.7,0.3,1.5,0.8,2.3,1.7c0.8,0.9,1.1,1.6,0.7,2.2
									c-1,1.7-1.5,2.6-1.6,2.9c-0.6,1.4-1.4,2.5-2.3,3.1c-1,0.8-1.8,2-2.4,3.6C29.9,43.1,33.4,41,36.4,37.9z"/>
								<circle id="Oval-2" class="st1" cx="22" cy="22" r="22"/>
							</g>
						</g>
					</g>
				</g>
			</g>
		</g>
	</g>
</g>
</svg>
