<?xml version="1.0" encoding="utf-8"?>
<!-- Generator: Adobe Illustrator 22.0.0, SVG Export Plug-In . SVG Version: 6.00 Build 0)  -->
<svg version="1.1" id="图层_1" xmlns="http://www.w3.org/2000/svg" xmlns:xlink="http://www.w3.org/1999/xlink" x="0px" y="0px"
	 viewBox="0 0 35 44" style="enable-background:new 0 0 35 44;" xml:space="preserve">
<style type="text/css">
	.st0{fill:none;}
	.st1{fill:none;stroke:#186DF1;}
	.st2{fill:none;stroke:#95AABF;}
	.st3{fill:none;stroke:#1C1F30;}
</style>
<title>icon/security</title>
<desc>Created with Sketch.</desc>
<g id="Template-4--For-Individuals">
	
		<g id="_x32_2.01.18-Bitcoin.org_x5F_Bitcoin-for-individuals_x5F_Desktop-1200px--" transform="translate(-782.000000, -605.000000)">
		<g id="_x2F__x2F_contenct" transform="translate(215.000000, 555.000000)">
			<g id="box2" transform="translate(400.000000, 0.000000)">
				<g id="icon_1_" transform="translate(155.000000, 42.000000)">
					<g id="icon_x2F_security">
						<g id="icon">
							<rect id="Rectangle-3" class="st0" width="60" height="60"/>
							<path id="Path" class="st1" d="M29.8,33c0.8,0,1.5,0.3,2,0.8s0.8,1.2,0.8,2c0,0.5-0.1,1-0.4,1.4c-0.3,0.4-0.6,0.8-1,1v4.6
								c0,0.4-0.1,0.7-0.4,1s-0.6,0.4-1,0.4s-0.7-0.1-1-0.4s-0.4-0.6-0.4-1v-4.6c-0.4-0.2-0.7-0.6-1-1S27,36.3,27,35.8
								c0-0.8,0.3-1.5,0.8-2S29,33,29.8,33z"/>
							<path id="Path-2" class="st2" d="M20,25.7v-6.8c0-5.5,4.4-9.9,9.9-9.9l0,0c5.5,0,9.9,4.4,9.9,9.9v6.8"/>
							<path id="Rectangle-2" class="st3" d="M17.5,25.5h24c2.8,0,5,2.2,5,5v16c0,2.8-2.2,5-5,5h-24c-2.8,0-5-2.2-5-5v-16
								C12.5,27.7,14.7,25.5,17.5,25.5z"/>
						</g>
					</g>
				</g>
			</g>
		</g>
	</g>
</g>
</svg>
