<?xml version="1.0" encoding="utf-8"?>
<!-- Generator: Adobe Illustrator 22.0.0, SVG Export Plug-In . SVG Version: 6.00 Build 0)  -->
<svg version="1.1" id="图层_1" xmlns="http://www.w3.org/2000/svg" xmlns:xlink="http://www.w3.org/1999/xlink" x="0px" y="0px"
	 viewBox="0 0 45 35" style="enable-background:new 0 0 45 35;" xml:space="preserve">
<style type="text/css">
	.st0{fill:#1C3C55;}
	.st1{fill:#157AF9;}
	.st2{fill:#95AABF;}
</style>
<title>cloud</title>
<desc>Created with Sketch.</desc>
<g id="Symbols">
	<g id="Many-third-party-APIs.icon" transform="translate(-8.000000, -13.000000)">
		<g id="cloud" transform="translate(8.000000, 13.000000)">
			<g id="Group-3" transform="translate(0.000000, 19.193548)">
				<path id="Shape-Copy-2" class="st0" d="M20.1,6.4C19.9,2.8,17,0,13.5,0C11.3,0,9.2,1.1,8,2.8c0,0-0.1,0-0.1,0
					c-0.1,0-0.2-0.1-0.2-0.1c0,0-0.1,0-0.1,0c-0.1,0-0.2-0.1-0.2-0.1c0,0-0.1,0-0.1,0c-0.1,0-0.2,0-0.3,0c0,0-0.1,0-0.1,0
					c-0.1,0-0.3,0-0.4,0c-2,0-3.6,1.6-3.6,3.6c0,0.1,0,0.1,0,0.1v0C1.1,7,0,8.9,0,10.7c0,2.8,2.3,5.1,5.1,5.1h9.7c0,0,0.1,0,0.1,0
					l0,0l0.1,0c0,0,0.1,0,0.1,0H19c2.6,0,4.8-2.1,4.8-4.8C23.7,8.9,22.2,6.9,20.1,6.4z M19,15h-3.9c0,0,0,0-0.1,0l-0.1,0l-0.1,0
					c0,0,0,0-0.1,0H5.1c-2.4,0-4.3-1.9-4.3-4.3c0-1.6,1.1-3.3,2.5-4.1l0.2-0.1V6.3c0-0.1,0-0.1,0-0.2l0-0.1l0-0.1c0,0,0-0.1,0-0.1
					c0-1.5,1.2-2.8,2.8-2.8c0.1,0,0.2,0,0.4,0c0,0,0.1,0,0.1,0c0.1,0,0.2,0,0.3,0.1c0,0,0,0,0,0c0.1,0,0.2,0.1,0.3,0.1
					c0,0,0.1,0,0.1,0c0.1,0,0.2,0.1,0.3,0.2C8.6,4.1,9.1,5,9.1,5.9c0,0.2,0.2,0.4,0.4,0.4c0.2,0,0.4-0.2,0.4-0.4
					c0-1.1-0.5-2.1-1.3-2.7c1.1-1.5,3-2.4,4.9-2.4c3.1,0,5.6,2.4,5.9,5.5c-0.4,0-1,0-1.6,0c-0.2,0-0.4,0.2-0.3,0.5
					c0,0.2,0.2,0.3,0.4,0.3c0,0,0,0,0.1,0c0.9-0.1,1.8,0,1.9,0c1.8,0.3,3.2,2,3.2,3.9C22.9,13.2,21.1,15,19,15z"/>
				<path id="API-Copy-2" class="st1" d="M11,11.9h-0.9L9.7,11H8l-0.4,0.9H6.8l1.7-4h0.8L11,11.9z M9.4,10.2L8.9,8.9l-0.5,1.3H9.4z
					 M14.7,9.3c0,0.2,0,0.4-0.1,0.6c-0.1,0.2-0.2,0.3-0.3,0.4c-0.1,0.1-0.3,0.2-0.5,0.3s-0.4,0.1-0.6,0.1h-0.7v1.2h-0.9v-4h1.6
					c0.2,0,0.4,0,0.6,0.1c0.2,0.1,0.3,0.2,0.5,0.3c0.1,0.1,0.2,0.3,0.3,0.4S14.7,9.1,14.7,9.3L14.7,9.3z M13.8,9.3L13.8,9.3
					c0-0.2-0.1-0.4-0.2-0.5c-0.1-0.1-0.3-0.2-0.5-0.2h-0.7v1.2h0.7c0.2,0,0.4-0.1,0.5-0.2C13.8,9.6,13.8,9.5,13.8,9.3z M16.3,11.9
					h-0.9v-4h0.9V11.9z"/>
			</g>
			<g id="Group-2" transform="translate(20.322581, 9.032258)">
				<path id="Shape-Copy" class="st0" d="M20.1,6.4C19.9,2.8,17,0,13.5,0C11.3,0,9.2,1.1,8,2.8c0,0-0.1,0-0.1,0
					c-0.1,0-0.2-0.1-0.2-0.1c0,0-0.1,0-0.1,0c-0.1,0-0.2-0.1-0.2-0.1c0,0-0.1,0-0.1,0c-0.1,0-0.2,0-0.3,0c0,0-0.1,0-0.1,0
					c-0.1,0-0.3,0-0.4,0c-2,0-3.6,1.6-3.6,3.6c0,0.1,0,0.1,0,0.1v0C1.1,7,0,8.9,0,10.7c0,2.8,2.3,5.1,5.1,5.1h9.7c0,0,0.1,0,0.1,0
					l0,0l0.1,0c0,0,0.1,0,0.1,0H19c2.6,0,4.8-2.1,4.8-4.8C23.7,8.9,22.2,6.9,20.1,6.4z M19,15h-3.9c0,0,0,0-0.1,0l-0.1,0l-0.1,0
					c0,0,0,0-0.1,0H5.1c-2.4,0-4.3-1.9-4.3-4.3c0-1.6,1.1-3.3,2.5-4.1l0.2-0.1V6.3c0-0.1,0-0.1,0-0.2l0-0.1l0-0.1c0,0,0-0.1,0-0.1
					c0-1.5,1.2-2.8,2.8-2.8c0.1,0,0.2,0,0.4,0c0,0,0.1,0,0.1,0c0.1,0,0.2,0,0.3,0.1c0,0,0,0,0,0c0.1,0,0.2,0.1,0.3,0.1
					c0,0,0.1,0,0.1,0c0.1,0,0.2,0.1,0.3,0.2C8.6,4.1,9.1,5,9.1,5.9c0,0.2,0.2,0.4,0.4,0.4c0.2,0,0.4-0.2,0.4-0.4
					c0-1.1-0.5-2.1-1.3-2.7c1.1-1.5,3-2.4,4.9-2.4c3.1,0,5.6,2.4,5.9,5.5c-0.4,0-1,0-1.6,0c-0.2,0-0.4,0.2-0.3,0.5
					c0,0.2,0.2,0.3,0.4,0.3c0,0,0,0,0.1,0c0.9-0.1,1.8,0,1.9,0c1.8,0.3,3.2,2,3.2,3.9C22.9,13.2,21.1,15,19,15z"/>
				<path id="API-Copy" class="st1" d="M11,11.9h-0.9L9.7,11H8l-0.4,0.9H6.8l1.7-4h0.8L11,11.9z M9.4,10.2L8.9,8.9l-0.5,1.3H9.4z
					 M14.7,9.3c0,0.2,0,0.4-0.1,0.6c-0.1,0.2-0.2,0.3-0.3,0.4c-0.1,0.1-0.3,0.2-0.5,0.3s-0.4,0.1-0.6,0.1h-0.7v1.2h-0.9v-4h1.6
					c0.2,0,0.4,0,0.6,0.1c0.2,0.1,0.3,0.2,0.5,0.3c0.1,0.1,0.2,0.3,0.3,0.4S14.7,9.1,14.7,9.3L14.7,9.3z M13.8,9.3L13.8,9.3
					c0-0.2-0.1-0.4-0.2-0.5c-0.1-0.1-0.3-0.2-0.5-0.2h-0.7v1.2h0.7c0.2,0,0.4-0.1,0.5-0.2C13.8,9.6,13.8,9.5,13.8,9.3z M16.3,11.9
					h-0.9v-4h0.9V11.9z"/>
			</g>
			<g id="Group">
				<path id="Shape" class="st2" d="M20.1,6.4C19.9,2.8,17,0,13.5,0C11.3,0,9.2,1.1,8,2.8c0,0-0.1,0-0.1,0c-0.1,0-0.2-0.1-0.2-0.1
					c0,0-0.1,0-0.1,0c-0.1,0-0.2-0.1-0.2-0.1c0,0-0.1,0-0.1,0c-0.1,0-0.2,0-0.3,0c0,0-0.1,0-0.1,0c-0.1,0-0.3,0-0.4,0
					c-2,0-3.6,1.6-3.6,3.6c0,0.1,0,0.1,0,0.1v0C1.1,7,0,8.9,0,10.7c0,2.8,2.3,5.1,5.1,5.1h9.7c0,0,0.1,0,0.1,0l0,0l0.1,0
					c0,0,0.1,0,0.1,0H19c2.6,0,4.8-2.1,4.8-4.8C23.7,8.9,22.2,6.9,20.1,6.4z M19,15h-3.9c0,0,0,0-0.1,0l-0.1,0l-0.1,0c0,0,0,0-0.1,0
					H5.1c-2.4,0-4.3-1.9-4.3-4.3c0-1.6,1.1-3.3,2.5-4.1l0.2-0.1V6.3c0-0.1,0-0.1,0-0.2l0-0.1l0-0.1c0,0,0-0.1,0-0.1
					c0-1.5,1.2-2.8,2.8-2.8c0.1,0,0.2,0,0.4,0c0,0,0.1,0,0.1,0c0.1,0,0.2,0,0.3,0.1c0,0,0,0,0,0c0.1,0,0.2,0.1,0.3,0.1
					c0,0,0.1,0,0.1,0c0.1,0,0.2,0.1,0.3,0.2C8.6,4.1,9.1,5,9.1,5.9c0,0.2,0.2,0.4,0.4,0.4c0.2,0,0.4-0.2,0.4-0.4
					c0-1.1-0.5-2.1-1.3-2.7c1.1-1.5,3-2.4,4.9-2.4c3.1,0,5.6,2.4,5.9,5.5c-0.4,0-1,0-1.6,0c-0.2,0-0.4,0.2-0.3,0.5
					c0,0.2,0.2,0.3,0.4,0.3c0,0,0,0,0.1,0c0.9-0.1,1.8,0,1.9,0c1.8,0.3,3.2,2,3.2,3.9C22.9,13.2,21.1,15,19,15z"/>
				<path id="API" class="st1" d="M11,11.9h-0.9L9.7,11H8l-0.4,0.9H6.8l1.7-4h0.8L11,11.9z M9.4,10.2L8.9,8.9l-0.5,1.3H9.4z
					 M14.7,9.3c0,0.2,0,0.4-0.1,0.6c-0.1,0.2-0.2,0.3-0.3,0.4c-0.1,0.1-0.3,0.2-0.5,0.3s-0.4,0.1-0.6,0.1h-0.7v1.2h-0.9v-4h1.6
					c0.2,0,0.4,0,0.6,0.1c0.2,0.1,0.3,0.2,0.5,0.3c0.1,0.1,0.2,0.3,0.3,0.4S14.7,9.1,14.7,9.3L14.7,9.3z M13.8,9.3L13.8,9.3
					c0-0.2-0.1-0.4-0.2-0.5c-0.1-0.1-0.3-0.2-0.5-0.2h-0.7v1.2h0.7c0.2,0,0.4-0.1,0.5-0.2C13.8,9.6,13.8,9.5,13.8,9.3z M16.3,11.9
					h-0.9v-4h0.9V11.9z"/>
			</g>
		</g>
	</g>
</g>
</svg>
