<?xml version="1.0" encoding="utf-8"?>
<!-- Generator: Adobe Illustrator 22.0.0, SVG Export Plug-In . SVG Version: 6.00 Build 0)  -->
<svg version="1.1" id="图层_1" xmlns="http://www.w3.org/2000/svg" xmlns:xlink="http://www.w3.org/1999/xlink" x="0px" y="0px"
	 viewBox="0 0 40 36" style="enable-background:new 0 0 40 36;" xml:space="preserve">
<style type="text/css">
	.st0{fill:#1C1F30;}
	.st1{fill:#FFFFFF;stroke:#1C3C55;}
	.st2{fill:#157AF9;}
	.st3{fill:none;stroke:#95AABF;}
	.st4{fill:#FFFFFF;}
	.st5{fill:none;stroke:#1C3C55;}
	.st6{fill:none;stroke:#157AF9;}
</style>
<title>Group 3</title>
<desc>Created with Sketch.</desc>
<g id="Symbols">
	<g id="Most-of-the-security-is-on-client-side.icon" transform="translate(-10.000000, -12.000000)">
		<g id="Group-3" transform="translate(10.000000, 13.000000)">
			<g id="Group-2" transform="translate(15.909091, 0.000000)">
				<path id="User---simple-line-icons-Copy" class="st0" d="M22.1,20.9C22.1,20.9,22.1,20.9,22.1,20.9
					C22.1,20.9,22.1,20.9,22.1,20.9z M22.2,20.9l-0.2,0l-7-3.3c-0.3-0.1-0.6-0.4-0.8-0.7c-0.2-0.3-0.3-0.6-0.4-1c0-0.4,0-0.7,0.1-1
					c0.1-0.3,0.3-0.6,0.6-0.8c0.8-0.6,1.4-1.5,1.7-2.6c0.3-1.2,0.5-2.2,0.5-2.9v-4c0-0.3-0.1-0.7-0.4-1.1c-0.3-0.4-0.7-0.8-1.2-1.2
					c-0.5-0.4-1.1-0.7-1.7-0.9c-0.6-0.2-1.2-0.4-1.9-0.4c-0.6,0-1.3,0.1-1.9,0.4C9.2,1.5,8.6,1.8,8.1,2.2C7.6,2.6,7.2,3,6.9,3.4
					C6.6,3.8,6.5,4.2,6.5,4.5v4c0,0.7,0.2,1.7,0.6,2.9c0.4,1.1,0.9,2,1.7,2.6c0.3,0.2,0.5,0.5,0.6,0.8c0.1,0.3,0.2,0.7,0.1,1.1
					c-0.1,0.3-0.2,0.6-0.4,0.9c-0.2,0.3-0.5,0.5-0.8,0.7l-7.1,3.4c0,0-0.2,0.1-0.3,0.2c0,0-0.1,0.1-0.1,0.3v1.2l21.5,0v-1.1
					c0-0.3,0-0.4-0.1-0.4C22.3,21,22.2,20.9,22.2,20.9C22.2,20.9,22.1,20.9,22.2,20.9z"/>
				<path id="Path" class="st1" d="M22.8,20.2c0.4,0.2,0.6,0.6,0.6,1.2v2L0,23.5v-2.1c0-0.5,0.1-0.8,0.5-1.1
					c0.2-0.1,0.4-0.2,0.5-0.3l7-3.4c0.2-0.1,0.3-0.2,0.4-0.4c0.1-0.2,0.2-0.4,0.2-0.5c0-0.2,0-0.4-0.1-0.6c-0.1-0.2-0.2-0.3-0.4-0.5
					c-0.9-0.7-1.6-1.8-2-3.1c-0.4-1.3-0.6-2.3-0.6-3.2v-4c0-0.5,0.2-1.1,0.6-1.6c0.4-0.5,0.8-1,1.4-1.4C8.1,1,8.8,0.7,9.5,0.4
					C10.2,0.1,10.9,0,11.7,0c0.7,0,1.5,0.1,2.2,0.4c0.7,0.3,1.4,0.6,1.9,1c0.6,0.4,1,0.9,1.4,1.4c0.4,0.5,0.6,1.1,0.6,1.6v4
					c0,0.8-0.2,1.9-0.6,3.1c-0.4,1.3-1.1,2.4-2,3.1c-0.2,0.1-0.3,0.3-0.3,0.5c-0.1,0.2-0.1,0.4-0.1,0.6c0,0.2,0.1,0.4,0.2,0.6
					c0.1,0.2,0.3,0.3,0.5,0.4l6.9,3.3C22.4,20,22.5,20.1,22.8,20.2z"/>
			</g>
			<path id="Path-4" class="st2" d="M37.4,26.7c0.2-0.2,0.4-0.2,0.6,0c0.2,0.2,0.2,0.5,0,0.7l-6.2,7.5c-0.2,0.2-0.4,0.2-0.6,0.1
				l-3.5-3.1c-0.2-0.2-0.2-0.5-0.1-0.7c0.2-0.2,0.4-0.2,0.6-0.1l3.2,2.8L37.4,26.7z"/>
			<g id="Group" transform="translate(0.000000, 3.181818)">
				<path id="Path-2" class="st3" d="M5.5,11.8V7.3c0-4,3.3-7.3,7.3-7.3l0,0c4,0,7.3,3.3,7.3,7.3v4.5"/>
				<g id="Rectangle-2">
					<g>
						<path id="path-1" class="st4" d="M5,11.8h15.5c2.8,0,5,2.2,5,5v9c0,2.8-2.2,5-5,5H5c-2.8,0-5-2.2-5-5v-9C0,14,2.2,11.8,5,11.8
							z"/>
					</g>
					<path class="st5" d="M5.5,12.3H20c2.8,0,5,2.2,5,5v8c0,2.8-2.2,5-5,5H5.5c-2.8,0-5-2.2-5-5v-8C0.5,14.5,2.7,12.3,5.5,12.3z"/>
				</g>
				<path id="Path_1_" class="st6" d="M12.7,17.2c0.5,0,0.9,0.2,1.3,0.5c0.4,0.3,0.5,0.8,0.5,1.3c0,0.3-0.1,0.6-0.3,0.9
					c-0.2,0.3-0.4,0.5-0.7,0.6v3c0,0.2-0.1,0.5-0.3,0.6s-0.4,0.3-0.6,0.3c-0.2,0-0.5-0.1-0.6-0.3s-0.3-0.4-0.3-0.6v-3
					c-0.3-0.2-0.5-0.4-0.7-0.6c-0.2-0.3-0.3-0.6-0.3-0.9c0-0.5,0.2-0.9,0.5-1.3C11.8,17.4,12.2,17.2,12.7,17.2z"/>
			</g>
		</g>
	</g>
</g>
</svg>
