<?xml version="1.0" encoding="utf-8"?>
<!-- Generator: Adobe Illustrator 22.0.0, SVG Export Plug-In . SVG Version: 6.00 Build 0)  -->
<svg version="1.1" id="图层_1" xmlns="http://www.w3.org/2000/svg" xmlns:xlink="http://www.w3.org/1999/xlink" x="0px" y="0px"
	 viewBox="0 0 48 36" style="enable-background:new 0 0 48 36;" xml:space="preserve">
<style type="text/css">
	.st0{fill:none;stroke:#1C1F30;}
	.st1{fill:none;stroke:#186DF1;}
	.st2{fill:none;stroke:#95AABF;}
</style>
<title>icon/laptop</title>
<desc>Created with Sketch.</desc>
<g id="Template-4--For-Individuals">
	
		<g id="_x32_2.01.18-Bitcoin.org_x5F_Bitcoin-for-individuals_x5F_Desktop-1200px--" transform="translate(-1177.000000, -609.000000)">
		<g id="_x2F__x2F_contenct" transform="translate(215.000000, 555.000000)">
			<g id="box3" transform="translate(798.000000, 0.000000)">
				<g id="icon_x2F_laptop" transform="translate(157.000000, 42.000000)">
					<g id="icon_x2F_Desktop">
						<g id="Group-3" transform="translate(7.000000, 12.000000)">
							<path id="Rectangle-6" class="st0" d="M7.5,0.5h32c2.8,0,5,2.2,5,5v20c0,2.8-2.2,5-5,5h-32c-2.8,0-5-2.2-5-5v-20
								C2.5,2.7,4.7,0.5,7.5,0.5z"/>
							<path id="Rectangle-6_1_" class="st1" d="M7.5,2.5h32c1.7,0,3,1.3,3,3v20c0,1.7-1.3,3-3,3h-32c-1.7,0-3-1.3-3-3v-20
								C4.5,3.8,5.8,2.5,7.5,2.5z"/>
							<path id="Rectangle-3" class="st2" d="M47.5,30.5h-47c0.3,2.8,2.6,5,5.5,5h36C44.9,35.5,47.2,33.3,47.5,30.5z"/>
						</g>
					</g>
				</g>
			</g>
		</g>
	</g>
</g>
</svg>
