<?xml version="1.0" encoding="utf-8"?>
<!-- Generator: Adobe Illustrator 22.0.0, SVG Export Plug-In . SVG Version: 6.00 Build 0)  -->
<svg version="1.1" id="图层_1" xmlns="http://www.w3.org/2000/svg" xmlns:xlink="http://www.w3.org/1999/xlink" x="0px" y="0px"
	 viewBox="0 0 51 45" style="enable-background:new 0 0 51 45;" xml:space="preserve">
<style type="text/css">
	.st0{fill:none;}
	.st1{fill:#95AABF;}
	.st2{fill:none;stroke:#186DF1;}
	.st3{fill:none;stroke:#1C1F30;}
</style>
<title>icon/fees</title>
<desc>Created with Sketch.</desc>
<g id="Template-4--For-Individuals">
	
		<g id="_x32_2.01.18-Bitcoin.org_x5F_Bitcoin-for-individuals_x5F_Desktop-1200px--" transform="translate(-776.000000, -1137.000000)">
		<g id="_x2F__x2F_contenct" transform="translate(215.000000, 555.000000)">
			<g id="box2" transform="translate(400.000000, 530.000000)">
				<g id="icon" transform="translate(155.000000, 42.000000)">
					<g id="icon_x2F_fees">
						<g id="Group-2">
							<g>
								<rect id="Rectangle-2" class="st0" width="60" height="60"/>
								<path id="ion-ios-pricetag---Ionicons" class="st1" d="M8.1,42.8l10.5,10.1l17.9-19.3V23.5H26L8.1,42.8z M38,22v12.2
									L18.7,55L6,42.8L25.3,22H38z M30.5,32.4c-0.8,0-1.5-0.3-2.1-0.9c-0.6-0.6-0.9-1.3-0.9-2.1c0-0.8,0.3-1.5,0.9-2.1
									c0.6-0.6,1.3-0.9,2.1-0.9c0.8,0,1.5,0.3,2.1,0.9c0.6,0.6,0.9,1.3,0.9,2.1c0,0.8-0.3,1.5-0.9,2.1
									C31.9,32.1,31.2,32.4,30.5,32.4z M30.5,30.9c0.4,0,0.7-0.1,1-0.5c0.3-0.3,0.5-0.7,0.5-1s-0.2-0.7-0.5-1
									c-0.3-0.3-0.7-0.5-1-0.5s-0.7,0.1-1,0.5c-0.3,0.3-0.5,0.7-0.5,1s0.2,0.7,0.5,1C29.8,30.8,30.1,30.9,30.5,30.9z"/>
								<path id="Path-2" class="st2" d="M31,31c2.4-13.4,4.9-19,7.5-16.9c3.9,3.1,6.4,1.1,9.3-2.3s10.9,5.3,7.4,10.5
									c-2.3,3.5-8,6.4-16.9,8.7"/>
								<path id="Path-2_1_" class="st3" d="M31,31c2.7-12.6,5.3-17.9,7.9-16c3.9,2.9,6,0.8,8.5-2.3s8.8,4.3,5.8,9.2
									c-2,3.2-7,6.3-15.1,9.1"/>
							</g>
						</g>
					</g>
				</g>
			</g>
		</g>
	</g>
</g>
</svg>
