<?xml version="1.0" encoding="utf-8"?>
<!-- Generator: Adobe Illustrator 22.0.0, SVG Export Plug-In . SVG Version: 6.00 Build 0)  -->
<svg version="1.1" id="图层_1" xmlns="http://www.w3.org/2000/svg" xmlns:xlink="http://www.w3.org/1999/xlink" x="0px" y="0px"
	 viewBox="0 0 35 30" style="enable-background:new 0 0 35 30;" xml:space="preserve">
<style type="text/css">
	.st0{fill:#95AABF;}
	.st1{fill:#157AF9;}
	.st2{fill:#1C3C55;}
	.st3{fill:#FFFFFF;}
	.st4{fill:#1C1F30;}
</style>
<title>Group</title>
<desc>Created with Sketch.</desc>
<g id="Symbols">
	<g id="The-simplest-of-all-payment-systems.icon" transform="translate(-13.000000, -15.000000)">
		<g id="Group" transform="translate(13.000000, 15.000000)">
			<g id="Group-3">
				<polygon id="ion-android-arrow-forward---Ionicons" class="st0" points="14,11.5 14,10.5 33.1,10.5 30.3,7.7 31,7 35,11 31,15 
					30.3,14.3 33.1,11.5 				"/>
				<polygon id="ion-android-arrow-forward---Ionicons_1_" class="st1" points="13,4.5 13,3.5 26.1,3.5 23.4,0.7 24.1,0 28,4 
					24.1,8 23.4,7.3 26.1,4.5 				"/>
				<polygon id="ion-android-arrow-forward---Ionicons_2_" class="st2" points="21,18.5 1.9,18.5 4.7,21.3 4,22 0,18 4,14 4.7,14.7 
					1.9,17.5 21,17.5 				"/>
			</g>
			<g id="Group-2" transform="translate(6.000000, 6.000000)">
				<circle id="Oval" class="st3" cx="12" cy="12" r="11"/>
				<path id="Oval_1_" class="st4" d="M12,23.5C5.6,23.5,0.5,18.4,0.5,12S5.6,0.5,12,0.5S23.5,5.6,23.5,12S18.4,23.5,12,23.5z
					 M12,22.5c5.8,0,10.5-4.7,10.5-10.5S17.8,1.5,12,1.5S1.5,6.2,1.5,12S6.2,22.5,12,22.5z"/>
				<path id="Oval_2_" class="st4" d="M12,23.5C5.6,23.5,0.5,18.4,0.5,12S5.6,0.5,12,0.5S23.5,5.6,23.5,12S18.4,23.5,12,23.5z
					 M12,22.5c5.8,0,10.5-4.7,10.5-10.5S17.8,1.5,12,1.5S1.5,6.2,1.5,12S6.2,22.5,12,22.5z"/>
				<path id="Path-4" class="st1" d="M17.6,7.7c0.2-0.2,0.5-0.2,0.7,0s0.2,0.5,0,0.7l-7,8c-0.2,0.2-0.5,0.2-0.7,0.1l-4-3.3
					c-0.2-0.2-0.2-0.5-0.1-0.7c0.2-0.2,0.5-0.2,0.7-0.1l3.6,2.9L17.6,7.7z"/>
			</g>
		</g>
	</g>
</g>
</svg>
