<?xml version="1.0" encoding="utf-8"?>
<!-- Generator: Adobe Illustrator 22.0.0, SVG Export Plug-In . SVG Version: 6.00 Build 0)  -->
<svg version="1.1" id="图层_1" xmlns="http://www.w3.org/2000/svg" xmlns:xlink="http://www.w3.org/1999/xlink" x="0px" y="0px"
	 viewBox="0 0 30 49" style="enable-background:new 0 0 30 49;" xml:space="preserve">
<style type="text/css">
	.st0{fill:#1C3C55;}
	.st1{fill:#186DF1;}
	.st2{fill:none;stroke:#95AABF;}
</style>
<title>icon</title>
<desc>Created with Sketch.</desc>
<g id="Template-4--For-Individuals">
	
		<g id="_x32_2.01.18-Bitcoin.org_x5F_Bitcoin-for-individuals_x5F_Desktop-1200px--" transform="translate(-386.000000, -602.000000)">
		<g id="_x2F__x2F_contenct" transform="translate(215.000000, 555.000000)">
			<g id="box1">
				<g id="icon" transform="translate(155.000000, 43.000000)">
					<g id="icon_x2F_Mobile">
						<g id="Group" transform="translate(16.000000, 4.000000)">
							<path id="phone_iphone---material" class="st0" d="M27,37.4c0,1.5-1.2,2.6-2.8,2.6H5.8C4.2,40,3,38.8,3,37.4V6.6
								C3,5.2,4.2,4,5.8,4h18.5C25.8,4,27,5.2,27,6.6V37.4z M26,37.5V6.7C26,6,25.1,5,24.1,5H5.6C5.1,5,4,5.8,4,6.6v30.9
								C4,38,4.8,39,5.8,39h18.7C25.2,39,26,38,26,37.5z"/>
							<path id="phone_iphone---material_1_" class="st1" d="M30,44.6c0,2.4-2,4.4-4.4,4.4H4.4C2,49,0,47,0,44.6V4.4C0,2,2,0,4.4,0
								h21.2C28,0,30,2,30,4.4V44.6z M29,45V4c0-1.5-1.8-3.2-3.2-3.2H4.2C2.7,0.8,1,2.5,1,4v41c0,1.5,1.8,3.1,3.2,3.1h21.6
								C27.3,48.1,29,46.5,29,45z"/>
							<path id="Path" class="st2" d="M13.7,46.3c-0.5-0.5-0.7-1.1-0.7-1.8c0-0.7,0.3-1.3,0.7-1.8c0.5-0.5,1.1-0.7,1.8-0.7
								c0.7,0,1.3,0.3,1.8,0.7c0.5,0.5,0.7,1.1,0.7,1.8c0,0.7-0.2,1.3-0.7,1.8S16.2,47,15.5,47C14.8,47,14.2,46.8,13.7,46.3z"/>
						</g>
					</g>
				</g>
			</g>
		</g>
	</g>
</g>
</svg>
