<?xml version="1.0" encoding="utf-8"?>
<!-- Generator: Adobe Illustrator 22.0.0, SVG Export Plug-In . SVG Version: 6.00 Build 0)  -->
<svg version="1.1" id="图层_1" xmlns="http://www.w3.org/2000/svg" xmlns:xlink="http://www.w3.org/1999/xlink" x="0px" y="0px"
	 viewBox="0 0 41 35" style="enable-background:new 0 0 41 35;" xml:space="preserve">
<style type="text/css">
	.st0{fill:#1C3C55;}
	.st1{fill:#157AF9;}
	.st2{fill:#157AF9;stroke:#157AF9;stroke-width:0.3;}
</style>
<title>invoice</title>
<desc>Created with Sketch.</desc>
<g id="Symbols">
	<g id="Bitcoin-addresses-to-track-invoices.icon" transform="translate(-10.000000, -13.000000)">
		<g id="invoice" transform="translate(10.000000, 13.000000)">
			<path id="Shape" class="st0" d="M25.7,25.9c-0.3,0-0.5,0.2-0.5,0.5v7.5c0,0-8,0-24.1,0c0,0,0-10.9,0-32.8c0,0,6,0,18.1,0v5
				c0,0.6,0.5,1.1,1.1,1.1h5.5c0.2,0,0.4-0.1,0.5-0.3s0-0.4-0.1-0.6l-6-6C19.9,0.1,19.8,0,19.7,0c0,0-6.2,0-18.6,0
				C0.5,0,0,0.5,0,1.1v32.8c0,0.6,0.5,1.1,1.1,1.1h24.1c0.6,0,1.1-0.5,1.1-1.1v-7.5C26.2,26.1,26,25.9,25.7,25.9z M24.4,6h-4.2
				c0,0,0,0,0,0V1.7L24.4,6z M25.8,6.8v5V6.8z"/>
			<g id="Group" transform="translate(4.000000, 12.000000)">
				<path id="Shape_1_" class="st1" d="M34.7,0.9H2.3C1,0.9,0,1.6,0,2.5v7.7c0,0.9,1,1.6,2.3,1.6h32.5c1.3,0,2.3-0.7,2.3-1.6V2.5
					C37,1.6,36,0.9,34.7,0.9z M34.7,10.7H2.3c-0.5,0-1.2-0.3-1.2-0.6V2.5c0-0.3,0.7-0.6,1.2-0.6h32.5c0.5,0,1.3,0.3,1.3,0.6v7.7
					C36,10.4,35.2,10.7,34.7,10.7z"/>
				<path id="_x31_AKNyLv_x2026_v2CbVfQ" class="st2" d="M4.2,3.5v5H3.6V4.2L2.3,5L2,4.6l1.6-1.1H4.2z M5.6,8.6l1.5-5.3h1.3l1.4,5.3
					H9.2L8.9,7.2H6.6L6.2,8.6H5.6z M7.5,3.8L6.7,6.7h2L7.9,3.8H7.5z M11.2,8.6h-0.6V3.3h0.6v2.5l0.9,0l1.4-2.4h0.7l-1.5,2.7l1.6,2.6
					h-0.7l-1.4-2.3l-0.9,0V8.6z M15,8.6V3.3h1.1l2,4.8h0.2V3.3h0.6v5.3h-1.1l-2.1-4.8h-0.1v4.8H15z M19.7,4.7h0.6l1,3.3h0.3l1-3.3
					H23l-1.6,5.5h-0.6l0.5-1.7h-0.6L19.7,4.7z M26.7,8.6h-2.9V3.3h0.6V8h2.3V8.6z M26.7,4.7h0.6l0.9,3.3h0.3l0.9-3.3H30l-1.1,3.8
					h-1.1L26.7,4.7z M30.4,8.6V7.7H31v0.9H30.4z M32.4,8.6V7.7H33v0.9H32.4z M34.3,8.6V7.7h0.6v0.9H34.3z"/>
			</g>
		</g>
	</g>
</g>
</svg>
