<?xml version="1.0" encoding="utf-8"?>
<!-- Generator: Adobe Illustrator 22.0.0, SVG Export Plug-In . SVG Version: 6.00 Build 0)  -->
<svg version="1.1" id="图层_1" xmlns="http://www.w3.org/2000/svg" xmlns:xlink="http://www.w3.org/1999/xlink" x="0px" y="0px"
	 viewBox="0 0 34 36" style="enable-background:new 0 0 34 36;" xml:space="preserve">
<style type="text/css">
	.st0{fill:none;stroke:#1C3C55;stroke-width:0.7;}
	.st1{fill:#1C3C55;}
	.st2{fill:#95AABF;}
	.st3{fill:#FFFFFF;stroke:#1C3C55;stroke-width:0.7;}
	.st4{fill:#157AF9;}
</style>
<title>Group</title>
<desc>Created with Sketch.</desc>
<g id="Symbols">
	<g id="New-payment-possibilities.icon" transform="translate(-13.000000, -12.000000)">
		<g id="Group" transform="translate(14.000000, 13.000000)">
			<g id="computer" transform="translate(0.000000, 4.516129)">
				<path id="Path" class="st0" d="M0,21.2c0,1.7,1.4,3.1,3.2,3.1h5.1h15.2h5.1c1.8,0,3.2-1.4,3.2-3.1v-1.8H0V21.2z"/>
				<path id="Rectangle-2" class="st1" d="M14.6,24.6v2.3h3.9v-2.3H14.6z M13.8,24.2h5.4v3.2h-5.4V24.2z"/>
				<path id="Rectangle-3" class="st1" d="M22.2,27.5H10.6c-1,0-1.9,0.7-2.2,1.6h16C24.1,28.2,23.2,27.5,22.2,27.5z M10.6,26.7h11.6
					c1.7,0,3.1,1.4,3.1,3.2H7.5C7.5,28.1,8.8,26.7,10.6,26.7z"/>
				<path id="Path-51" class="st0" d="M0.2,19.5V3.1c0-1.1,0.9-2,2-2h27.6c1.1,0,2,0.9,2,2v16.8"/>
				<path id="Shape" class="st2" d="M6,16H3.4v-2.6c0-0.3-0.2-0.5-0.5-0.5s-0.5,0.2-0.5,0.5v3.1c0,0.3,0.2,0.5,0.5,0.5H6
					c0.3,0,0.5-0.2,0.5-0.5S6.3,16,6,16z"/>
				<path id="Shape_1_" class="st2" d="M28.6,12.9c-0.3,0-0.5,0.2-0.5,0.5V16h-2.6c-0.3,0-0.5,0.2-0.5,0.5s0.2,0.5,0.5,0.5h3.1
					c0.3,0,0.5-0.2,0.5-0.5v-3.1C29.1,13.1,28.9,12.9,28.6,12.9z"/>
			</g>
			<circle id="Oval-12" class="st3" cx="16.4" cy="8.5" r="8.5"/>
		</g>
	</g>
</g>
<g>
	<path class="st4" d="M18.7,14.9c-0.2,0-0.5-0.2-0.5-0.4c-0.1-0.3,0.1-0.6,0.4-0.7c2-0.5,3.3-2.3,3.3-4.3s-1.4-3.8-3.3-4.3
		c-0.3-0.1-0.5-0.4-0.4-0.7C18.2,4.1,18.5,4,18.8,4C21.2,4.7,23,7,23,9.5s-1.7,4.8-4.2,5.4C18.8,14.9,18.7,14.9,18.7,14.9z"/>
	<path class="st4" d="M16.1,14.9c0,0-0.1,0-0.1,0c-2.4-0.6-4.2-2.9-4.2-5.4s1.7-4.8,4.2-5.4c0.3-0.1,0.6,0.1,0.7,0.4
		c0.1,0.3-0.1,0.6-0.4,0.7c-1.9,0.5-3.3,2.3-3.3,4.3s1.4,3.8,3.3,4.3c0.3,0.1,0.5,0.4,0.4,0.7C16.5,14.7,16.3,14.9,16.1,14.9z"/>
	<path class="st4" d="M17.4,12.9c-1.9,0-3.4-1.5-3.4-3.4s1.5-3.4,3.4-3.4c1.1,0,2.2,0.5,2.8,1.4c0.2,0.2,0.1,0.5-0.1,0.7
		c-0.2,0.2-0.5,0.1-0.7-0.1c-0.5-0.6-1.2-1-2-1C16.1,7,15,8.1,15,9.5s1.1,2.4,2.4,2.4c0.8,0,1.5-0.4,2-1c0.2-0.2,0.5-0.3,0.7-0.1
		c0.2,0.2,0.3,0.5,0.1,0.7C19.5,12.4,18.5,12.9,17.4,12.9z"/>
	<path class="st4" d="M14.2,10.1h-2c-0.2,0-0.4-0.3-0.4-0.6s0.2-0.6,0.4-0.6h2c0.2,0,0.4,0.3,0.4,0.6S14.4,10.1,14.2,10.1z"/>
	<path class="st4" d="M22.6,10.1h-2c-0.2,0-0.4-0.3-0.4-0.6s0.2-0.6,0.4-0.6h2c0.2,0,0.4,0.3,0.4,0.6S22.8,10.1,22.6,10.1z"/>
</g>
</svg>
