<?xml version="1.0" encoding="utf-8"?>
<!-- Generator: Adobe Illustrator 22.0.0, SVG Export Plug-In . SVG Version: 6.00 Build 0)  -->
<svg version="1.1" id="图层_1" xmlns="http://www.w3.org/2000/svg" xmlns:xlink="http://www.w3.org/1999/xlink" x="0px" y="0px"
	 viewBox="0 0 39 38" style="enable-background:new 0 0 39 38;" xml:space="preserve">
<style type="text/css">
	.st0{fill:#1C3C55;}
	.st1{fill:#FFFFFF;}
	.st2{fill:#95AABF;}
	.st3{fill:#157AF9;}
</style>
<title>Group</title>
<desc>Created with Sketch.</desc>
<g id="Symbols">
	<g id="No-PCI-compliance-required.icon" transform="translate(-11.000000, -11.000000)">
		<g id="Group" transform="translate(10.000000, 11.000000)">
			<path id="Shape" class="st0" d="M36.2,25.6h-26c-1.6,0-2.9-1.3-2.9-2.9V2.9C7.4,1.3,8.7,0,10.2,0h9c0,0,4.6,0,13.9,0h3.1
				c1.6,0,2.9,1.3,2.9,2.9v19.9C39.1,24.3,37.8,25.6,36.2,25.6z M10.2,1c-1,0-1.8,0.8-1.8,1.8v19.9c0,1,0.8,1.8,1.8,1.8h26
				c1,0,1.8-0.8,1.8-1.8v-6.2h-9.6c-1.3,0-2.3-1-2.3-2.3v-3c0-1.3,1-2.3,2.3-2.3H38V2.9c0-1-0.8-1.8-1.8-1.8H10.2z M28.4,10.1
				c-0.7,0-1.2,0.6-1.2,1.3v3c0,0.7,0.6,1.3,1.2,1.3H38v-5.5H28.4z M22.6,0H32H22.6z M30,14.7c-1,0-1.8-0.8-1.8-1.8S29,11,30,11
				s1.8,0.8,1.8,1.8S31.1,14.7,30,14.7z M30,12c-0.4,0-0.8,0.4-0.8,0.8s0.4,0.8,0.8,0.8s0.8-0.4,0.8-0.8S30.5,12,30,12z"/>
			
				<g id="credit-card-2" transform="translate(15.611111, 25.722222) scale(-1, 1) translate(-15.611111, -25.722222) translate(0.611111, 13.722222)">
				<path id="Rectangle" class="st1" d="M5.1,2.3l22.3,2c1.1,0.1,1.9,1.1,1.8,2.2L28,21.3c-0.1,1.1-1.1,1.9-2.2,1.8l-22.3-2
					c-1.1-0.1-1.9-1.1-1.8-2.2L3,4.1C3.1,3,4,2.2,5.1,2.3z"/>
				<path id="Rectangle_1_" class="st1" d="M2.2,0.3h21.9c1.1,0,2,0.9,2,2v14.5c0,1.1-0.9,2-2,2H2.2c-1.1,0-2-0.9-2-2V2.3
					C0.2,1.2,1.1,0.3,2.2,0.3z"/>
				<path id="Shape_1_" class="st0" d="M15.8,16.3H23c0.3,0,0.5-0.2,0.5-0.5v-4.2c0-0.3-0.2-0.5-0.5-0.5h-7.3
					c-0.3,0-0.5,0.2-0.5,0.5v4.2C15.3,16.2,15.5,16.3,15.8,16.3z M16.1,12l6.5,0.1v3.5h-6.5V12z"/>
				<path id="Shape_2_" class="st0" d="M8.9,10.3H13c0.3,0,0.4-0.2,0.4-0.4S13.3,9.5,13,9.5H8.9c-0.3,0-0.4,0.2-0.4,0.4
					S8.7,10.3,8.9,10.3z"/>
				<path id="Shape-Copy" class="st0" d="M2.5,10.3h4.1c0.3,0,0.4-0.2,0.4-0.4S6.9,9.5,6.6,9.5H2.5c-0.3,0-0.4,0.2-0.4,0.4
					S2.3,10.3,2.5,10.3z"/>
				<path id="Shape_3_" class="st2" d="M29.3,5.1c-0.3-0.4-0.9-0.7-1.4-0.7l-1.2-0.1V2.9v-1c0-1.1-0.9-1.9-2-1.9H2
					C0.9,0,0,0.9,0,1.9v1v3.8v10.5c0,0.9,0.6,1.6,1.4,1.8c0,1,0.7,1.8,1.7,1.9L26,23.5c0,0,0.1,0,0.2,0c1,0,1.9-0.7,2-1.6l1.5-15.4
					C29.7,6,29.6,5.5,29.3,5.1z M0.7,3.4h25.1v3.2H0.7V3.4z M2,0.7h22.6c0.5,0,1.3,0.6,1.3,1.4v0.6H0.7V1.7C0.7,1.4,1.2,0.7,2,0.7z
					 M0.8,17.3L0.7,7.2h25.1L26,17.3c0,0.5-0.7,1.3-1.3,1.3H2C1.4,18.6,0.8,17.8,0.8,17.3z M28.9,6.5l-1.6,15.3c0,0.5-0.8,1-1.4,0.9
					L3.3,20.4c-0.5,0-1.2-0.6-1.2-1.2h22.5c1.1,0,2-0.9,2-1.9V6.7V5l1.1,0.1c0.4,0,0.8,0.2,1,0.4C28.9,5.7,29,6,28.9,6.5z"/>
				<polygon id="Path-2" class="st3" points="25.7,6.5 25.7,7.3 0.8,7.3 0.8,6.5 				"/>
				<polygon id="Path-2_1_" class="st3" points="25.7,2.6 25.7,3.4 0.8,3.4 0.8,2.6 				"/>
			</g>
		</g>
	</g>
</g>
</svg>
