<?xml version="1.0" encoding="utf-8"?>
<!-- Generator: Adobe Illustrator 22.0.0, SVG Export Plug-In . SVG Version: 6.00 Build 0)  -->
<svg version="1.1" id="图层_1" xmlns="http://www.w3.org/2000/svg" xmlns:xlink="http://www.w3.org/1999/xlink" x="0px" y="0px"
	 viewBox="0 0 79 58" style="enable-background:new 0 0 79 58;" xml:space="preserve">
<style type="text/css">
	.st0{fill:none;}
	.st1{fill:#FFFFFF;stroke:#95AABF;}
	.st2{fill:#FFFFFF;}
	.st3{fill:#1C1F30;}
	.st4{fill:#95AABF;}
	.st5{fill:#157AF9;}
</style>
<title>Multi-signature accounts icon</title>
<desc>Created with Sketch.</desc>
<g id="Innovation">
	<g id="_x32_2.01.18-Bitcoin.org_x5F_Innovation_x5F_Desktop-1200px--" transform="translate(-757.000000, -1914.000000)">
		<g id="_x2F__x2F_contenct" transform="translate(215.000000, 697.000000)">
			<g id="box8" transform="translate(400.000000, 1170.000000)">
				<g id="Multi-signature-accounts-icon" transform="translate(142.000000, 30.000000)">
					<g>
						<rect id="Rectangle-2" class="st0" width="80" height="80"/>
						<g id="Group-10" transform="translate(1.000000, 18.000000)">
							<g id="Group-9" transform="translate(48.000000, 1.000000)">
								<path id="User---simple-line-icons-Copy" class="st1" d="M19,0c-0.6,0-1.2,0.1-1.8,0.3c-0.6,0.2-1.1,0.5-1.6,0.9
									S14.7,2,14.4,2.4C14.2,2.8,14,3.2,14,3.6v3.6c0,0.7,0.2,1.6,0.5,2.7s0.9,1.9,1.6,2.5c0.2,0.1,0.3,0.3,0.4,0.6
									c0.1,0.2,0.1,0.5,0.1,0.7c0,0.2-0.1,0.5-0.3,0.7c-0.1,0.2-0.3,0.4-0.5,0.5l-6.3,3c-0.1,0-0.2,0.1-0.4,0.2
									C9.1,18,9,18.3,9,18.5V20l20,0v-1.4c0-0.4-0.1-0.6-0.3-0.7c-0.2-0.1-0.3-0.1-0.3-0.1l-6.2-2.9c-0.2-0.1-0.4-0.3-0.6-0.5
									c-0.1-0.2-0.2-0.4-0.3-0.7c0-0.3,0-0.5,0.1-0.7c0.1-0.2,0.2-0.4,0.4-0.6c0.8-0.6,1.3-1.4,1.6-2.5c0.3-1.1,0.5-2,0.5-2.7V3.6
									c0-0.4-0.1-0.8-0.4-1.2s-0.7-0.8-1.2-1.1s-1-0.6-1.6-0.9C20.2,0.1,19.6,0,19,0z"/>
								<path id="User---simple-line-icons-Copy_1_" class="st2" d="M12.5,0c-0.8,0-1.5,0.1-2.3,0.4c-0.7,0.3-1.4,0.7-2,1.1
									C7.6,2,7.2,2.5,6.8,3C6.4,3.5,6.3,4,6.3,4.5v4.5c0,0.9,0.2,2,0.7,3.3S8,14.7,9,15.4c0.2,0.2,0.4,0.4,0.5,0.7
									c0.1,0.3,0.2,0.6,0.1,0.9c-0.1,0.3-0.2,0.6-0.3,0.8s-0.4,0.4-0.7,0.6l-7.8,3.7c-0.1,0-0.3,0.1-0.5,0.3S0,22.8,0,23.2V25
									l25,0v-1.7c0-0.5-0.1-0.8-0.3-0.9c-0.2-0.1-0.4-0.2-0.4-0.2l-7.8-3.7c-0.3-0.1-0.5-0.3-0.7-0.6c-0.2-0.3-0.3-0.5-0.3-0.9
									c0-0.3,0-0.6,0.1-0.9c0.1-0.3,0.3-0.5,0.5-0.7c1-0.7,1.7-1.8,2.1-3.2s0.6-2.5,0.6-3.3V4.5c0-0.5-0.2-1-0.6-1.5
									c-0.4-0.5-0.9-1-1.4-1.4s-1.3-0.8-2-1.1C14,0.1,13.3,0,12.5,0z"/>
								<path id="User---simple-line-icons-Copy_2_" class="st3" d="M24.9,21.9c0.4,0.2,0.6,0.7,0.6,1.4v2.2l-26,0v-2.3
									c0-0.5,0.2-0.9,0.5-1.2c0.2-0.2,0.4-0.3,0.5-0.3L8.4,18c0.2-0.1,0.4-0.2,0.5-0.4C9,17.4,9.1,17.2,9.1,17
									c0-0.2,0-0.4-0.1-0.7C9,16.1,8.8,16,8.7,15.8c-1-0.8-1.8-1.9-2.2-3.4C6,11,5.8,9.9,5.8,8.9V4.5c0-0.6,0.2-1.2,0.6-1.8
									c0.4-0.6,0.9-1.1,1.5-1.6C8.6,0.7,9.3,0.3,10.1,0c0.8-0.3,1.6-0.5,2.4-0.5c0.8,0,1.6,0.2,2.4,0.5c0.8,0.3,1.5,0.7,2.1,1.2
									c0.6,0.5,1.1,1,1.5,1.5c0.4,0.6,0.7,1.2,0.7,1.8v4.5c0,0.9-0.2,2.1-0.6,3.5c-0.4,1.5-1.2,2.6-2.2,3.4
									c-0.2,0.1-0.3,0.3-0.4,0.5c-0.1,0.2-0.1,0.4-0.1,0.7c0,0.2,0.1,0.4,0.2,0.6c0.1,0.2,0.3,0.3,0.5,0.4l7.7,3.6
									C24.5,21.7,24.6,21.7,24.9,21.9z M24.2,22.6C24.2,22.7,24.2,22.7,24.2,22.6C24.2,22.7,24.2,22.7,24.2,22.6z M24.3,22.7
									l-0.2,0l-7.8-3.7c-0.4-0.2-0.7-0.4-0.9-0.7c-0.2-0.3-0.4-0.7-0.4-1.1c0-0.4,0-0.8,0.2-1.2c0.2-0.4,0.4-0.7,0.7-0.9
									c0.9-0.7,1.5-1.6,1.9-2.9c0.4-1.3,0.6-2.4,0.6-3.2V4.5c0-0.4-0.1-0.8-0.5-1.2c-0.3-0.5-0.8-0.9-1.3-1.3
									c-0.5-0.4-1.2-0.7-1.9-1c-0.7-0.3-1.4-0.4-2.1-0.4c-0.7,0-1.4,0.1-2.1,0.4c-0.7,0.3-1.3,0.6-1.9,1C8,2.4,7.5,2.8,7.2,3.3
									C6.9,3.7,6.8,4.1,6.8,4.5v4.5c0,0.8,0.2,1.9,0.6,3.2c0.4,1.3,1,2.2,1.9,2.9c0.3,0.2,0.5,0.5,0.7,0.9
									c0.2,0.4,0.2,0.8,0.2,1.2c-0.1,0.4-0.2,0.7-0.4,1c-0.2,0.3-0.5,0.6-0.9,0.7l-7.9,3.7c-0.1,0-0.2,0.1-0.3,0.2
									c0,0-0.1,0.1-0.1,0.4v1.3l24,0v-1.2c0-0.3-0.1-0.4-0.1-0.5C24.3,22.7,24.2,22.7,24.3,22.7C24.2,22.7,24.2,22.7,24.3,22.7z"
									/>
							</g>
							<g id="Group-9_1_" transform="translate(15.000000, 13.000000) scale(-1, 1) translate(-15.000000, -13.000000) ">
								<path id="User---simple-line-icons-Copy_3_" class="st1" d="M20,0c-0.6,0-1.2,0.1-1.8,0.3c-0.6,0.2-1.1,0.5-1.6,0.9
									S15.7,2,15.4,2.4C15.2,2.8,15,3.2,15,3.6v3.6c0,0.7,0.2,1.6,0.5,2.7s0.9,1.9,1.6,2.5c0.2,0.1,0.3,0.3,0.4,0.6
									c0.1,0.2,0.1,0.5,0.1,0.7c0,0.2-0.1,0.5-0.3,0.7c-0.1,0.2-0.3,0.4-0.5,0.5l-6.3,3c-0.1,0-0.2,0.1-0.4,0.2
									C10.1,18,10,18.3,10,18.5V20l20,0v-1.4c0-0.4-0.1-0.6-0.3-0.7c-0.2-0.1-0.3-0.1-0.3-0.1l-6.2-2.9c-0.2-0.1-0.4-0.3-0.6-0.5
									c-0.1-0.2-0.2-0.4-0.3-0.7c0-0.3,0-0.5,0.1-0.7c0.1-0.2,0.2-0.4,0.4-0.6c0.8-0.6,1.3-1.4,1.6-2.5c0.3-1.1,0.5-2,0.5-2.7V3.6
									c0-0.4-0.1-0.8-0.4-1.2s-0.7-0.8-1.2-1.1s-1-0.6-1.6-0.9C21.2,0.1,20.6,0,20,0z"/>
								<path id="User---simple-line-icons-Copy_4_" class="st2" d="M12.5,1c-0.8,0-1.5,0.1-2.3,0.4c-0.7,0.3-1.4,0.7-2,1.1
									C7.6,3,7.2,3.5,6.8,4C6.4,4.5,6.3,5,6.3,5.5v4.5c0,0.9,0.2,2,0.7,3.3S8,15.7,9,16.4c0.2,0.2,0.4,0.4,0.5,0.7
									c0.1,0.3,0.2,0.6,0.1,0.9c-0.1,0.3-0.2,0.6-0.3,0.8s-0.4,0.4-0.7,0.6l-7.8,3.7c-0.1,0-0.3,0.1-0.5,0.3S0,23.8,0,24.2V26
									l25,0v-1.7c0-0.5-0.1-0.8-0.3-0.9c-0.2-0.1-0.4-0.2-0.4-0.2l-7.8-3.7c-0.3-0.1-0.5-0.3-0.7-0.6c-0.2-0.3-0.3-0.5-0.3-0.9
									c0-0.3,0-0.6,0.1-0.9c0.1-0.3,0.3-0.5,0.5-0.7c1-0.7,1.7-1.8,2.1-3.2s0.6-2.5,0.6-3.3V5.5c0-0.5-0.2-1-0.6-1.5
									c-0.4-0.5-0.9-1-1.4-1.4s-1.3-0.8-2-1.1C14,1.1,13.3,1,12.5,1z"/>
								<path id="User---simple-line-icons-Copy_5_" class="st3" d="M24.9,22.9c0.4,0.2,0.6,0.7,0.6,1.4v2.2l-26,0v-2.3
									c0-0.5,0.2-0.9,0.5-1.2c0.2-0.2,0.4-0.3,0.5-0.3L8.4,19c0.2-0.1,0.4-0.2,0.5-0.4C9,18.4,9.1,18.2,9.1,18
									c0-0.2,0-0.4-0.1-0.7C9,17.1,8.8,17,8.7,16.8c-1-0.8-1.8-1.9-2.2-3.4C6,12,5.8,10.9,5.8,9.9V5.5c0-0.6,0.2-1.2,0.6-1.8
									c0.4-0.6,0.9-1.1,1.5-1.6C8.6,1.7,9.3,1.3,10.1,1c0.8-0.3,1.6-0.5,2.4-0.5c0.8,0,1.6,0.2,2.4,0.5c0.8,0.3,1.5,0.7,2.1,1.2
									c0.6,0.5,1.1,1,1.5,1.5c0.4,0.6,0.7,1.2,0.7,1.8v4.5c0,0.9-0.2,2.1-0.6,3.5c-0.4,1.5-1.2,2.6-2.2,3.4
									c-0.2,0.1-0.3,0.3-0.4,0.5c-0.1,0.2-0.1,0.4-0.1,0.7c0,0.2,0.1,0.4,0.2,0.6c0.1,0.2,0.3,0.3,0.5,0.4l7.7,3.6
									C24.5,22.7,24.6,22.7,24.9,22.9z M24.2,23.6C24.2,23.7,24.2,23.7,24.2,23.6C24.2,23.7,24.2,23.7,24.2,23.6z M24.3,23.7
									l-0.2,0l-7.8-3.7c-0.4-0.2-0.7-0.4-0.9-0.7c-0.2-0.3-0.4-0.7-0.4-1.1c0-0.4,0-0.8,0.2-1.2c0.2-0.4,0.4-0.7,0.7-0.9
									c0.9-0.7,1.5-1.6,1.9-2.9c0.4-1.3,0.6-2.4,0.6-3.2V5.5c0-0.4-0.1-0.8-0.5-1.2c-0.3-0.5-0.8-0.9-1.3-1.3
									c-0.5-0.4-1.2-0.7-1.9-1c-0.7-0.3-1.4-0.4-2.1-0.4c-0.7,0-1.4,0.1-2.1,0.4c-0.7,0.3-1.3,0.6-1.9,1C8,3.4,7.5,3.8,7.2,4.3
									C6.9,4.7,6.8,5.1,6.8,5.5v4.5c0,0.8,0.2,1.9,0.6,3.2c0.4,1.3,1,2.2,1.9,2.9c0.3,0.2,0.5,0.5,0.7,0.9
									c0.2,0.4,0.2,0.8,0.2,1.2c-0.1,0.4-0.2,0.7-0.4,1c-0.2,0.3-0.5,0.6-0.9,0.7l-7.9,3.7c-0.1,0-0.2,0.1-0.3,0.2
									c0,0-0.1,0.1-0.1,0.4v1.3l24,0v-1.2c0-0.3-0.1-0.4-0.1-0.5C24.3,23.7,24.2,23.7,24.3,23.7C24.2,23.7,24.2,23.7,24.3,23.7z"
									/>
							</g>
							
								<g id="Group-9_2_" transform="translate(40.500000, 43.500000) scale(-1, 1) translate(-40.500000, -43.500000) translate(28.000000, 31.000000)">
								<path id="User---simple-line-icons-Copy_6_" class="st3" d="M24.9,21.9c0.4,0.2,0.6,0.7,0.6,1.4v2.2l-26,0v-2.3
									c0-0.5,0.2-0.9,0.5-1.2c0.2-0.2,0.4-0.3,0.5-0.3L8.4,18c0.2-0.1,0.4-0.2,0.5-0.4C9,17.4,9.1,17.2,9.1,17
									c0-0.2,0-0.4-0.1-0.7C9,16.1,8.8,16,8.7,15.8c-1-0.8-1.8-1.9-2.2-3.4C6,11,5.8,9.9,5.8,8.9V4.5c0-0.6,0.2-1.2,0.6-1.8
									c0.4-0.6,0.9-1.1,1.5-1.6C8.6,0.7,9.3,0.3,10.1,0c0.8-0.3,1.6-0.5,2.4-0.5c0.8,0,1.6,0.2,2.4,0.5c0.8,0.3,1.5,0.7,2.1,1.2
									c0.6,0.5,1.1,1,1.5,1.5c0.4,0.6,0.7,1.2,0.7,1.8v4.5c0,0.9-0.2,2.1-0.6,3.5c-0.4,1.5-1.2,2.6-2.2,3.4
									c-0.2,0.1-0.3,0.3-0.4,0.5c-0.1,0.2-0.1,0.4-0.1,0.7c0,0.2,0.1,0.4,0.2,0.6c0.1,0.2,0.3,0.3,0.5,0.4l7.7,3.6
									C24.5,21.7,24.6,21.7,24.9,21.9z M24.2,22.6C24.2,22.7,24.2,22.7,24.2,22.6C24.2,22.7,24.2,22.7,24.2,22.6z M24.3,22.7
									l-0.2,0l-7.8-3.7c-0.4-0.2-0.7-0.4-0.9-0.7c-0.2-0.3-0.4-0.7-0.4-1.1c0-0.4,0-0.8,0.2-1.2c0.2-0.4,0.4-0.7,0.7-0.9
									c0.9-0.7,1.5-1.6,1.9-2.9c0.4-1.3,0.6-2.4,0.6-3.2V4.5c0-0.4-0.1-0.8-0.5-1.2c-0.3-0.5-0.8-0.9-1.3-1.3
									c-0.5-0.4-1.2-0.7-1.9-1c-0.7-0.3-1.4-0.4-2.1-0.4c-0.7,0-1.4,0.1-2.1,0.4c-0.7,0.3-1.3,0.6-1.9,1C8,2.4,7.5,2.8,7.2,3.3
									C6.9,3.7,6.8,4.1,6.8,4.5v4.5c0,0.8,0.2,1.9,0.6,3.2c0.4,1.3,1,2.2,1.9,2.9c0.3,0.2,0.5,0.5,0.7,0.9
									c0.2,0.4,0.2,0.8,0.2,1.2c-0.1,0.4-0.2,0.7-0.4,1c-0.2,0.3-0.5,0.6-0.9,0.7l-7.9,3.7c-0.1,0-0.2,0.1-0.3,0.2
									c0,0-0.1,0.1-0.1,0.4v1.3l24,0v-1.2c0-0.3-0.1-0.4-0.1-0.5C24.3,22.7,24.2,22.7,24.3,22.7C24.2,22.7,24.2,22.7,24.3,22.7z"
									/>
							</g>
							<polygon id="Path-21" class="st4" points="40.2,25.5 39.2,25.5 39.2,20.8 54.1,17.5 54.3,18.5 40.2,21.6 							"/>
							<path id="Path-4" class="st5" d="M45.6,7.7c0.2-0.2,0.5-0.2,0.7,0c0.2,0.2,0.2,0.5,0,0.7l-7,8c-0.2,0.2-0.5,0.2-0.7,0.1
								l-4-3.3c-0.2-0.2-0.2-0.5-0.1-0.7s0.5-0.2,0.7-0.1l3.6,2.9L45.6,7.7z"/>
							<polygon id="Path-22" class="st4" points="23.9,18.5 24.1,17.5 39.6,20.8 39.4,21.7 							"/>
						</g>
					</g>
				</g>
			</g>
		</g>
	</g>
</g>
</svg>
