<?xml version="1.0" encoding="utf-8"?>
<!-- Generator: Adobe Illustrator 22.0.0, SVG Export Plug-In . SVG Version: 6.00 Build 0)  -->
<svg version="1.1" id="图层_1" xmlns="http://www.w3.org/2000/svg" xmlns:xlink="http://www.w3.org/1999/xlink" x="0px" y="0px"
	 viewBox="0 0 36 38" style="enable-background:new 0 0 36 38;" xml:space="preserve">
<style type="text/css">
	.st0{fill:none;}
	.st1{fill:#1C3C55;}
	.st2{fill:none;stroke:#157AF9;stroke-linecap:round;stroke-linejoin:round;}
</style>
<title>Flexible transparency/icon</title>
<desc>Created with Sketch.</desc>
<g id="Innovation">
	<g id="_x32_2.01.18-Bitcoin.org_x5F_Innovation_x5F_Desktop-1200px--" transform="translate(-782.000000, -2493.000000)">
		<g id="_x2F__x2F_contenct" transform="translate(215.000000, 697.000000)">
			<g id="box11" transform="translate(400.000000, 1755.000000)">
				<g id="Flexible-transparency_x2F_icon" transform="translate(155.000000, 30.000000)">
					<g>
						<rect id="Rectangle-2" class="st0" width="60" height="60"/>
						<path id="Shape" class="st1" d="M47.8,47.8L37.3,36.7c2.7-2.7,4.3-6.5,4.3-10.6C41.6,17.8,35,11,26.8,11S12,17.8,12,26.1
							s6.6,15.1,14.8,15.1c3.6,0,6.9-1.3,9.4-3.5l10.5,11.1c0.1,0.1,0.3,0.2,0.5,0.2c0.2,0,0.4-0.1,0.5-0.2
							C48.1,48.5,48.1,48.1,47.8,47.8z M26.8,40.1c-7.6,0-13.8-6.3-13.8-14.1S19.2,12,26.8,12s13.8,6.3,13.8,14.1
							S34.5,40.1,26.8,40.1z"/>
					</g>
					<path id="Oval-8" class="st2" d="M27,38c6.6,0,12-5.4,12-12s-5.4-12-12-12s-12,5.4-12,12"/>
				</g>
			</g>
		</g>
	</g>
</g>
</svg>
